<svg width="27" height="31" viewBox="0 0 27 31" fill="none" xmlns="http://www.w3.org/2000/svg">
<path d="M25.8896 26.14C25.8896 26.14 22.5096 20.34 21.9096 19.29C22.5996 19.08 23.3296 18.89 23.6396 18.37C24.1496 17.49 23.2396 16.05 23.4796 15.11C23.7196 14.14 25.1696 13.3 25.1696 12.32C25.1696 11.36 23.6796 10.24 23.4296 9.28003C23.1896 8.34003 24.0896 6.90003 23.5796 6.02003C23.0696 5.14003 21.3696 5.22003 20.6696 4.54003C19.9496 3.85003 19.9496 2.15003 19.0796 1.69003C18.2096 1.22003 16.7896 2.17003 15.8196 1.94003C14.8596 1.72003 14.0096 0.280029 13.0096 0.280029C11.9996 0.280029 10.3796 1.91003 10.1296 1.97003C9.15956 2.19003 7.73956 1.26003 6.86956 1.72003C5.99956 2.19003 6.00956 3.88003 5.28956 4.57003C4.58956 5.24003 2.88956 5.18003 2.37956 6.05003C1.86956 6.93003 2.77956 8.37003 2.53956 9.31003C2.29956 10.25 0.80956 11.21 0.80956 12.3C0.80956 13.28 2.25956 14.12 2.50956 15.09C2.74956 16.03 1.84956 17.47 2.35956 18.35C2.63956 18.83 3.26956 19.02 3.89956 19.21C3.96956 19.23 4.10956 19.31 4.01956 19.45C3.58956 20.19 0.119561 26.17 0.119561 26.17C-0.160439 26.65 0.0695609 27.05 0.619561 27.08L3.30956 27.19C3.85956 27.21 4.54956 27.61 4.83956 28.08L6.26956 30.36C6.55956 30.82 7.02956 30.82 7.29956 30.34L11.3096 23.41C11.3896 23.32 11.4696 23.34 11.5096 23.37C11.9496 23.74 12.5596 24.12 13.0696 24.12C13.5696 24.12 14.0296 23.77 14.4896 23.38C14.5296 23.35 14.6196 23.28 14.6796 23.42L18.6896 30.31C18.9696 30.78 19.4296 30.79 19.7196 30.33L21.1496 28.05C21.4396 27.58 22.1296 27.18 22.6796 27.16L25.3696 27.04C25.9396 27.02 26.1596 26.61 25.8896 26.14ZM17.4596 19.91C14.4896 21.64 10.9196 21.45 8.19956 19.74C4.20956 17.18 2.88956 11.89 5.28956 7.75003C7.71956 3.56003 13.0496 2.08003 17.2796 4.38003C17.2996 4.39003 17.3196 4.40003 17.3496 4.42003C17.3796 4.44003 17.4096 4.45003 17.4396 4.47003C18.7396 5.22003 19.8796 6.31003 20.6796 7.71003C23.1596 11.96 21.7096 17.43 17.4596 19.91Z" fill="#0A8FDC"/>
<path d="M16.78 5.72C16.77 5.71 16.76 5.71 16.74 5.7C14.48 4.39 11.6 4.3 9.18995 5.7C5.60995 7.78 4.38995 12.39 6.46995 15.97C7.10995 17.06 7.97996 17.93 8.97996 18.56C9.06996 18.61 9.14995 18.67 9.23995 18.72C12.82 20.8 17.43 19.57 19.5 15.99C21.59 12.4 20.36 7.8 16.78 5.72ZM17.68 11.58L16.43 12.8C16.04 13.18 15.8 13.93 15.89 14.46L16.19 16.19C16.28 16.72 15.96 16.96 15.48 16.7L13.93 15.88C13.45 15.63 12.66 15.63 12.18 15.88L10.63 16.7C10.15 16.95 9.82995 16.72 9.91995 16.19L10.22 14.46C10.31 13.93 10.07 13.18 9.67995 12.8L8.42995 11.58C8.03995 11.2 8.15995 10.83 8.69995 10.75L10.43 10.5C10.97 10.42 11.6 9.96 11.84 9.47L12.62 7.9C12.86 7.41 13.25 7.41 13.49 7.9L14.27 9.47C14.51 9.96 15.15 10.42 15.68 10.5L17.41 10.75C17.94 10.83 18.07 11.2 17.68 11.58Z" fill="#0A8FDC"/>
</svg>
