<svg width="22" height="22" viewBox="0 0 22 22" fill="none" xmlns="http://www.w3.org/2000/svg">
<path fill-rule="evenodd" clip-rule="evenodd" d="M22 4.82128C22 7.48399 17.0751 9.64255 11 9.64255C4.92487 9.64255 0 7.48399 0 4.82128C0 2.15856 4.92487 0 11 0C17.0751 0 22 2.15856 22 4.82128ZM22 10.7659V8.51905C22 8.28501 21.7191 8.14458 21.5319 8.28501C19.2383 10.1105 15.1191 11.0467 11 11.0467C6.92766 11.0467 2.80851 10.1105 0.468085 8.28501C0.280851 8.14458 0 8.28501 0 8.51905V10.7659V10.9531C0 13.5744 4.91489 15.7276 11 15.7276C17.0851 15.7276 22 13.5744 22 10.9063V10.7659ZM22 17.0384V14.7916C22 14.5575 21.7191 14.4171 21.5319 14.5575C19.2383 16.383 15.1191 17.3192 11 17.3192C6.92766 17.3192 2.80851 16.383 0.468085 14.5575C0.280851 14.4171 0 14.5575 0 14.7916V17.0384V17.2256C0 19.8469 4.91489 22.0001 11 22.0001C17.0851 22.0001 22 19.8469 22 17.1788V17.0384Z" fill="#0A8FDC"/>
</svg>
