<svg width="26" height="26" viewBox="0 0 26 26" fill="none" xmlns="http://www.w3.org/2000/svg">
<path fill-rule="evenodd" clip-rule="evenodd" d="M25.9418 3.56807C25.8243 3.28318 25.546 3.09793 25.2381 3.09793H22.9022V0.762036C22.9022 0.454097 22.717 0.175917 22.4321 0.0583578C22.1472 -0.0606739 21.8199 0.00630683 21.6019 0.223499L18.5551 3.32112C18.4123 3.46396 18.3319 3.65734 18.3319 3.85965V6.59108L11.6997 13.2234C11.4022 13.5209 11.4022 14.003 11.6997 14.3005C11.9972 14.598 12.4793 14.598 12.7768 14.3005L19.409 7.66831H22.1405C22.3428 7.66831 22.5362 7.58797 22.679 7.44513L25.7766 4.39824C25.9946 4.18029 26.06 3.853 25.9418 3.56807ZM23.3512 8.83876C22.9909 9.06534 22.576 9.19164 22.1404 9.19164H20.0397L19.5497 9.68168C20.2269 10.8904 20.617 12.2807 20.617 13.7619C20.617 18.382 16.8582 22.1408 12.2381 22.1408C7.61803 22.1408 3.85934 18.382 3.85934 13.7619C3.85934 9.14187 7.61808 5.38308 12.2382 5.38308C13.7194 5.38308 15.1097 5.77313 16.3184 6.45035L16.8085 5.96031V3.85964C16.8085 3.42403 16.9347 3.00905 17.1613 2.6488C15.6212 1.96442 13.9646 1.57447 12.2382 1.57447C5.51816 1.57447 0 7.04181 0 13.7619C0 20.4819 5.51811 26 12.2381 26C18.9581 26 24.4255 20.4819 24.4255 13.7619C24.4255 12.0355 24.0356 10.3788 23.3512 8.83876ZM15.2643 13.9672L18.4066 10.8249C18.8343 11.7186 19.0936 12.7069 19.0936 13.762C19.0936 17.5423 16.0185 20.6174 12.2382 20.6174C8.45793 20.6174 5.38281 17.5423 5.38281 13.762C5.38281 9.98175 8.45793 6.90663 12.2382 6.90663C13.2933 6.90663 14.2817 7.16597 15.1753 7.5936L12.033 10.7359C10.4479 10.8434 9.19137 12.1495 9.19137 13.762C9.19137 15.4447 10.5555 16.8089 12.2382 16.8089C13.8506 16.8089 15.1568 15.5524 15.2643 13.9672Z" fill="#0A8FDC"/>
</svg>
