<svg width="16" height="16" viewBox="0 0 16 16" fill="none" xmlns="http://www.w3.org/2000/svg">
<path fill-rule="evenodd" clip-rule="evenodd" d="M8.45344 1.18719H15.4378C15.7435 1.18719 15.9922 1.43584 15.9921 1.74147V3.19028C15.9921 3.49597 15.7434 3.74463 15.4377 3.74463H15.1307V11.1217C15.1307 11.897 14.4999 12.5278 13.7245 12.5278H8.45341V13.4546L9.88631 15.2376C10.0485 15.4394 10.0163 15.7344 9.81456 15.8966C9.728 15.9662 9.62425 16 9.52122 16C9.38406 16 9.24816 15.9401 9.15553 15.8249L7.98466 14.368L6.81381 15.8249C6.72119 15.9401 6.58525 16 6.44809 16C6.34506 16 6.24134 15.9662 6.15475 15.8966C5.95297 15.7344 5.92084 15.4394 6.083 15.2376L7.51587 13.4546V12.5278H2.24478C1.46944 12.5278 0.838625 11.897 0.838625 11.1217V3.74466H0.554312C0.248656 3.74466 0 3.49597 0 3.19031V1.7415C0 1.43584 0.248688 1.18719 0.554312 1.18719H7.51591V0.468781C7.51591 0.209875 7.72581 0 7.98469 0C8.24356 0 8.45344 0.209875 8.45344 0.468781V1.18719ZM5.53212 9.00609C5.64609 9.00609 5.756 8.97519 5.86187 8.91328C5.96769 8.85144 6.02066 8.77819 6.02066 8.69344C6.02066 8.68366 6.01737 8.66578 6.01087 8.63969L5.09734 5.65956C5.07122 5.57819 5.01184 5.51544 4.91903 5.47147C4.82622 5.4275 4.71947 5.40553 4.59903 5.40553C4.47853 5.40553 4.37191 5.4275 4.27906 5.47147C4.18625 5.51544 4.12678 5.57819 4.10075 5.65956L3.19206 8.63969C3.1855 8.66581 3.18228 8.68366 3.18228 8.69344C3.18228 8.77819 3.23519 8.85144 3.34106 8.91328C3.44687 8.97519 3.55678 9.00609 3.67081 9.00609C3.81084 9.00609 3.89387 8.95891 3.91997 8.86441L4.08606 8.25372H5.11687L5.28297 8.86441C5.309 8.95891 5.39206 9.00609 5.53212 9.00609ZM9.101 10.3171C9.27847 10.1494 9.36725 9.88309 9.36725 9.51831V9.41572C9.36725 9.18778 9.32491 9.01594 9.24025 8.90031C9.1555 8.78475 9.03016 8.69597 8.86406 8.63406C9.14087 8.51363 9.27934 8.25791 9.27934 7.86706C9.27934 7.28734 8.95362 6.99744 8.30225 6.99744H7.30075C7.20953 6.99744 7.13134 7.01781 7.06625 7.0585C7.00106 7.09928 6.96853 7.15706 6.96853 7.23194V10.3391C6.96853 10.401 6.99862 10.4548 7.05894 10.5003C7.11912 10.5459 7.19978 10.5687 7.30075 10.5687H8.38528C8.68491 10.5687 8.92344 10.4849 9.101 10.3171ZM11.5098 7.702C11.4495 7.73131 11.3737 7.74597 11.2826 7.74597C10.9862 7.74597 10.838 7.58313 10.838 7.2575V5.96284C10.838 5.63716 10.9846 5.47428 11.2777 5.47428C11.5578 5.47428 11.7027 5.62087 11.7125 5.914C11.7223 6.06709 11.8494 6.14359 12.0936 6.14359C12.2304 6.14359 12.3281 6.11841 12.3867 6.06787C12.4453 6.01741 12.4747 5.92212 12.4747 5.78206C12.4747 5.47916 12.3599 5.24144 12.1302 5.06878C11.9006 4.89619 11.6067 4.80984 11.2484 4.80984C10.8999 4.80984 10.6174 4.90269 10.4008 5.08831C10.1842 5.27394 10.0759 5.56544 10.0759 5.96278V7.25744C10.0759 7.65481 10.1842 7.94631 10.4008 8.13194C10.6174 8.31759 10.8999 8.41041 11.2484 8.41041C11.6067 8.41041 11.9006 8.31928 12.1302 8.13684C12.3598 7.9545 12.4747 7.70531 12.4747 7.38938C12.4747 7.24938 12.4453 7.15409 12.3867 7.10356C12.3281 7.05312 12.2287 7.02784 12.0887 7.02784C11.8509 7.02784 11.7255 7.10441 11.7125 7.25744C11.706 7.32584 11.6987 7.37956 11.6906 7.41866C11.6824 7.45775 11.6653 7.50744 11.6392 7.56766C11.6132 7.62794 11.57 7.67269 11.5098 7.702ZM8.24005 7.66185C8.32796 7.66185 8.39636 7.69604 8.44521 7.76444C8.49408 7.83285 8.51852 7.91266 8.51852 8.00385C8.51852 8.09507 8.49405 8.17407 8.44521 8.24079C8.39636 8.30757 8.32796 8.34091 8.24005 8.34091H7.72708V7.66185H8.24005ZM8.21565 8.92721H7.72708V9.90431H8.21565C8.47615 9.90431 8.60649 9.75456 8.60649 9.45484V9.37668C8.60646 9.07706 8.47615 8.92721 8.21565 8.92721ZM4.24167 7.66742L4.59829 6.35814L4.95492 7.66742H4.24167Z" fill="#0A8FDC"/>
</svg>
