<svg width="15" height="18" viewBox="0 0 15 18" fill="none" xmlns="http://www.w3.org/2000/svg">
<path d="M9.54645 17.2346C10.1986 15.9303 10.9756 13.7095 9.88993 12.7518C8.88937 12.9019 8.08006 12.903 7.42158 12.7553C5.76359 12.383 5.23905 11.0696 5.69538 9.38767C3.46504 11.4257 3.37082 14.4316 4.19771 17.3257C4.33201 17.7957 3.80571 18.1811 3.39825 17.9093C3.25973 17.8168 0 15.6044 0 12.1977C0 6.61697 6.32715 6.37685 6.32715 0.527826C6.32715 0.0809847 6.85063 -0.163354 7.19341 0.123876C9.72188 2.24488 14.3225 7.3433 14.0644 12.0322C13.9365 14.3567 12.6736 16.3343 10.3108 17.9093C9.86356 18.2071 9.30563 17.7166 9.54645 17.2346Z" fill="#0A8FDC"/>
</svg>
