<svg width="26" height="25" viewBox="0 0 26 25" fill="none" xmlns="http://www.w3.org/2000/svg">
<path d="M12.218 11.5462V23.7854C12.218 24.1046 12.2127 24.4237 12.2127 24.7429C12.0478 24.6711 11.8855 24.5993 11.7206 24.5275C10.6834 24.07 9.64353 23.6126 8.60631 23.1551C7.35103 22.6019 6.09302 22.0487 4.83773 21.4956C3.75266 21.0168 2.67021 20.5381 1.58509 20.0594C1.13828 19.8626 0.70213 19.6472 0.25 19.4584V7.22162C0.25 6.90248 0.252659 6.58333 0.255319 6.26416C0.42287 6.33863 0.590422 6.41309 0.757978 6.4849C1.79787 6.94501 2.84039 7.40244 3.88029 7.85987C4.84835 8.2854 5.81642 8.71361 6.78453 9.13913C7.07176 9.26679 7.35897 9.39179 7.64887 9.51945C8.73662 9.99817 9.82704 10.4795 10.9148 10.9583C11.3483 11.1498 11.7845 11.3412 12.218 11.5327V11.5462Z" fill="white"/>
<path d="M13.2902 11.5354C13.5322 11.429 13.7715 11.3226 14.0109 11.2163C14.9976 10.7801 15.9896 10.3466 16.9763 9.9104C17.6678 9.60455 18.3619 9.30139 19.0534 8.99554V12.1577C19.0534 12.437 19.2981 12.7029 19.5853 12.6897C19.8726 12.6764 20.1173 12.4556 20.1173 12.1577V8.52746C20.3035 8.43703 20.5215 8.34661 20.7263 8.25885C20.8859 8.1897 21.0428 8.11789 21.1997 8.04874C22.2848 7.57002 23.3699 7.09128 24.455 6.61522C24.463 6.61256 24.4683 6.60724 24.4789 6.60458C24.7369 6.49022 25.0109 6.37586 25.2502 6.26416V18.0433C25.2502 18.5193 25.2449 18.9981 25.2475 19.4741C24.9045 19.6257 24.564 19.7773 24.221 19.9289C23.1838 20.3864 22.1439 20.8438 21.1066 21.3013C19.8514 21.8544 18.596 22.4076 17.3381 22.9608C16.253 23.4395 15.1679 23.9183 14.0828 24.397C13.8168 24.514 13.5482 24.6257 13.2822 24.74V12.9663V12.7721C13.2849 12.3599 13.2902 11.9477 13.2875 11.5354L13.2902 11.5354Z" fill="white"/>
<path d="M12.7391 10.6132C12.3987 10.4643 12.0609 10.3154 11.7205 10.1638C10.6833 9.70633 9.64338 9.24891 8.60616 8.79143C7.35087 8.23824 6.09286 7.68505 4.83758 7.13187C3.75251 6.65314 2.66738 6.1744 1.57963 5.69572C1.41474 5.62125 1.24719 5.54944 1.08228 5.47497C1.08493 5.47497 1.08759 5.47497 1.08759 5.47231C1.10887 5.46433 1.12749 5.45635 1.14876 5.44838C2.18866 5.0388 3.22588 4.62659 4.26577 4.21702C5.0078 3.92447 5.74982 3.63193 6.48917 3.33936C6.89077 3.50425 7.295 3.66914 7.69661 3.83671C8.7365 4.2649 9.77372 4.69045 10.8136 5.1186C12.0663 5.63454 13.3189 6.15052 14.5715 6.66378C15.6566 7.11059 16.7444 7.5574 17.8322 8.00418C17.9758 8.06269 18.1194 8.12386 18.2604 8.18503C17.9518 8.32067 17.6433 8.4563 17.3375 8.59194C16.2524 9.07067 15.1673 9.54941 14.0822 10.0281C13.638 10.2249 13.1859 10.4084 12.7418 10.6132L12.7391 10.6132Z" fill="white"/>
<path d="M24.412 5.48009C24.3482 5.50669 24.2843 5.53594 24.2205 5.5652C23.1833 6.02264 22.1434 6.48006 21.1062 6.93754C20.6062 7.15828 20.1062 7.37902 19.6062 7.59708C19.2099 7.43485 18.8163 7.27262 18.42 7.11038C17.3801 6.68219 16.3429 6.25402 15.303 5.82849C14.0503 5.31255 12.7977 4.79657 11.545 4.28331C10.4573 3.83651 9.37217 3.3897 8.28442 2.94292C8.15942 2.89239 8.03442 2.8392 7.90942 2.786C7.94666 2.77005 7.98389 2.75675 8.02113 2.74079C9.11155 2.30994 10.1993 1.88176 11.2897 1.45093C11.6461 1.30997 12.0025 1.16901 12.3588 1.02806C12.4892 0.977527 12.6221 0.929658 12.7525 0.876465C13.1354 1.02806 13.5211 1.17966 13.9041 1.33125C14.944 1.74082 15.9812 2.15041 17.0211 2.56261C18.2737 3.05729 19.5264 3.55198 20.779 4.04666C21.8694 4.47751 22.9572 4.90569 24.0476 5.33652C24.1699 5.37907 24.2923 5.42961 24.412 5.48014L24.412 5.48009Z" fill="white"/>
</svg>
