<svg width="26" height="26" viewBox="0 0 26 26" fill="none" xmlns="http://www.w3.org/2000/svg">
<path d="M13 0C9.55219 0 6.24563 1.36964 3.80764 3.80764C1.36964 6.24563 0 9.55194 0 13C0 16.4481 1.36964 19.7544 3.80764 22.1924C6.24563 24.6304 9.55194 26 13 26C16.4481 26 19.7544 24.6304 22.1924 22.1924C24.6304 19.7544 26 16.4481 26 13C26 9.55194 24.6304 6.24563 22.1924 3.80764C19.7544 1.36964 16.4481 0 13 0ZM12.8229 21.5522C12.4283 21.5522 12.0498 21.3954 11.7708 21.1164C11.4916 20.8372 11.3349 20.4589 11.3349 20.0641C11.3349 19.6695 11.4916 19.291 11.7708 19.0118C12.0498 18.7328 12.4283 18.576 12.8229 18.576C13.2176 18.576 13.5962 18.7328 13.8752 19.0118C14.1544 19.291 14.311 19.6695 14.311 20.0641C14.3103 20.4587 14.1534 20.8366 13.8744 21.1156C13.5954 21.3944 13.2174 21.5515 12.8229 21.5522L12.8229 21.5522ZM14.4494 14.3277C14.4494 14.3277 14.3027 14.3801 14.3027 14.466V15.6472C14.3027 16.1762 14.0205 16.6653 13.5622 16.9298C13.104 17.1943 12.5393 17.1943 12.0811 16.9298C11.6228 16.6653 11.3404 16.1762 11.3404 15.6472V14.466C11.3469 13.8108 11.559 13.1739 11.9464 12.6455C12.334 12.117 12.8776 11.7234 13.5008 11.5203C13.9304 11.3769 14.3022 11.0987 14.561 10.7269C14.8195 10.3549 14.9513 9.90963 14.9362 9.457C14.9075 8.90963 14.6719 8.39354 14.2769 8.01361C13.882 7.63352 13.3572 7.41784 12.8092 7.41009C12.4147 7.41183 12.0284 7.52489 11.6952 7.73616C11.362 7.94761 11.0953 8.2488 10.9256 8.60496C10.6958 9.08171 10.2291 9.39988 9.7014 9.43924C9.1735 9.4786 8.66496 9.23357 8.36682 8.79616C8.06873 8.35877 8.02667 7.79557 8.25646 7.31884C8.66472 6.46298 9.30624 5.73943 10.1071 5.23163C10.908 4.72383 11.8361 4.45217 12.7843 4.44773H12.8148H12.8146C14.1322 4.45545 15.3958 4.97138 16.3421 5.8882C17.2883 6.80502 17.8439 8.05182 17.8929 9.36842C17.9298 10.4548 17.6147 11.5243 16.9946 12.4174C16.3747 13.3105 15.4829 13.9794 14.452 14.325L14.4494 14.3277Z" fill="white"/>
</svg>
