<svg width="25" height="27" viewBox="0 0 25 27" fill="none" xmlns="http://www.w3.org/2000/svg">
<path d="M11.3012 11.1287C10.1805 9.23984 8.18923 8.10396 6.05811 8.13795C3.92704 8.10398 1.9358 9.23984 0.815008 11.1287C0.315826 11.9608 0.0358399 12.9154 0.00321278 13.8961C-0.0293907 14.8769 0.18663 15.8493 0.629466 16.7154L4.91759 25.3357C5.06719 25.6218 5.31075 25.8421 5.60383 25.956C5.89674 26.0701 6.21928 26.0701 6.51235 25.956C6.80526 25.8421 7.04884 25.6218 7.19841 25.3357L11.4865 16.7154C11.9294 15.8493 12.1454 14.8769 12.1128 13.8961C12.0802 12.9154 11.8002 11.9608 11.301 11.1287H11.3012ZM6.05811 17.4968C5.22945 17.4968 4.43475 17.1538 3.84893 16.5433C3.26294 15.9329 2.93376 15.1049 2.93376 14.2416C2.93376 13.3782 3.26294 12.5502 3.84893 11.9399C4.43475 11.3293 5.22945 10.9864 6.05811 10.9864C6.88678 10.9864 7.68148 11.3293 8.2673 11.9399C8.85329 12.5502 9.18246 13.3782 9.18246 14.2416C9.18264 15.1049 8.85364 15.9331 8.26765 16.5437C7.68167 17.1542 6.88678 17.497 6.05811 17.4968Z" fill="white"/>
<path d="M17.7744 13.021H18.946V14.2417H17.7744V13.021Z" fill="white"/>
<path d="M10.7446 4.88281H11.9163V6.10352H10.7446V4.88281Z" fill="white"/>
<path d="M17.7744 8.95166H18.946V10.1724H17.7744V8.95166Z" fill="white"/>
<path d="M14.2603 4.88281H15.4319V6.10352H14.2603V4.88281Z" fill="white"/>
<path d="M14.2603 13.021H15.4319V14.2417H14.2603V13.021Z" fill="white"/>
<path d="M14.2603 8.95166H15.4319V10.1724H14.2603V8.95166Z" fill="white"/>
<path d="M17.7744 4.88281H18.946V6.10352H17.7744V4.88281Z" fill="white"/>
<path d="M19.3366 25.228H13.869V24.0073H8.73923L8.68448 24.1172L8.20605 25.0794V25.228C8.20605 25.4438 8.28835 25.6509 8.4348 25.8035C8.58125 25.9561 8.78002 26.0418 8.98714 26.0418H24.2184C24.4255 26.0418 24.6242 25.9561 24.7707 25.8035C24.9171 25.6509 24.9994 25.4438 24.9994 25.228V24.0073H19.3363L19.3366 25.228Z" fill="white"/>
<path d="M11.9167 10.1724V8.95166H10.7451V9.16329C11.0694 9.46846 11.3639 9.80652 11.6239 10.1724L11.9167 10.1724Z" fill="white"/>
<path d="M24.9978 2.43124C24.9974 2.39545 24.9922 2.35967 24.9821 2.32552C24.98 2.31771 24.9776 2.31026 24.9742 2.303C24.9627 2.26866 24.9469 2.23578 24.9275 2.20545C24.923 2.20109 24.9192 2.19636 24.9157 2.1911C24.894 2.16312 24.8691 2.13787 24.8416 2.11589L24.8356 2.10971L22.9043 0.677373V0.677555C22.3093 0.235595 21.5965 -0.00129675 20.8658 5.33907e-06H12.3399C11.6092 -0.00126624 10.8965 0.235608 10.3014 0.677555L8.37012 2.1099L8.36419 2.11607V2.11589C8.33665 2.13787 8.31171 2.16312 8.29009 2.1911C8.28661 2.19636 8.28277 2.20109 8.27824 2.20545C8.25888 2.23578 8.24302 2.26866 8.23151 2.303C8.2282 2.31026 8.22576 2.31771 8.22366 2.32552C8.21355 2.35967 8.20832 2.39546 8.20797 2.43124C8.20605 2.43324 8.20605 2.43524 8.20605 2.43941V7.66171C8.82972 7.86117 9.4225 8.1538 9.96542 8.53057C9.9717 8.31168 10.144 8.13766 10.354 8.13784H12.3068C12.5223 8.13857 12.6966 8.32022 12.6973 8.54474V10.5793C12.6966 10.8038 12.5223 10.9854 12.3068 10.9862H12.1251C13.1372 12.879 13.1578 15.1776 12.1798 17.0897L9.14337 23.1932H13.8692V19.938C13.8692 18.9204 14.3903 17.9801 15.2361 17.4713C16.0818 16.9625 17.1241 16.9625 17.9699 17.4713C18.8157 17.9801 19.3368 18.9204 19.3368 19.938V23.1932H24.9999V2.43935C24.9999 2.43518 24.9999 2.43318 24.998 2.43118L24.9978 2.43124ZM12.6977 6.51044C12.697 6.73496 12.5226 6.91662 12.3071 6.91734H10.3544C10.1389 6.91662 9.96454 6.73496 9.96385 6.51044V4.47593C9.96455 4.25141 10.1389 4.06976 10.3544 4.06903H12.3071C12.5226 4.06976 12.697 4.25141 12.6977 4.47593V6.51044ZM16.2126 14.6485C16.2119 14.873 16.0375 15.0547 15.822 15.0554H13.8693C13.6538 15.0547 13.4794 14.873 13.4787 14.6485V12.614C13.4794 12.3894 13.6538 12.2078 13.8693 12.2071H15.822C16.0375 12.2078 16.2119 12.3894 16.2126 12.614V14.6485ZM16.2126 10.5795C16.2119 10.804 16.0375 10.9856 15.822 10.9864H13.8693C13.6538 10.9856 13.4794 10.804 13.4787 10.5795V8.54495C13.4794 8.32043 13.6538 8.13878 13.8693 8.13805H15.822C16.0375 8.13878 16.2119 8.32043 16.2126 8.54495V10.5795ZM16.2126 6.51044C16.2119 6.73496 16.0375 6.91662 15.822 6.91734H13.8693C13.6538 6.91662 13.4794 6.73496 13.4787 6.51044V4.47593C13.4794 4.25141 13.6538 4.06976 13.8693 4.06903H15.822C16.0375 4.06976 16.2119 4.25141 16.2126 4.47593V6.51044ZM19.7274 14.6485C19.7268 14.873 19.5524 15.0547 19.3369 15.0554H17.3842C17.1687 15.0547 16.9943 14.873 16.9936 14.6485V12.614C16.9943 12.3894 17.1687 12.2078 17.3842 12.2071H19.3369C19.5524 12.2078 19.7268 12.3894 19.7274 12.614V14.6485ZM19.7274 10.5795C19.7268 10.804 19.5524 10.9856 19.3369 10.9864H17.3842C17.1687 10.9856 16.9943 10.804 16.9936 10.5795V8.54495C16.9943 8.32043 17.1687 8.13878 17.3842 8.13805H19.3369C19.5524 8.13878 19.7268 8.32043 19.7274 8.54495V10.5795ZM19.7274 6.51044C19.7268 6.73496 19.5524 6.91662 19.3369 6.91734H17.3842C17.1687 6.91662 16.9943 6.73496 16.9936 6.51044V4.47593C16.9943 4.25141 17.1687 4.06976 17.3842 4.06903H19.3369C19.5524 4.06976 19.7268 4.25141 19.7274 4.47593V6.51044ZM23.2423 14.6485C23.2416 14.873 23.0673 15.0547 22.8518 15.0554H20.8991C20.6836 15.0547 20.5092 14.873 20.5085 14.6485V12.614C20.5092 12.3894 20.6836 12.2078 20.8991 12.2071H22.8518C23.0673 12.2078 23.2416 12.3894 23.2423 12.614V14.6485ZM23.2423 10.5795C23.2416 10.804 23.0673 10.9856 22.8518 10.9864H20.8991C20.6836 10.9856 20.5092 10.804 20.5085 10.5795V8.54495C20.5092 8.32043 20.6836 8.13878 20.8991 8.13805H22.8518C23.0673 8.13878 23.2416 8.32043 23.2423 8.54495V10.5795ZM23.2423 6.51044C23.2416 6.73496 23.0673 6.91662 22.8518 6.91734H20.8991C20.6836 6.91662 20.5092 6.73496 20.5085 6.51044V4.47593C20.5092 4.25141 20.6836 4.06976 20.8991 4.06903H22.8518C23.0673 4.06976 23.2416 4.25141 23.2423 4.47593V6.51044ZM9.81924 2.03452L10.7546 1.34079C11.2177 0.997467 11.772 0.813259 12.3401 0.813817H20.8661C21.4342 0.813272 21.9885 0.997467 22.4516 1.34079L23.387 2.03452H9.81924Z" fill="white"/>
<path d="M21.29 13.021H22.4617V14.2417H21.29V13.021Z" fill="white"/>
<path d="M21.29 4.88281H22.4617V6.10352H21.29V4.88281Z" fill="white"/>
<path d="M21.29 8.95166H22.4617V10.1724H21.29V8.95166Z" fill="white"/>
</svg>
