<svg width="84" height="61" viewBox="0 0 84 61" fill="none" xmlns="http://www.w3.org/2000/svg">
<g clip-path="url(#clip0_184_85)">
<rect width="84" height="60" transform="translate(0 0.0244751)" fill="white"/>
<path d="M43 49.0245H40V60.0245H43V49.0245Z" fill="#6B7280"/>
<path d="M56.5 57.0245H26.5V60.0245H56.5V57.0245Z" fill="#6B7280"/>
<path d="M76 0.0244751H8C3.58 0.0244751 0 3.60448 0 8.02448V43.0245C0 47.4445 3.58 51.0245 8 51.0245H76C80.42 51.0245 84 47.4445 84 43.0245V8.02448C84 3.60448 80.42 0.0244751 76 0.0244751ZM81 42.0245C81 45.3345 78.31 48.0245 75 48.0245H9C5.69 48.0245 3 45.3345 3 42.0245V9.02448C3 5.71448 5.69 3.02448 9 3.02448H75C78.31 3.02448 81 5.71448 81 9.02448V42.0245Z" fill="#6B7280"/>
<path d="M67 0.0244751H17V51.0245H67V0.0244751Z" fill="#6B7280"/>
</g>
<defs>
<clipPath id="clip0_184_85">
<rect width="84" height="60" fill="white" transform="translate(0 0.0244751)"/>
</clipPath>
</defs>
</svg>
