<svg width="65" height="57" viewBox="0 0 65 57" fill="none" xmlns="http://www.w3.org/2000/svg">
<g clip-path="url(#clip0_204_45)">
<rect width="65" height="56" transform="translate(0 0.0244751)" fill="white"/>
<rect x="0.75" y="0.774475" width="63.5" height="54.5" rx="2.25" fill="white" stroke="#6B7280" stroke-width="1.5"/>
<path fill-rule="evenodd" clip-rule="evenodd" d="M25 0.0244751H7V56.0245H25V0.0244751ZM8 4.02448C8 3.74833 8.22386 3.52448 8.5 3.52448H20.5C20.7761 3.52448 21 3.74833 21 4.02448C21 4.30062 20.7761 4.52448 20.5 4.52448H8.5C8.22386 4.52448 8 4.30062 8 4.02448ZM10.5 11.0245C11.3284 11.0245 12 10.3529 12 9.52448C12 8.69605 11.3284 8.02448 10.5 8.02448C9.67157 8.02448 9 8.69605 9 9.52448C9 10.3529 9.67157 11.0245 10.5 11.0245ZM13.5 9.02448C13.2239 9.02448 13 9.24833 13 9.52448C13 9.80062 13.2239 10.0245 13.5 10.0245H22.5C22.7761 10.0245 23 9.80062 23 9.52448C23 9.24833 22.7761 9.02448 22.5 9.02448H13.5ZM12 14.5245C12 15.3529 11.3284 16.0245 10.5 16.0245C9.67157 16.0245 9 15.3529 9 14.5245C9 13.696 9.67157 13.0245 10.5 13.0245C11.3284 13.0245 12 13.696 12 14.5245ZM13 14.5245C13 14.2483 13.2239 14.0245 13.5 14.0245H22.5C22.7761 14.0245 23 14.2483 23 14.5245C23 14.8006 22.7761 15.0245 22.5 15.0245H13.5C13.2239 15.0245 13 14.8006 13 14.5245ZM10.5 21.0245C11.3284 21.0245 12 20.3529 12 19.5245C12 18.696 11.3284 18.0245 10.5 18.0245C9.67157 18.0245 9 18.696 9 19.5245C9 20.3529 9.67157 21.0245 10.5 21.0245ZM13.5 19.0245C13.2239 19.0245 13 19.2483 13 19.5245C13 19.8006 13.2239 20.0245 13.5 20.0245H22.5C22.7761 20.0245 23 19.8006 23 19.5245C23 19.2483 22.7761 19.0245 22.5 19.0245H13.5ZM12 24.5245C12 25.3529 11.3284 26.0245 10.5 26.0245C9.67157 26.0245 9 25.3529 9 24.5245C9 23.696 9.67157 23.0245 10.5 23.0245C11.3284 23.0245 12 23.696 12 24.5245ZM13 24.5245C13 24.2483 13.2239 24.0245 13.5 24.0245H22.5C22.7761 24.0245 23 24.2483 23 24.5245C23 24.8006 22.7761 25.0245 22.5 25.0245H13.5C13.2239 25.0245 13 24.8006 13 24.5245ZM10.5 31.0245C11.3284 31.0245 12 30.3529 12 29.5245C12 28.696 11.3284 28.0245 10.5 28.0245C9.67157 28.0245 9 28.696 9 29.5245C9 30.3529 9.67157 31.0245 10.5 31.0245ZM13.5 29.0245C13.2239 29.0245 13 29.2483 13 29.5245C13 29.8006 13.2239 30.0245 13.5 30.0245H22.5C22.7761 30.0245 23 29.8006 23 29.5245C23 29.2483 22.7761 29.0245 22.5 29.0245H13.5ZM12 34.5245C12 35.3529 11.3284 36.0245 10.5 36.0245C9.67157 36.0245 9 35.3529 9 34.5245C9 33.696 9.67157 33.0245 10.5 33.0245C11.3284 33.0245 12 33.696 12 34.5245ZM13 34.5245C13 34.2483 13.2239 34.0245 13.5 34.0245H22.5C22.7761 34.0245 23 34.2483 23 34.5245C23 34.8006 22.7761 35.0245 22.5 35.0245H13.5C13.2239 35.0245 13 34.8006 13 34.5245ZM10.5 41.0245C11.3284 41.0245 12 40.3529 12 39.5245C12 38.696 11.3284 38.0245 10.5 38.0245C9.67157 38.0245 9 38.696 9 39.5245C9 40.3529 9.67157 41.0245 10.5 41.0245ZM13.5 39.0245C13.2239 39.0245 13 39.2483 13 39.5245C13 39.8006 13.2239 40.0245 13.5 40.0245H22.5C22.7761 40.0245 23 39.8006 23 39.5245C23 39.2483 22.7761 39.0245 22.5 39.0245H13.5Z" fill="#6B7280"/>
<path d="M0 3.02447C0 1.36762 1.34315 0.0244751 3 0.0244751H6V56.0245H3C1.34315 56.0245 0 54.6813 0 53.0245V3.02447Z" fill="#6B7280"/>
<path fill-rule="evenodd" clip-rule="evenodd" d="M5 4.02448C5 5.12904 4.10457 6.02448 3 6.02448C1.89543 6.02448 1 5.12904 1 4.02448C1 2.91991 1.89543 2.02448 3 2.02448C4.10457 2.02448 5 2.91991 5 4.02448ZM4.5 9.52448C4.5 10.3529 3.82843 11.0245 3 11.0245C2.17157 11.0245 1.5 10.3529 1.5 9.52448C1.5 8.69605 2.17157 8.02448 3 8.02448C3.82843 8.02448 4.5 8.69605 4.5 9.52448ZM3 16.0245C3.82843 16.0245 4.5 15.3529 4.5 14.5245C4.5 13.696 3.82843 13.0245 3 13.0245C2.17157 13.0245 1.5 13.696 1.5 14.5245C1.5 15.3529 2.17157 16.0245 3 16.0245ZM4.5 19.5245C4.5 20.3529 3.82843 21.0245 3 21.0245C2.17157 21.0245 1.5 20.3529 1.5 19.5245C1.5 18.696 2.17157 18.0245 3 18.0245C3.82843 18.0245 4.5 18.696 4.5 19.5245ZM3 53.0245C3.82843 53.0245 4.5 52.3529 4.5 51.5245C4.5 50.696 3.82843 50.0245 3 50.0245C2.17157 50.0245 1.5 50.696 1.5 51.5245C1.5 52.3529 2.17157 53.0245 3 53.0245Z" fill="white"/>
<rect x="6" y="0.0244751" width="1" height="56" fill="white"/>
</g>
<defs>
<clipPath id="clip0_204_45">
<rect width="65" height="56" fill="white" transform="translate(0 0.0244751)"/>
</clipPath>
</defs>
</svg>
