<svg width="65" height="57" viewBox="0 0 65 57" fill="none" xmlns="http://www.w3.org/2000/svg">
<g clip-path="url(#clip0_184_71)">
<rect width="65" height="56" transform="translate(0 0.0244751)" fill="white"/>
<rect x="0.75" y="0.774475" width="63.5" height="54.5" rx="2.25" fill="white" stroke="#6B7280" stroke-width="1.5"/>
<path d="M0 3.02448C0 1.36762 1.34315 0.0244751 3 0.0244751H62C63.6569 0.0244751 65 1.36762 65 3.02448V6.02448H0V3.02448Z" fill="#6B7280"/>
<circle cx="52.5" cy="3.02448" r="1.5" fill="white"/>
<circle cx="56.5" cy="3.02448" r="1.5" fill="white"/>
<circle cx="60.5" cy="3.02448" r="1.5" fill="white"/>
<path fill-rule="evenodd" clip-rule="evenodd" d="M9 5.02448C10.1046 5.02448 11 4.12904 11 3.02448C11 1.91991 10.1046 1.02448 9 1.02448C7.89543 1.02448 7 1.91991 7 3.02448C7 4.12904 7.89543 5.02448 9 5.02448ZM12.5 2.52448C12.2239 2.52448 12 2.74833 12 3.02448C12 3.30062 12.2239 3.52448 12.5 3.52448H20.5C20.7761 3.52448 21 3.30062 21 3.02448C21 2.74833 20.7761 2.52448 20.5 2.52448H12.5Z" fill="white"/>
<path fill-rule="evenodd" clip-rule="evenodd" d="M3 2.07448C3 1.93641 3.11193 1.82448 3.25 1.82448H5.25C5.38807 1.82448 5.5 1.93641 5.5 2.07448C5.5 2.21255 5.38807 2.32448 5.25 2.32448H3.25C3.11193 2.32448 3 2.21255 3 2.07448ZM3 3.07448C3 2.93641 3.11193 2.82448 3.25 2.82448H5.25C5.38807 2.82448 5.5 2.93641 5.5 3.07448C5.5 3.21255 5.38807 3.32448 5.25 3.32448H3.25C3.11193 3.32448 3 3.21255 3 3.07448ZM3.25 3.82448C3.11193 3.82448 3 3.93641 3 4.07448C3 4.21255 3.11193 4.32448 3.25 4.32448H5.25C5.38807 4.32448 5.5 4.21255 5.5 4.07448C5.5 3.93641 5.38807 3.82448 5.25 3.82448H3.25Z" fill="white"/>
</g>
<defs>
<clipPath id="clip0_184_71">
<rect width="65" height="56" fill="white" transform="translate(0 0.0244751)"/>
</clipPath>
</defs>
</svg>
