<svg width="65" height="57" viewBox="0 0 65 57" fill="none" xmlns="http://www.w3.org/2000/svg">
<g clip-path="url(#clip0_214_7)">
<rect width="65" height="56" transform="translate(0 0.0244751)" fill="white"/>
<rect x="0.5" y="0.524475" width="64" height="55" rx="2.5" fill="white" stroke="#6B7280"/>
<rect y="4.02448" width="65" height="8" fill="#6B7280"/>
<path fill-rule="evenodd" clip-rule="evenodd" d="M4 9.52448C5.10457 9.52448 6 8.62904 6 7.52448C6 6.41991 5.10457 5.52448 4 5.52448C2.89543 5.52448 2 6.41991 2 7.52448C2 8.62904 2.89543 9.52448 4 9.52448ZM7.5 7.02448C7.22386 7.02448 7 7.24833 7 7.52448C7 7.80062 7.22386 8.02448 7.5 8.02448H12.5C12.7761 8.02448 13 7.80062 13 7.52448C13 7.24833 12.7761 7.02448 12.5 7.02448H7.5Z" fill="white"/>
<circle cx="40.5" cy="7.5" r="1.5" fill="white"/>
<circle cx="44.5" cy="7.5" r="1.5" fill="white"/>
<circle cx="48.5" cy="7.5" r="1.5" fill="white"/>
<path fill-rule="evenodd" clip-rule="evenodd" d="M54 9.52448C55.1046 9.52448 56 8.62904 56 7.52448C56 6.41991 55.1046 5.52448 54 5.52448C52.8954 5.52448 52 6.41991 52 7.52448C52 8.62904 52.8954 9.52448 54 9.52448ZM57.5 7.02448C57.2239 7.02448 57 7.24833 57 7.52448C57 7.80062 57.2239 8.02448 57.5 8.02448H62.5C62.7761 8.02448 63 7.80062 63 7.52448C63 7.24833 62.7761 7.02448 62.5 7.02448H57.5Z" fill="white"/>
<rect y="11.0245" width="65" height="1" fill="white"/>
<rect y="3" width="65" height="1" fill="white"/>
<rect y="12.0245" width="65" height="5" fill="#959CA9"/>
<rect x="2" y="13.5245" width="6" height="2" rx="1" fill="white"/>
<rect x="10" y="13.5245" width="6" height="2" rx="1" fill="white"/>
<rect x="18" y="13.5245" width="6" height="2" rx="1" fill="white"/>
<rect x="26" y="13.5245" width="6" height="2" rx="1" fill="white"/>
<rect x="34" y="13.5245" width="6" height="2" rx="1" fill="white"/>
<path d="M0 3C0 1.34315 1.34315 0 3 0H62C63.6569 0 65 1.34315 65 3V3H0V3Z" fill="#959CA9"/>
<rect x="21" y="1.02448" width="20" height="1" rx="0.5" fill="white"/>
<path fill-rule="evenodd" clip-rule="evenodd" d="M42.9884 1.79461C42.9396 1.84343 42.9396 1.92257 42.9884 1.97139C43.0372 2.0202 43.1164 2.0202 43.1652 1.97139L43.4361 1.70046L43.7115 1.97587C43.7603 2.02468 43.8395 2.02468 43.8883 1.97587C43.9371 1.92705 43.9371 1.8479 43.8883 1.79909L43.6129 1.52369L43.8714 1.26516C43.9202 1.21635 43.9202 1.1372 43.8714 1.08838C43.8226 1.03957 43.7434 1.03957 43.6946 1.08838L43.4361 1.34691L43.182 1.09286C43.1332 1.04405 43.0541 1.04405 43.0053 1.09286C42.9565 1.14168 42.9565 1.22082 43.0053 1.26964L43.2593 1.52369L42.9884 1.79461Z" fill="white"/>
</g>
<defs>
<clipPath id="clip0_214_7">
<rect width="65" height="56" fill="white" transform="translate(0 0.0244751)"/>
</clipPath>
</defs>
</svg>
