<svg width="65" height="57" viewBox="0 0 65 57" fill="none" xmlns="http://www.w3.org/2000/svg">
<g clip-path="url(#clip0_205_236)">
<rect width="65" height="56" transform="translate(0 0.0244751)" fill="white"/>
<rect x="0.5" y="0.524475" width="64" height="55" rx="2.5" fill="white" stroke="#6B7280"/>
<path d="M18 0.0244751H62C63.6569 0.0244751 65 1.36762 65 3.02448V6.02448H18V0.0244751Z" fill="#6B7280"/>
<path fill-rule="evenodd" clip-rule="evenodd" d="M27 5.02448C28.1046 5.02448 29 4.12904 29 3.02448C29 1.91991 28.1046 1.02448 27 1.02448C25.8954 1.02448 25 1.91991 25 3.02448C25 4.12904 25.8954 5.02448 27 5.02448ZM30.5 2.52448C30.2239 2.52448 30 2.74833 30 3.02448C30 3.30062 30.2239 3.52448 30.5 3.52448H35.5C35.7761 3.52448 36 3.30062 36 3.02448C36 2.74833 35.7761 2.52448 35.5 2.52448H30.5Z" fill="white"/>
<path fill-rule="evenodd" clip-rule="evenodd" d="M21 1.97447C21 1.8364 21.1119 1.72447 21.25 1.72447H23.25C23.3881 1.72447 23.5 1.8364 23.5 1.97447C23.5 2.11254 23.3881 2.22447 23.25 2.22447H21.25C21.1119 2.22447 21 2.11254 21 1.97447ZM21 2.97447C21 2.8364 21.1119 2.72447 21.25 2.72447H23.25C23.3881 2.72447 23.5 2.8364 23.5 2.97447C23.5 3.11254 23.3881 3.22447 23.25 3.22447H21.25C21.1119 3.22447 21 3.11254 21 2.97447ZM21.25 3.72447C21.1119 3.72447 21 3.8364 21 3.97447C21 4.11254 21.1119 4.22447 21.25 4.22447H23.25C23.3881 4.22447 23.5 4.11254 23.5 3.97447C23.5 3.8364 23.3881 3.72447 23.25 3.72447H21.25Z" fill="white"/>
<circle cx="52.5" cy="3.02448" r="1.5" fill="white"/>
<circle cx="56.5" cy="3.02448" r="1.5" fill="white"/>
<circle cx="60.5" cy="3.02448" r="1.5" fill="white"/>
<path fill-rule="evenodd" clip-rule="evenodd" d="M3 0.0244751C1.34315 0.0244751 0 1.36762 0 3.02447V53.0245C0 54.6813 1.34315 56.0245 3 56.0245H18V0.0244751H3ZM4 5.02448C5.10457 5.02448 6 4.12904 6 3.02448C6 1.91991 5.10457 1.02448 4 1.02448C2.89543 1.02448 2 1.91991 2 3.02448C2 4.12904 2.89543 5.02448 4 5.02448ZM7.5 2.52448C7.22386 2.52448 7 2.74833 7 3.02448C7 3.30062 7.22386 3.52448 7.5 3.52448H15.5C15.7761 3.52448 16 3.30062 16 3.02448C16 2.74833 15.7761 2.52448 15.5 2.52448H7.5ZM3.5 10.0245C4.32843 10.0245 5 9.3529 5 8.52448C5 7.69605 4.32843 7.02448 3.5 7.02448C2.67157 7.02448 2 7.69605 2 8.52448C2 9.3529 2.67157 10.0245 3.5 10.0245ZM6.5 8.02448C6.22386 8.02448 6 8.24833 6 8.52448C6 8.80062 6.22386 9.02448 6.5 9.02448H15.5C15.7761 9.02448 16 8.80062 16 8.52448C16 8.24833 15.7761 8.02448 15.5 8.02448H6.5ZM5 13.5245C5 14.3529 4.32843 15.0245 3.5 15.0245C2.67157 15.0245 2 14.3529 2 13.5245C2 12.696 2.67157 12.0245 3.5 12.0245C4.32843 12.0245 5 12.696 5 13.5245ZM6 13.5245C6 13.2483 6.22386 13.0245 6.5 13.0245H15.5C15.7761 13.0245 16 13.2483 16 13.5245C16 13.8006 15.7761 14.0245 15.5 14.0245H6.5C6.22386 14.0245 6 13.8006 6 13.5245ZM3.5 20.0245C4.32843 20.0245 5 19.3529 5 18.5245C5 17.696 4.32843 17.0245 3.5 17.0245C2.67157 17.0245 2 17.696 2 18.5245C2 19.3529 2.67157 20.0245 3.5 20.0245ZM6.5 18.0245C6.22386 18.0245 6 18.2483 6 18.5245C6 18.8006 6.22386 19.0245 6.5 19.0245H15.5C15.7761 19.0245 16 18.8006 16 18.5245C16 18.2483 15.7761 18.0245 15.5 18.0245H6.5ZM5 23.5245C5 24.3529 4.32843 25.0245 3.5 25.0245C2.67157 25.0245 2 24.3529 2 23.5245C2 22.696 2.67157 22.0245 3.5 22.0245C4.32843 22.0245 5 22.696 5 23.5245ZM6 23.5245C6 23.2483 6.22386 23.0245 6.5 23.0245H15.5C15.7761 23.0245 16 23.2483 16 23.5245C16 23.8006 15.7761 24.0245 15.5 24.0245H6.5C6.22386 24.0245 6 23.8006 6 23.5245ZM3.5 30.0245C4.32843 30.0245 5 29.3529 5 28.5245C5 27.696 4.32843 27.0245 3.5 27.0245C2.67157 27.0245 2 27.696 2 28.5245C2 29.3529 2.67157 30.0245 3.5 30.0245ZM6.5 28.0245C6.22386 28.0245 6 28.2483 6 28.5245C6 28.8006 6.22386 29.0245 6.5 29.0245H15.5C15.7761 29.0245 16 28.8006 16 28.5245C16 28.2483 15.7761 28.0245 15.5 28.0245H6.5ZM5 33.5245C5 34.3529 4.32843 35.0245 3.5 35.0245C2.67157 35.0245 2 34.3529 2 33.5245C2 32.696 2.67157 32.0245 3.5 32.0245C4.32843 32.0245 5 32.696 5 33.5245ZM6 33.5245C6 33.2483 6.22386 33.0245 6.5 33.0245H15.5C15.7761 33.0245 16 33.2483 16 33.5245C16 33.8006 15.7761 34.0245 15.5 34.0245H6.5C6.22386 34.0245 6 33.8006 6 33.5245ZM3.5 40.0245C4.32843 40.0245 5 39.3529 5 38.5245C5 37.696 4.32843 37.0245 3.5 37.0245C2.67157 37.0245 2 37.696 2 38.5245C2 39.3529 2.67157 40.0245 3.5 40.0245ZM6.5 38.0245C6.22386 38.0245 6 38.2483 6 38.5245C6 38.8006 6.22386 39.0245 6.5 39.0245H15.5C15.7761 39.0245 16 38.8006 16 38.5245C16 38.2483 15.7761 38.0245 15.5 38.0245H6.5Z" fill="#6B7280"/>
<rect x="18" y="0.0244751" width="1" height="6" fill="white"/>
</g>
<defs>
<clipPath id="clip0_205_236">
<rect width="65" height="56" fill="white" transform="translate(0 0.0244751)"/>
</clipPath>
</defs>
</svg>
