<svg width="65" height="57" viewBox="0 0 65 57" fill="none" xmlns="http://www.w3.org/2000/svg">
<g clip-path="url(#clip0_205_325)">
<rect width="65" height="56" transform="translate(0 0.0244751)" fill="white"/>
<rect x="0.5" y="0.524475" width="64" height="55" rx="2.5" fill="white" stroke="#6B7280"/>
<path d="M0 3.02447C0 1.36762 1.34315 0.0244751 3 0.0244751H6V56.0245H3C1.34315 56.0245 0 54.6813 0 53.0245V3.02447Z" fill="#6B7280"/>
<path fill-rule="evenodd" clip-rule="evenodd" d="M3 6.02448C4.10457 6.02448 5 5.12904 5 4.02448C5 2.91991 4.10457 2.02448 3 2.02448C1.89543 2.02448 1 2.91991 1 4.02448C1 5.12904 1.89543 6.02448 3 6.02448ZM3 11.0245C3.82843 11.0245 4.5 10.3529 4.5 9.52448C4.5 8.69605 3.82843 8.02448 3 8.02448C2.17157 8.02448 1.5 8.69605 1.5 9.52448C1.5 10.3529 2.17157 11.0245 3 11.0245ZM4.5 14.5245C4.5 15.3529 3.82843 16.0245 3 16.0245C2.17157 16.0245 1.5 15.3529 1.5 14.5245C1.5 13.696 2.17157 13.0245 3 13.0245C3.82843 13.0245 4.5 13.696 4.5 14.5245ZM3 21.0245C3.82843 21.0245 4.5 20.3529 4.5 19.5245C4.5 18.696 3.82843 18.0245 3 18.0245C2.17157 18.0245 1.5 18.696 1.5 19.5245C1.5 20.3529 2.17157 21.0245 3 21.0245ZM4.5 24.5245C4.5 25.3529 3.82843 26.0245 3 26.0245C2.17157 26.0245 1.5 25.3529 1.5 24.5245C1.5 23.696 2.17157 23.0245 3 23.0245C3.82843 23.0245 4.5 23.696 4.5 24.5245ZM3 31.0245C3.82843 31.0245 4.5 30.3529 4.5 29.5245C4.5 28.696 3.82843 28.0245 3 28.0245C2.17157 28.0245 1.5 28.696 1.5 29.5245C1.5 30.3529 2.17157 31.0245 3 31.0245ZM4.5 34.5245C4.5 35.3529 3.82843 36.0245 3 36.0245C2.17157 36.0245 1.5 35.3529 1.5 34.5245C1.5 33.696 2.17157 33.0245 3 33.0245C3.82843 33.0245 4.5 33.696 4.5 34.5245ZM3 41.0245C3.82843 41.0245 4.5 40.3529 4.5 39.5245C4.5 38.696 3.82843 38.0245 3 38.0245C2.17157 38.0245 1.5 38.696 1.5 39.5245C1.5 40.3529 2.17157 41.0245 3 41.0245ZM4.5 44.5245C4.5 45.3529 3.82843 46.0245 3 46.0245C2.17157 46.0245 1.5 45.3529 1.5 44.5245C1.5 43.696 2.17157 43.0245 3 43.0245C3.82843 43.0245 4.5 43.696 4.5 44.5245ZM3 51.0245C3.82843 51.0245 4.5 50.3529 4.5 49.5245C4.5 48.696 3.82843 48.0245 3 48.0245C2.17157 48.0245 1.5 48.696 1.5 49.5245C1.5 50.3529 2.17157 51.0245 3 51.0245Z" fill="white"/>
<rect x="6" y="0.0244751" width="1" height="6" fill="white"/>
<path d="M0 3.02448C0 1.36762 1.34315 0.0244751 3 0.0244751H62C63.6569 0.0244751 65 1.36762 65 3.02448V6.02448H0V3.02448Z" fill="#6B7280"/>
<path fill-rule="evenodd" clip-rule="evenodd" d="M4 5.02448C5.10457 5.02448 6 4.12904 6 3.02448C6 1.91991 5.10457 1.02448 4 1.02448C2.89543 1.02448 2 1.91991 2 3.02448C2 4.12904 2.89543 5.02448 4 5.02448ZM7.5 2.52448C7.22386 2.52448 7 2.74833 7 3.02448C7 3.30062 7.22386 3.52448 7.5 3.52448H12.5C12.7761 3.52448 13 3.30062 13 3.02448C13 2.74833 12.7761 2.52448 12.5 2.52448H7.5Z" fill="white"/>
<circle cx="40.5" cy="3.02448" r="1.5" fill="white"/>
<circle cx="44.5" cy="3.02448" r="1.5" fill="white"/>
<circle cx="48.5" cy="3.02448" r="1.5" fill="white"/>
<path fill-rule="evenodd" clip-rule="evenodd" d="M54 5.02448C55.1046 5.02448 56 4.12904 56 3.02448C56 1.91991 55.1046 1.02448 54 1.02448C52.8954 1.02448 52 1.91991 52 3.02448C52 4.12904 52.8954 5.02448 54 5.02448ZM57.5 2.52448C57.2239 2.52448 57 2.74833 57 3.02448C57 3.30062 57.2239 3.52448 57.5 3.52448H62.5C62.7761 3.52448 63 3.30062 63 3.02448C63 2.74833 62.7761 2.52448 62.5 2.52448H57.5Z" fill="white"/>
<rect y="6.02448" width="6" height="1" fill="white"/>
</g>
<defs>
<clipPath id="clip0_205_325">
<rect width="65" height="56" fill="white" transform="translate(0 0.0244751)"/>
</clipPath>
</defs>
</svg>
