<svg width="65" height="57" viewBox="0 0 65 57" fill="none" xmlns="http://www.w3.org/2000/svg">
<g clip-path="url(#clip0_205_279)">
<rect width="65" height="56" transform="translate(0 0.0244751)" fill="white"/>
<rect x="0.5" y="0.524475" width="64" height="55" rx="2.5" fill="white" stroke="#6B7280"/>
<path fill-rule="evenodd" clip-rule="evenodd" d="M3 0.0244751C1.34315 0.0244751 0 1.36762 0 3.02447V53.0245C0 54.6813 1.34315 56.0245 3 56.0245H18V0.0244751H3ZM5 10.5245C5 11.3529 4.32843 12.0245 3.5 12.0245C2.67157 12.0245 2 11.3529 2 10.5245C2 9.69605 2.67157 9.02448 3.5 9.02448C4.32843 9.02448 5 9.69605 5 10.5245ZM6 10.5245C6 10.2483 6.22386 10.0245 6.5 10.0245H15.5C15.7761 10.0245 16 10.2483 16 10.5245C16 10.8006 15.7761 11.0245 15.5 11.0245H6.5C6.22386 11.0245 6 10.8006 6 10.5245ZM5 15.5245C5 16.3529 4.32843 17.0245 3.5 17.0245C2.67157 17.0245 2 16.3529 2 15.5245C2 14.696 2.67157 14.0245 3.5 14.0245C4.32843 14.0245 5 14.696 5 15.5245ZM6 15.5245C6 15.2483 6.22386 15.0245 6.5 15.0245H15.5C15.7761 15.0245 16 15.2483 16 15.5245C16 15.8006 15.7761 16.0245 15.5 16.0245H6.5C6.22386 16.0245 6 15.8006 6 15.5245ZM3.5 22.0245C4.32843 22.0245 5 21.3529 5 20.5245C5 19.696 4.32843 19.0245 3.5 19.0245C2.67157 19.0245 2 19.696 2 20.5245C2 21.3529 2.67157 22.0245 3.5 22.0245ZM6.5 20.0245C6.22386 20.0245 6 20.2483 6 20.5245C6 20.8006 6.22386 21.0245 6.5 21.0245H15.5C15.7761 21.0245 16 20.8006 16 20.5245C16 20.2483 15.7761 20.0245 15.5 20.0245H6.5ZM5 25.5245C5 26.3529 4.32843 27.0245 3.5 27.0245C2.67157 27.0245 2 26.3529 2 25.5245C2 24.696 2.67157 24.0245 3.5 24.0245C4.32843 24.0245 5 24.696 5 25.5245ZM6 25.5245C6 25.2483 6.22386 25.0245 6.5 25.0245H15.5C15.7761 25.0245 16 25.2483 16 25.5245C16 25.8006 15.7761 26.0245 15.5 26.0245H6.5C6.22386 26.0245 6 25.8006 6 25.5245ZM3.5 32.0245C4.32843 32.0245 5 31.3529 5 30.5245C5 29.696 4.32843 29.0245 3.5 29.0245C2.67157 29.0245 2 29.696 2 30.5245C2 31.3529 2.67157 32.0245 3.5 32.0245ZM6.5 30.0245C6.22386 30.0245 6 30.2483 6 30.5245C6 30.8006 6.22386 31.0245 6.5 31.0245H15.5C15.7761 31.0245 16 30.8006 16 30.5245C16 30.2483 15.7761 30.0245 15.5 30.0245H6.5ZM5 35.5245C5 36.3529 4.32843 37.0245 3.5 37.0245C2.67157 37.0245 2 36.3529 2 35.5245C2 34.696 2.67157 34.0245 3.5 34.0245C4.32843 34.0245 5 34.696 5 35.5245ZM6 35.5245C6 35.2483 6.22386 35.0245 6.5 35.0245H15.5C15.7761 35.0245 16 35.2483 16 35.5245C16 35.8006 15.7761 36.0245 15.5 36.0245H6.5C6.22386 36.0245 6 35.8006 6 35.5245ZM3.5 42.0245C4.32843 42.0245 5 41.3529 5 40.5245C5 39.696 4.32843 39.0245 3.5 39.0245C2.67157 39.0245 2 39.696 2 40.5245C2 41.3529 2.67157 42.0245 3.5 42.0245ZM6.5 40.0245C6.22386 40.0245 6 40.2483 6 40.5245C6 40.8006 6.22386 41.0245 6.5 41.0245H15.5C15.7761 41.0245 16 40.8006 16 40.5245C16 40.2483 15.7761 40.0245 15.5 40.0245H6.5Z" fill="#6B7280"/>
<path d="M0 3.02448C0 1.36762 1.34315 0.0244751 3 0.0244751H62C63.6569 0.0244751 65 1.36762 65 3.02448V6.02448H0V3.02448Z" fill="#6B7280"/>
<path fill-rule="evenodd" clip-rule="evenodd" d="M5 5.02448C6.10457 5.02448 7 4.12904 7 3.02448C7 1.91991 6.10457 1.02448 5 1.02448C3.89543 1.02448 3 1.91991 3 3.02448C3 4.12904 3.89543 5.02448 5 5.02448ZM8.5 2.52448C8.22386 2.52448 8 2.74833 8 3.02448C8 3.30062 8.22386 3.52448 8.5 3.52448H13.5C13.7761 3.52448 14 3.30062 14 3.02448C14 2.74833 13.7761 2.52448 13.5 2.52448H8.5Z" fill="white"/>
<circle cx="40.5" cy="3.02448" r="1.5" fill="white"/>
<circle cx="44.5" cy="3.02448" r="1.5" fill="white"/>
<circle cx="48.5" cy="3.02448" r="1.5" fill="white"/>
<path fill-rule="evenodd" clip-rule="evenodd" d="M54 5.02448C55.1046 5.02448 56 4.12904 56 3.02448C56 1.91991 55.1046 1.02448 54 1.02448C52.8954 1.02448 52 1.91991 52 3.02448C52 4.12904 52.8954 5.02448 54 5.02448ZM57.5 2.52448C57.2239 2.52448 57 2.74833 57 3.02448C57 3.30062 57.2239 3.52448 57.5 3.52448H62.5C62.7761 3.52448 63 3.30062 63 3.02448C63 2.74833 62.7761 2.52448 62.5 2.52448H57.5Z" fill="white"/>
<rect y="6.02448" width="18" height="1" fill="white"/>
</g>
<defs>
<clipPath id="clip0_205_279">
<rect width="65" height="56" fill="white" transform="translate(0 0.0244751)"/>
</clipPath>
</defs>
</svg>
