<svg width="65" height="57" viewBox="0 0 65 57" fill="none" xmlns="http://www.w3.org/2000/svg">
<g clip-path="url(#clip0_205_146)">
<rect width="65" height="56" transform="translate(0 0.0244751)" fill="white"/>
<rect x="0.75" y="0.774475" width="63.5" height="54.5" rx="2.25" fill="white" stroke="#6B7280" stroke-width="1.5"/>
<path d="M0 3.02447C0 1.36762 1.34315 0.0244751 3 0.0244751H6V56.0245H3C1.34315 56.0245 0 54.6813 0 53.0245V3.02447Z" fill="#6B7280"/>
<path fill-rule="evenodd" clip-rule="evenodd" d="M3 6.02448C4.10457 6.02448 5 5.12904 5 4.02448C5 2.91991 4.10457 2.02448 3 2.02448C1.89543 2.02448 1 2.91991 1 4.02448C1 5.12904 1.89543 6.02448 3 6.02448ZM3 11.0245C3.82843 11.0245 4.5 10.3529 4.5 9.52448C4.5 8.69605 3.82843 8.02448 3 8.02448C2.17157 8.02448 1.5 8.69605 1.5 9.52448C1.5 10.3529 2.17157 11.0245 3 11.0245ZM4.5 14.5245C4.5 15.3529 3.82843 16.0245 3 16.0245C2.17157 16.0245 1.5 15.3529 1.5 14.5245C1.5 13.696 2.17157 13.0245 3 13.0245C3.82843 13.0245 4.5 13.696 4.5 14.5245ZM3 21.0245C3.82843 21.0245 4.5 20.3529 4.5 19.5245C4.5 18.696 3.82843 18.0245 3 18.0245C2.17157 18.0245 1.5 18.696 1.5 19.5245C1.5 20.3529 2.17157 21.0245 3 21.0245ZM4.5 24.5245C4.5 25.3529 3.82843 26.0245 3 26.0245C2.17157 26.0245 1.5 25.3529 1.5 24.5245C1.5 23.696 2.17157 23.0245 3 23.0245C3.82843 23.0245 4.5 23.696 4.5 24.5245ZM3 31.0245C3.82843 31.0245 4.5 30.3529 4.5 29.5245C4.5 28.696 3.82843 28.0245 3 28.0245C2.17157 28.0245 1.5 28.696 1.5 29.5245C1.5 30.3529 2.17157 31.0245 3 31.0245ZM4.5 34.5245C4.5 35.3529 3.82843 36.0245 3 36.0245C2.17157 36.0245 1.5 35.3529 1.5 34.5245C1.5 33.696 2.17157 33.0245 3 33.0245C3.82843 33.0245 4.5 33.696 4.5 34.5245ZM3 41.0245C3.82843 41.0245 4.5 40.3529 4.5 39.5245C4.5 38.696 3.82843 38.0245 3 38.0245C2.17157 38.0245 1.5 38.696 1.5 39.5245C1.5 40.3529 2.17157 41.0245 3 41.0245ZM4.5 44.5245C4.5 45.3529 3.82843 46.0245 3 46.0245C2.17157 46.0245 1.5 45.3529 1.5 44.5245C1.5 43.696 2.17157 43.0245 3 43.0245C3.82843 43.0245 4.5 43.696 4.5 44.5245ZM3 51.0245C3.82843 51.0245 4.5 50.3529 4.5 49.5245C4.5 48.696 3.82843 48.0245 3 48.0245C2.17157 48.0245 1.5 48.696 1.5 49.5245C1.5 50.3529 2.17157 51.0245 3 51.0245Z" fill="white"/>
<rect x="6" y="0.0244751" width="1" height="6" fill="white"/>
<path d="M7 0.0244751H62C63.6569 0.0244751 65 1.36762 65 3.02448V6.02448H7V0.0244751Z" fill="#6B7280"/>
<circle cx="52.5" cy="3.02448" r="1.5" fill="white"/>
<circle cx="56.5" cy="3.02448" r="1.5" fill="white"/>
<circle cx="60.5" cy="3.02448" r="1.5" fill="white"/>
<path fill-rule="evenodd" clip-rule="evenodd" d="M15 5.02448C16.1046 5.02448 17 4.12904 17 3.02448C17 1.91991 16.1046 1.02448 15 1.02448C13.8954 1.02448 13 1.91991 13 3.02448C13 4.12904 13.8954 5.02448 15 5.02448ZM18.5 2.52448C18.2239 2.52448 18 2.74833 18 3.02448C18 3.30062 18.2239 3.52448 18.5 3.52448H26.5C26.7761 3.52448 27 3.30062 27 3.02448C27 2.74833 26.7761 2.52448 26.5 2.52448H18.5Z" fill="white"/>
<path fill-rule="evenodd" clip-rule="evenodd" d="M9 1.97447C9 1.8364 9.11193 1.72447 9.25 1.72447H11.25C11.3881 1.72447 11.5 1.8364 11.5 1.97447C11.5 2.11254 11.3881 2.22447 11.25 2.22447H9.25C9.11193 2.22447 9 2.11254 9 1.97447ZM9 2.97447C9 2.8364 9.11193 2.72447 9.25 2.72447H11.25C11.3881 2.72447 11.5 2.8364 11.5 2.97447C11.5 3.11254 11.3881 3.22447 11.25 3.22447H9.25C9.11193 3.22447 9 3.11254 9 2.97447ZM9.25 3.72447C9.11193 3.72447 9 3.8364 9 3.97447C9 4.11254 9.11193 4.22447 9.25 4.22447H11.25C11.3881 4.22447 11.5 4.11254 11.5 3.97447C11.5 3.8364 11.3881 3.72447 11.25 3.72447H9.25Z" fill="white"/>
</g>
<defs>
<clipPath id="clip0_205_146">
<rect width="65" height="56" fill="white" transform="translate(0 0.0244751)"/>
</clipPath>
</defs>
</svg>
