<svg width="24" height="31" viewBox="0 0 24 31" fill="none" xmlns="http://www.w3.org/2000/svg">
<path d="M23.1445 12.3047C22.7539 14.6484 21.4844 15.8203 19.7266 16.2109C22.168 17.4805 23.3398 19.3359 22.168 22.6562C20.7031 26.7578 17.3828 27.1484 12.793 26.2695L11.7188 30.6641L9.08203 29.9805L10.1562 25.6836C9.47266 25.4883 8.69141 25.293 8.00781 25.0977L6.93359 29.4922L4.29688 28.8086L5.37109 24.4141C4.78516 24.2188 4.10156 24.0234 3.51562 23.9258L0 23.0469L1.36719 20.0195C1.36719 20.0195 3.32031 20.5078 3.22266 20.5078C4.00391 20.7031 4.39453 20.2148 4.49219 19.8242L6.25 12.8906L7.42188 7.91016C7.51953 7.32422 7.32422 6.64062 6.25 6.34766L4.29688 5.85938L4.98047 3.02734L8.69141 3.90625V4.00391C9.17969 4.10156 9.76562 4.19922 10.3516 4.39453L11.4258 0L14.1602 0.683594L13.0859 4.98047C13.7695 5.07812 14.4531 5.27344 15.1367 5.46875L16.2109 1.17188L18.8477 1.85547L17.7734 6.25C21.1914 7.32422 23.6328 9.08203 23.1445 12.3047ZM17.0898 20.8008C17.8711 17.3828 12.1094 16.5039 10.3516 16.0156L8.88672 21.875C10.6445 22.3633 16.2109 24.1211 17.0898 20.8008ZM17.8711 12.3047C18.6523 9.17969 13.8672 8.39844 12.3047 8.10547L11.0352 13.3789C12.5 13.7695 17.0898 15.2344 17.8711 12.3047Z" fill="white"/>
</svg>
