<?xml version="1.0" encoding="UTF-8"?>
<svg width="45px" height="45px" viewBox="0 0 45 45" version="1.1" xmlns="http://www.w3.org/2000/svg">
    <!-- Generator: sketchtool 52.5 (67469) - http://www.bohemiancoding.com/sketch -->
    <title>FB331565-4749-4322-A7B2-81B851648834</title>
    <desc>Created with sketchtool.</desc>
    <g id="💻-Authenticated-user" stroke="none" stroke-width="1" fill="none" fill-rule="evenodd">
        <g id="Auth_Audio-conf-gallery" transform="translate(-594.000000, -944.000000)" fill="#FFFFFF"
           fill-rule="nonzero">
            <g id="icons8-document" transform="translate(594.000000, 944.000000)">
                <path d="M26.5,5 L12.5,5 C10.575,5 9,6.575 9,8.5 L9,36.5 C9,38.425 10.575,40 12.5,40 L33.5,40 C35.425,40 37,38.425 37,36.5 L37,15.5 L26.5,5 Z M30,33 L16,33 L16,29.5 L30,29.5 L30,33 Z M30,26 L16,26 L16,22.5 L30,22.5 L30,26 Z M24.75,17.25 L24.75,7.625 L34.375,17.25 L24.75,17.25 Z"
                      id="Shape"></path>
            </g>
        </g>
    </g>
</svg>