<svg width="34" height="36" viewBox="0 0 34 36" fill="none" xmlns="http://www.w3.org/2000/svg">
<path d="M22.0128 0.968534C19.6474 2.35814 18.2468 4.86752 18.2468 7.5137C18.2468 8.90331 18.8048 10.3037 19.5034 11.5531C20.0614 12.6691 20.335 14.6169 18.3874 15.5925C16.9976 16.4241 15.1794 15.8697 14.3478 14.4765C13.516 13.3605 12.5404 12.2445 11.2839 11.4127C8.91847 10.0231 6.12811 10.0231 3.76254 11.4127C1.39698 12.8023 0 15.318 0 17.9649C0 20.6118 1.38978 23.1203 3.762 24.5136C6.12739 25.9032 8.91775 25.9032 11.2833 24.5136C12.5399 23.8152 13.5153 22.7064 14.2069 21.4499C14.7649 20.4743 16.2987 19.2179 18.2464 20.3339C19.6362 21.1655 20.0538 22.9836 19.3624 24.3732C18.664 25.6296 18.2464 27.023 18.2464 28.4126C18.2464 31.0624 19.6362 33.568 22.0124 34.9578C24.3778 36.3474 27.1682 36.3474 29.5337 34.9578C31.8993 33.5682 33.3 31.0588 33.3 28.4126C33.3 25.7664 31.9067 23.2572 29.5341 21.8639C28.2775 21.1655 26.8841 20.8883 25.3539 20.8883C24.0973 20.8883 22.4304 20.0567 22.4304 17.9649C22.4304 16.2909 23.6869 15.0415 25.3539 15.0415C26.7437 15.0415 28.2775 14.7643 29.5341 14.0659C31.8995 12.6763 33.3 10.1669 33.3 7.5209C33.3 4.8749 31.9067 2.36552 29.5341 0.975734C28.4181 0.277333 27.0281 0.000133118 25.7721 0.000133118C24.5227 -0.00706689 23.1221 0.277333 22.0133 0.968534" fill="white"/>
</svg>
