<svg width="58" height="58" viewBox="0 0 58 58" fill="none" xmlns="http://www.w3.org/2000/svg">
<path fill-rule="evenodd" clip-rule="evenodd" d="M29.0095 0.99992H29.0217C44.4736 0.99992 57 13.5262 57 28.9781V29.0216C57 44.4736 44.4736 57 29.0217 57H29.0095C13.5575 57 1.03112 44.4736 1.03112 29.0216V28.9781C1.03112 13.5262 13.5575 0.99992 29.0095 0.99992Z" fill="white"/>
<path fill-rule="evenodd" clip-rule="evenodd" d="M41.2482 16.0949C41.5189 15.9468 41.8462 15.9718 42.0953 16.156C42.3444 16.3413 42.4723 16.6557 42.4278 16.9723L39.4488 37.8859C39.413 38.1334 39.2733 38.354 39.0674 38.485C38.9386 38.5665 38.7923 38.6081 38.6449 38.6081C38.5561 38.6081 38.4673 38.5923 38.3828 38.5629L27.0263 34.5124L38.1932 20.4733L23.7622 33.3493L16.986 30.9323C16.6794 30.8226 16.4638 30.5333 16.439 30.1942C16.4151 29.8562 16.5853 29.5352 16.8733 29.378L41.2482 16.0949ZM25.9158 41.1518V35.9087L30.3217 37.4799L27.3828 41.6538C27.2267 41.8753 26.9819 41.9998 26.7284 41.9998C26.6439 41.9998 26.5583 41.9862 26.4749 41.9579C26.1412 41.8426 25.9158 41.5181 25.9158 41.1518Z" fill="#3A3849"/>
</svg>
