<svg width="58" height="58" viewBox="0 0 58 58" fill="none" xmlns="http://www.w3.org/2000/svg">
<path fill-rule="evenodd" clip-rule="evenodd" d="M28.9999 0.99992C44.4467 0.99992 56.9687 13.5219 56.9687 28.9686V29.0311C56.9687 44.4778 44.4467 57 28.9999 57C13.5533 57 1.03112 44.4778 1.03112 29.0311V28.9686C1.03112 13.5219 13.5533 0.99992 28.9999 0.99992Z" fill="white"/>
<path d="M43 18.1534C42.6027 19.1986 42.3973 20.2846 42.0548 21.3434C41.9315 21.71 41.863 22.09 41.6849 22.4294C41.411 22.986 41.0274 23.0538 40.5342 22.7009C39.3699 21.9 39.3699 21.9 38.3288 22.8638C35.137 25.8095 31.9452 28.7416 28.7671 31.6873C28.4384 31.986 28.2603 32.0403 27.9041 31.6873C26.5616 30.3163 25.1644 28.986 23.8356 27.6149C23.3973 27.167 23.0959 27.167 22.6575 27.5742C21.1096 28.986 19.5205 30.3706 17.9589 31.7824C17.5616 32.1353 17.274 32.271 16.9041 31.7281C16.6712 31.3887 16.411 31.0357 16 30.8457C16 30.7507 16 30.6692 16 30.5742C18.1918 28.6466 20.3699 26.7326 22.5616 24.805C23.2466 24.1941 23.4247 24.1941 24.0685 24.8457C25.3151 26.0946 26.5753 27.3163 27.8082 28.5787C28.2466 29.0267 28.5616 28.986 29 28.5787C31.7808 25.986 34.5616 23.4204 37.3562 20.8547C37.8356 20.4204 37.9589 20.1353 37.411 19.633C36.6575 18.9543 36.7945 18.4385 37.7808 18.1534C39.1507 17.7462 40.5342 17.4068 41.9041 17.0267C42.5205 16.8774 42.863 17.1489 43 17.7326C43 17.8819 43 18.0176 43 18.1534Z" fill="#11C15B"/>
<path d="M40.2466 33.0035C40.2466 35.3927 40.2329 37.7682 40.2603 40.1574C40.2603 40.7547 40.0959 41.0126 39.4521 40.999C37.8904 40.9583 36.3151 40.9719 34.7535 40.999C34.2055 41.0126 33.9863 40.8361 33.9863 40.266C34 37.1167 34 33.9673 33.9863 30.818C33.9863 30.3836 34.137 30.0578 34.4658 29.7592C36.137 28.2252 37.7808 26.6777 39.4384 25.1438C39.9178 24.6958 40.0548 24.7366 40.2055 25.3881C40.2603 25.6053 40.2466 25.8361 40.2466 26.0533C40.2466 28.3746 40.2466 30.6823 40.2466 33.0035Z" fill="#11C15B"/>
<path d="M23.2331 41.0001C22.9043 41.0001 22.5892 41.0001 22.2604 41.0001C21.0824 41.0001 19.9043 41.0001 18.7262 41.0001C18.4111 41.0001 18.0824 41.0001 17.7673 41.0001C17.4248 40.8643 17.4111 40.5792 17.4111 40.2806C17.4111 38.9367 17.4111 37.5792 17.4111 36.2353C17.4111 35.9231 17.4111 35.5973 17.6851 35.3666C19.5481 33.7105 21.4248 32.0408 23.3015 30.3711C23.6166 30.7105 23.644 31.0906 23.644 31.4706C23.644 34.4299 23.644 37.4028 23.6577 40.362C23.6577 40.6607 23.6166 40.9322 23.2331 41.0001Z" fill="#11C15B"/>
<path d="M31.7534 32.2441C31.9314 32.5021 31.904 32.7328 31.904 32.9636C31.904 35.3256 31.904 37.6876 31.904 40.0496C31.904 40.9048 31.8219 40.9726 30.9725 40.9726C29.4246 40.9726 27.8766 40.9726 26.3424 40.9726C25.9588 40.9726 25.6575 40.9455 25.6575 40.4568C25.6712 37.9862 25.6712 35.5021 25.6849 33.0315C25.6849 32.9907 25.726 32.9636 25.7534 32.9093C26.3835 33.493 27.041 34.0631 27.6438 34.6876C28.3424 35.407 28.315 35.4206 29.0136 34.7555C29.904 33.9274 30.8082 33.1129 31.7534 32.2441Z" fill="#11C15B"/>
</svg>
