<svg width="58" height="58" viewBox="0 0 58 58" fill="none" xmlns="http://www.w3.org/2000/svg">
<path fill-rule="evenodd" clip-rule="evenodd" d="M29 0.99992C44.4467 0.99992 56.9687 13.5219 56.9687 28.9686V29.0311C56.9687 44.4778 44.4467 57 29 57C13.5532 57 1.03124 44.4778 1.03124 29.0311V28.9686C1.03124 13.5219 13.5532 0.99992 29 0.99992Z" fill="white"/>
<path fill-rule="evenodd" clip-rule="evenodd" d="M38.5709 17.9996H17.7143V19.8569H38.5709V17.9996ZM34.2849 30.6707C34.2849 32.9232 36.1648 34.7552 38.4755 34.7552H40.2855V39.9998H15.9999V21.3418H40.2855V26.5862H38.4755C36.1648 26.5862 34.2849 28.4186 34.2849 30.6707ZM38.4755 28.0712C37.0048 28.0712 35.8083 29.2373 35.8083 30.6707C35.8083 32.1042 37.0048 33.2704 38.4755 33.2704H41.9999V28.0712H38.4755ZM40.1901 31.4131H38.4755V29.9282H40.1901V31.4131Z" fill="#9E49E6"/>
</svg>
