<svg width="58" height="58" viewBox="0 0 58 58" fill="none" xmlns="http://www.w3.org/2000/svg">
<path fill-rule="evenodd" clip-rule="evenodd" d="M28.9783 0.99992H28.9904C44.4424 0.99992 56.9686 13.5262 56.9686 28.9781V29.0216C56.9686 44.4736 44.4424 57 28.9904 57H28.9783C13.5262 57 0.999978 44.4736 0.999978 29.0216V28.9781C0.999978 13.5262 13.5262 0.99992 28.9783 0.99992Z" fill="white"/>
<path fill-rule="evenodd" clip-rule="evenodd" d="M22.2513 32.6432H39.0698C39.5811 32.6432 39.9999 33.0566 39.9999 33.5735C39.9999 34.0904 39.5811 34.5039 39.0698 34.5039H21.4301C20.9623 34.4984 20.5706 34.1502 20.5108 33.6878L18.7539 19.6459H14.9299C14.4132 19.6459 13.9999 19.2324 13.9999 18.7158C13.9999 18.1987 14.4188 17.7852 14.9299 17.7852H19.5752C20.043 17.7906 20.4347 18.1388 20.4945 18.6012L22.2513 32.6432ZM26.9999 38.2142C26.9999 36.6757 25.7531 35.4287 24.215 35.4287C22.6769 35.4287 21.4301 36.6757 21.4301 38.2142C21.4301 39.7525 22.6769 40.9999 24.215 40.9999C25.7531 40.9999 26.9999 39.7525 26.9999 38.2142ZM35.3547 35.4287C36.8928 35.4287 38.1396 36.6757 38.1396 38.2142C38.1396 39.7525 36.8928 40.9999 35.3547 40.9999C33.8166 40.9999 32.5698 39.7525 32.5698 38.2142C32.5698 36.6757 33.8166 35.4287 35.3547 35.4287ZM23.2848 17.7906H39.0698C39.5811 17.7906 39.9945 18.204 39.9945 18.7158V29.8577C39.9945 30.3745 39.5757 30.7879 39.0644 30.7879H25.1397C24.6882 30.7879 24.302 30.4561 24.2259 30.0101L22.3656 18.8733C22.3601 18.8245 22.3546 18.7699 22.3546 18.7211C22.3546 18.204 22.7735 17.7906 23.2848 17.7906Z" fill="#0A8FDC"/>
</svg>
