<svg width="60" height="61" viewBox="0 0 60 61" fill="none" xmlns="http://www.w3.org/2000/svg">
<circle opacity="0.1" cx="30" cy="30.0034" r="30" fill="#49BD65"/>
<path d="M29 17.0034V19.0972C28.0625 19.2638 27.2083 19.6284 26.4375 20.1909C25.6875 20.7534 25.0938 21.4618 24.6562 22.3159C24.2188 23.1493 24 24.0451 24 25.0034C24 25.8576 24.1875 26.6388 24.5625 27.3472C24.8958 27.993 25.3542 28.5555 25.9375 29.0347C26.3958 29.3888 26.9479 29.7222 27.5938 30.0347C27.9688 30.2222 28.5521 30.4722 29.3438 30.7847L29.625 30.9097C31.1667 31.5347 32.2292 32.0763 32.8125 32.5347C33.2292 32.868 33.5208 33.2013 33.6875 33.5347C33.8958 33.9305 34 34.4201 34 35.0034C34 35.7118 33.8125 36.3784 33.4375 37.0034C33.0833 37.6076 32.6042 38.0972 32 38.4722C31.3958 38.8263 30.7292 39.0034 30 39.0034C29.2708 39.0034 28.5938 38.8263 27.9688 38.4722C27.3646 38.118 26.8854 37.6388 26.5312 37.0347C26.1771 36.4097 26 35.7326 26 35.0034V34.0034H24V35.0034C24 35.9826 24.2188 36.8993 24.6562 37.7534C25.0938 38.5868 25.6875 39.2847 26.4375 39.8472C27.2083 40.3888 28.0625 40.743 29 40.9097V43.0034H31V40.9097C31.9375 40.743 32.7812 40.3784 33.5312 39.8159C34.3021 39.2534 34.9062 38.5555 35.3438 37.7222C35.7812 36.868 36 35.9618 36 35.0034C36 34.1493 35.8125 33.368 35.4375 32.6597C35.1042 32.0138 34.6458 31.4513 34.0625 30.9722C33.5833 30.5972 33 30.243 32.3125 29.9097C31.9167 29.7013 31.3021 29.4305 30.4688 29.0972L30.375 29.0659C29.5833 28.7534 28.9896 28.5034 28.5938 28.3159C28.0104 28.0243 27.5417 27.743 27.1875 27.4722C26.7708 27.1388 26.4792 26.8055 26.3125 26.4722C26.1042 26.0763 26 25.5868 26 25.0034C26 24.2743 26.1771 23.6076 26.5312 23.0034C26.8854 22.3993 27.3646 21.9201 27.9688 21.5659C28.5938 21.1909 29.2708 21.0034 30 21.0034C30.7292 21.0034 31.3958 21.1805 32 21.5347C32.625 21.8888 33.1146 22.3784 33.4688 23.0034C33.8229 23.6076 34 24.2743 34 25.0034V26.0034H36V25.0034C36 24.0243 35.7812 23.118 35.3438 22.2847C34.9062 21.4305 34.3021 20.7326 33.5312 20.1909C32.7812 19.6284 31.9375 19.2638 31 19.0972V17.0034H29Z" fill="#49BD65"/>
</svg>
