<svg width="94" height="94" viewBox="0 0 94 94" fill="none" xmlns="http://www.w3.org/2000/svg">
<g filter="url(#filter0_d_240_924)">
<path fill-rule="evenodd" clip-rule="evenodd" d="M47 9.99999C61.9116 9.99999 73.9999 22.0882 73.9999 36.9999C73.9999 51.9116 61.9116 64 47 64C32.0882 64 19.9999 51.9116 19.9999 36.9999C19.9999 22.0882 32.0882 9.99999 47 9.99999Z" fill="white"/>
</g>
<path fill-rule="evenodd" clip-rule="evenodd" d="M56.9999 25.7497C56.9999 23.6822 55.4015 21.9997 53.4374 21.9997H41.5623C39.5982 21.9997 37.9998 23.6822 37.9998 25.7497V48.2497C37.9998 50.3172 39.5982 51.9998 41.5623 51.9998H53.4374C55.4015 51.9998 56.9999 50.3172 56.9999 48.2497V25.7497ZM54.6249 48.2497C54.6249 48.9395 54.0928 49.4998 53.4374 49.4998H41.5623C40.9068 49.4998 40.3748 48.9395 40.3748 48.2497V25.7497C40.3748 25.0597 40.9068 24.4996 41.5623 24.4996H42.156C42.8116 24.4996 43.3436 25.0597 43.3436 25.7497C43.3436 26.4397 43.8755 26.9998 44.531 26.9998H50.4687C51.1241 26.9998 51.6561 26.4397 51.6561 25.7497C51.6561 25.0597 52.188 24.4996 52.8437 24.4996H53.4374C54.0928 24.4996 54.6249 25.0597 54.6249 25.7497V48.2497ZM53.4374 36.9623C53.4374 40.4121 50.7773 43.2122 47.4998 43.2122C46.1817 43.2122 44.9586 42.7622 43.9848 41.9873L48.1293 37.6247C48.2954 37.4498 48.3905 37.2123 48.3905 36.9623V30.7873C51.2524 31.2373 53.4374 33.8373 53.4374 36.9623ZM46.6091 36.5747V30.7873C43.7473 31.2373 41.5623 33.8373 41.5623 36.9623C41.5623 38.3496 41.9897 39.6373 42.7261 40.6622L46.6091 36.5747Z" fill="#A0A5B9"/>
<defs>
<filter id="filter0_d_240_924" x="-0.00012207" y="0" width="94" height="93.9999" filterUnits="userSpaceOnUse" color-interpolation-filters="sRGB">
<feFlood flood-opacity="0" result="BackgroundImageFix"/>
<feColorMatrix in="SourceAlpha" type="matrix" values="0 0 0 0 0 0 0 0 0 0 0 0 0 0 0 0 0 0 127 0" result="hardAlpha"/>
<feOffset dy="10"/>
<feGaussianBlur stdDeviation="10"/>
<feColorMatrix type="matrix" values="0 0 0 0 0.627451 0 0 0 0 0.647059 0 0 0 0 0.72549 0 0 0 0.2 0"/>
<feBlend mode="normal" in2="BackgroundImageFix" result="effect1_dropShadow_240_924"/>
<feBlend mode="normal" in="SourceGraphic" in2="effect1_dropShadow_240_924" result="shape"/>
</filter>
</defs>
</svg>
