<svg width="60" height="61" viewBox="0 0 60 61" fill="none" xmlns="http://www.w3.org/2000/svg">
<circle opacity="0.1" cx="30" cy="30.0034" r="30" fill="#F44D50"/>
<path d="M42 28.3286C42 27.7869 41.5417 27.3286 41 27.3286H38.1667L33.7083 21.2453C33.2917 20.6203 32.4583 20.4953 31.875 20.9536C31.25 21.3703 31.125 22.2036 31.5833 22.7869L34.875 27.3286H25.0833L28.375 22.7869C28.8333 22.2036 28.7083 21.3703 28.0833 20.9536C27.5 20.4953 26.6667 20.6203 26.25 21.2453L21.7917 27.3286H19C18.4167 27.3286 18 27.7869 18 28.3286V28.9953C18 29.5786 18.4167 29.9953 19 29.9953H19.3333L20.4167 37.6203C20.5417 38.6203 21.375 39.3286 22.375 39.3286H37.5833C38.5833 39.3286 39.4167 38.6203 39.5417 37.6203L40.6667 29.9953H41C41.5417 29.9953 42 29.5786 42 28.9953V28.3286ZM31 35.6619C31 36.2453 30.5417 36.6619 30 36.6619C29.4167 36.6619 29 36.2453 29 35.6619V30.9953C29 30.4536 29.4167 29.9953 30 29.9953C30.5417 29.9953 31 30.4536 31 30.9953V35.6619ZM35.6667 35.6619C35.6667 36.2453 35.2083 36.6619 34.6667 36.6619C34.0833 36.6619 33.6667 36.2453 33.6667 35.6619V30.9953C33.6667 30.4536 34.0833 29.9953 34.6667 29.9953C35.2083 29.9953 35.6667 30.4536 35.6667 30.9953V35.6619ZM26.3333 35.6619C26.3333 36.2453 25.875 36.6619 25.3333 36.6619C24.75 36.6619 24.3333 36.2453 24.3333 35.6619V30.9953C24.3333 30.4536 24.75 29.9953 25.3333 29.9953C25.875 29.9953 26.3333 30.4536 26.3333 30.9953V35.6619Z" fill="#F44D50"/>
</svg>
