<svg width="42" height="43" viewBox="0 0 42 43" fill="none" xmlns="http://www.w3.org/2000/svg">
<path fill-rule="evenodd" clip-rule="evenodd" d="M21 1.4061C32.0457 1.4061 41 10.3605 41 21.4061C41 32.4519 32.0457 41.4062 21 41.4062C9.95421 41.4062 0.999894 32.4519 0.999894 21.4061C0.999894 10.3605 9.95421 1.4061 21 1.4061Z" fill="#00C8F6"/>
<g clip-path="url(#clip0_1997_6943)">
<path d="M32.4999 23.0414C32.4999 23.1623 32.4999 23.2833 32.4999 23.4043C32.437 23.4849 32.357 23.5022 32.2599 23.5022C32.1399 23.5022 32.0199 23.5022 31.8999 23.5022C27.357 23.5022 22.8141 23.5022 18.2713 23.5022C17.8027 23.5022 17.7684 23.531 17.8884 23.9918C18.1341 24.9307 18.5627 25.7889 19.2484 26.4744C19.9513 27.1771 20.797 27.661 21.797 27.7992C23.0541 27.972 24.2256 27.7531 25.2541 26.9698C25.7227 26.6126 26.1113 26.1691 26.4199 25.668C26.5741 25.4203 26.7627 25.3339 27.0484 25.3339C28.7113 25.3397 30.3741 25.3397 32.0313 25.3397C32.4656 25.3397 32.5284 25.4145 32.3856 25.835C32.197 26.3995 31.9284 26.9294 31.6313 27.4478C31.1684 28.2658 30.6027 29.0031 29.9399 29.6597C28.797 30.7944 27.4656 31.6469 25.9513 32.1941C25.0313 32.5282 24.0827 32.7068 23.1056 32.7817C21.397 32.9142 19.7627 32.6319 18.197 31.9695C17.7684 31.7909 17.4484 31.7737 17.0313 31.981C16.1913 32.39 15.3056 32.701 14.3799 32.8681C13.4199 33.0466 12.4541 33.0985 11.5284 32.7241C10.677 32.3785 9.97985 31.8485 9.62557 30.9557C9.52271 30.6908 9.56271 30.4085 9.49414 30.1378C9.49414 30.0802 9.49414 30.0168 9.49414 29.9592C9.52271 29.9304 9.52271 29.9016 9.49414 29.8671C9.49414 29.5791 9.49414 29.2968 9.49414 29.0088C9.53414 28.9685 9.51128 28.9167 9.517 28.8706C9.51128 28.8245 9.53414 28.7727 9.49414 28.7323C9.49414 28.6575 9.49414 28.5826 9.49414 28.5077C9.57414 28.1333 9.53414 27.7474 9.60271 27.3672C9.81985 26.2094 10.1913 25.0977 10.6656 24.0206C11.4427 22.2695 12.397 20.6164 13.4941 19.0554C13.8027 18.6119 14.157 18.2029 14.5284 17.8112C15.2656 17.0336 16.0541 16.3021 16.7456 15.5072C15.757 16.0371 14.797 16.6535 13.8599 17.3101C13.1341 17.817 12.4313 18.3527 11.7513 18.9172C11.5284 19.1015 11.3056 19.2916 11.077 19.4816C10.997 19.5508 10.9113 19.6429 10.8027 19.5681C10.6827 19.4874 10.7341 19.3664 10.7799 19.2628C11.2141 18.2548 11.7513 17.3159 12.437 16.4576C13.2484 15.4726 14.1856 14.6374 15.2427 13.9462C16.6084 13.0476 18.0313 12.2412 19.6084 11.7574C20.3741 11.5212 21.157 11.3657 21.9684 11.3657C22.2313 11.3657 22.4884 11.3254 22.7513 11.3657C23.0027 11.4003 23.237 11.3311 23.4656 11.2275C24.7684 10.6514 26.1227 10.254 27.5341 10.0754C28.4313 9.96024 29.3227 9.96024 30.2027 10.2194C31.237 10.5247 31.8027 11.2793 32.1056 12.27C32.3741 13.1686 32.3056 14.0672 32.1227 14.9657C32.0141 15.4957 31.8827 16.0198 31.6941 16.5325C31.637 16.6938 31.6427 16.832 31.7227 16.9875C32.0713 17.6384 32.2827 18.3354 32.3913 19.0612C32.477 19.6257 32.477 20.2017 32.4827 20.7719C32.4827 20.8986 32.4827 21.0254 32.4827 21.1521C32.4827 21.2846 32.4827 21.417 32.4827 21.5438C32.4827 21.6474 32.4827 21.7569 32.4827 21.8606C32.4827 21.9527 32.4827 22.0449 32.4827 22.1313C32.4827 22.2062 32.4827 22.2868 32.4827 22.3617C32.4827 22.4481 32.4827 22.5403 32.4827 22.6267C32.4941 22.7649 32.4541 22.9031 32.4999 23.0414Z" fill="white"/>
<path d="M22.2367 20.4897C20.8196 20.4897 19.4082 20.4839 17.991 20.4954C17.7739 20.4954 17.7453 20.4205 17.7739 20.2362C17.951 19.1072 18.551 18.2317 19.3567 17.4714C20.3453 16.544 21.5339 16.2618 22.8424 16.3885C24.431 16.5383 25.5739 17.3619 26.2996 18.7789C26.5396 19.2512 26.6539 19.7639 26.711 20.2938C26.7282 20.4666 26.671 20.4897 26.5224 20.4897C25.0996 20.4897 23.6653 20.4897 22.2367 20.4897Z" fill="#00C8F6"/>
<path d="M12.3397 25.6963C12.9969 27.7296 14.1626 29.3309 16.0826 30.3792C15.494 30.6615 14.9397 30.8861 14.3797 31.0877C14.0026 31.2202 13.6197 31.3181 13.2311 31.3757C11.9626 31.5658 10.8311 30.4829 10.9626 29.1984C11.0083 28.7146 11.1569 28.2595 11.334 27.8102C11.6083 27.0845 11.9569 26.399 12.3397 25.6963Z" fill="#00C8F6"/>
<path d="M26.2939 12.2063C26.9797 11.9183 27.6368 11.6015 28.3739 11.59C29.2082 11.5785 30.2311 12.3503 30.4597 13.1567C30.4997 13.3065 30.5054 13.4562 30.4768 13.606C30.4368 13.8249 30.3797 14.0438 30.3168 14.2627C30.2311 14.5391 30.1282 14.8156 30.0139 15.1497C29.0425 13.7788 27.7911 12.8457 26.2939 12.2063Z" fill="#00C8F6"/>
</g>
<defs>
<clipPath id="clip0_1997_6943">
<rect width="23" height="23" fill="white" transform="translate(9.5 10)"/>
</clipPath>
</defs>
</svg>
