<svg width="60" height="61" viewBox="0 0 60 61" fill="none" xmlns="http://www.w3.org/2000/svg">
<circle opacity="0.1" cx="30" cy="30.0034" r="30" fill="#0A8FDC"/>
<path d="M36.9688 18.0034C36.8021 18.0034 36.6458 18.0243 36.5 18.0659L20.25 22.3472C19.5833 22.5138 19.0417 22.868 18.625 23.4097C18.2083 23.9513 18 24.5659 18 25.2534V39.0034C18 39.8159 18.2917 40.5243 18.875 41.1284C19.4792 41.7118 20.1875 42.0034 21 42.0034H39C39.8125 42.0034 40.5104 41.7118 41.0938 41.1284C41.6979 40.5243 42 39.8159 42 39.0034V26.0034C42 25.1909 41.6979 24.493 41.0938 23.9097C40.5104 23.3055 39.8125 23.0034 39 23.0034H25.625L37 20.0034V22.0034H39V20.0034C39 19.4409 38.7917 18.9722 38.375 18.5972C37.9792 18.2013 37.5104 18.0034 36.9688 18.0034ZM21 25.0034H39C39.2917 25.0034 39.5312 25.0972 39.7188 25.2847C39.9062 25.4722 40 25.7118 40 26.0034V39.0034C40 39.2951 39.9062 39.5347 39.7188 39.7222C39.5312 39.9097 39.2917 40.0034 39 40.0034H21C20.7083 40.0034 20.4688 39.9097 20.2812 39.7222C20.0938 39.5347 20 39.2951 20 39.0034V26.0034C20 25.7118 20.0938 25.4722 20.2812 25.2847C20.4688 25.0972 20.7083 25.0034 21 25.0034ZM36.5 31.0034C36.0833 31.0034 35.7292 31.1493 35.4375 31.4409C35.1458 31.7326 35 32.0868 35 32.5034C35 32.9201 35.1458 33.2743 35.4375 33.5659C35.7292 33.8576 36.0833 34.0034 36.5 34.0034C36.9167 34.0034 37.2708 33.8576 37.5625 33.5659C37.8542 33.2743 38 32.9201 38 32.5034C38 32.0868 37.8542 31.7326 37.5625 31.4409C37.2708 31.1493 36.9167 31.0034 36.5 31.0034Z" fill="#0A8FDC"/>
</svg>
