<svg width="24" height="24" viewBox="0 0 24 24" fill="none" xmlns="http://www.w3.org/2000/svg">
<g clip-path="url(#clip0_1997_6709)">
<path d="M12 23.9999C15.8396 23.9999 19.2547 22.1951 21.4511 19.3896H15.1313C14.3155 22.1095 13.86 23.9999 12 23.9999Z" fill="#C42126"/>
<path d="M11.2888 23.9798C11.2868 23.9798 11.2843 23.9792 11.2822 23.9792C11.2843 23.9792 11.2868 23.9798 11.2888 23.9798Z" fill="#C42126"/>
<path d="M15.1313 4.6103H21.4516C19.2552 1.80531 15.8396 0 12 0C13.86 0 14.3155 1.89043 15.1313 4.6103Z" fill="#C42126"/>
<path d="M11.2822 0.0212586C11.2843 0.0212586 11.2868 0.020752 11.2888 0.020752C11.2868 0.020752 11.2843 0.020752 11.2822 0.0212586Z" fill="#C42126"/>
<path d="M21.4517 4.61035H15.1309C16.4062 8.86192 16.4062 15.1387 15.1309 19.3898H21.4507C23.0462 17.3524 23.9998 14.7886 23.9998 12.0003C24.0003 9.21204 23.0462 6.64772 21.4517 4.61035Z" fill="#FFC40C"/>
<path d="M12 24C11.7613 24 11.5242 23.9929 11.2881 23.9792C11.5277 23.9929 11.7654 24 12 24Z" fill="#C42126"/>
<path d="M11.2891 0.020774C11.5247 0.00709355 11.7618 0 12.0004 0C11.7659 0 11.5282 0.00760023 11.2891 0.020774Z" fill="#C42126"/>
<path d="M16.0134 19.3896H2.54883C4.60697 22.0188 7.73674 23.7694 11.2815 23.9791C11.2835 23.9791 11.286 23.9796 11.2881 23.9796C11.5237 23.9933 11.7608 24.0004 12 24.0004C13.8595 23.9999 15.1976 22.1095 16.0134 19.3896Z" fill="#D32030"/>
<path d="M2.54883 4.6103H16.0134C15.1976 1.89043 13.8595 0 11.9995 0C11.7608 0 11.5237 0.00709355 11.2876 0.020774C11.2855 0.020774 11.283 0.0212806 11.281 0.0212806C7.73624 0.23054 4.60697 1.98113 2.54883 4.6103Z" fill="#D32030"/>
<path d="M0 12.0003C0 14.7886 0.953575 17.3524 2.54912 19.3898H16.0137C17.289 15.1387 17.289 8.86141 16.0137 4.61035H2.54912C0.953575 6.64772 0 9.21204 0 12.0003Z" fill="#FFD034"/>
</g>
<defs>
<clipPath id="clip0_1997_6709">
<rect width="24" height="24" fill="white"/>
</clipPath>
</defs>
</svg>
