<svg width="24" height="24" viewBox="0 0 24 24" fill="none" xmlns="http://www.w3.org/2000/svg">
<g clip-path="url(#clip0_1997_6754)">
<path d="M23.9473 13.1221H0.0546875V13.1226H23.9473V13.1221Z" fill="#C42126"/>
<path d="M22.7016 6.57178H1.29883V6.57228H22.7016V6.57178Z" fill="#C42126"/>
<path d="M23.5515 8.75488H0.447266V8.75539H23.5515V8.75488Z" fill="#C42126"/>
<path d="M5.15773 21.8555H18.8429L18.8434 21.855H5.15723L5.15773 21.8555Z" fill="#C42126"/>
<path d="M12.0006 0C11.765 0 11.5309 0.00861341 11.2988 0.0217869H12.7023C12.4697 0.00861341 12.2362 0 12.0006 0Z" fill="#C42126"/>
<path d="M23.95 10.9385H0.0498047V10.939H23.95V10.9385Z" fill="#C42126"/>
<path d="M15.5466 4.38831H21.2765C20.5961 3.5599 19.8047 2.82624 18.9286 2.20557H14.626C14.9817 2.83181 15.2877 3.57105 15.5466 4.38831Z" fill="#E7E7E7"/>
<path d="M14.6257 2.20573H18.9284C17.1494 0.945127 15.0138 0.155734 12.7014 0.0219727H12.332C13.4209 0.158774 13.9209 0.964381 14.6257 2.20573Z" fill="#DC3027"/>
<path d="M23.5524 8.755C23.3391 7.99398 23.0528 7.26387 22.7012 6.57227H16.1094C16.2431 7.27299 16.3485 8.00513 16.4266 8.755H23.5524Z" fill="#E7E7E7"/>
<path d="M15.7385 6.57143H22.7012C22.3045 5.79116 21.8277 5.05851 21.2769 4.38818H15.1943C15.4092 5.06712 15.5911 5.79926 15.7385 6.57143Z" fill="#DC3027"/>
<path d="M16.6787 13.1217H23.9459C23.9803 12.7523 24.0001 12.3784 24.0001 11.9999C24.0001 11.6422 23.9814 11.2886 23.9505 10.9385H16.6802C16.704 11.6645 16.7035 12.3962 16.6787 13.1217Z" fill="#E7E7E7"/>
<path d="M23.9507 10.9386C23.8849 10.1887 23.7501 9.45963 23.5525 8.75586H16.1201C16.1946 9.47077 16.2443 10.2019 16.2681 10.9386H23.9507Z" fill="#DC3027"/>
<path d="M15.9834 17.4889H22.6694C23.0261 16.7978 23.3164 16.0672 23.5348 15.3057H16.3067C16.2271 16.0566 16.1192 16.7887 15.9834 17.4889Z" fill="#E7E7E7"/>
<path d="M23.5351 15.3048C23.7367 14.601 23.8761 13.8719 23.946 13.1221H16.4523C16.4265 13.8593 16.3758 14.5904 16.2998 15.3048H23.5351Z" fill="#DC3027"/>
<path d="M18.8428 21.8551C19.732 21.2365 20.5341 20.5023 21.2252 19.6724H15.5951C15.3321 20.4932 15.0195 21.2314 14.6572 21.8551H18.8428Z" fill="#E7E7E7"/>
<path d="M15.3838 19.672H21.2257C21.783 19.0022 22.2669 18.2701 22.6697 17.4888H15.9345C15.7851 18.2614 15.6012 18.9941 15.3838 19.672Z" fill="#DC3027"/>
<path d="M11.5651 23.9913C11.5408 23.9903 11.5165 23.9893 11.4922 23.9888C11.5165 23.9893 11.5408 23.9903 11.5651 23.9913Z" fill="#DC3027"/>
<path d="M12 24.0002C14.544 24.0002 16.9015 23.2062 18.8426 21.856H14.4999C13.7288 23.1839 13.2201 24.0002 12 24.0002Z" fill="#DC3027"/>
<path d="M12.0002 23.9998C11.8542 23.9998 11.7098 23.9963 11.5654 23.9912C11.7108 23.9963 11.8558 23.9998 12.0002 23.9998Z" fill="#C42126"/>
<path d="M15.0231 2.20557H5.07108C4.19454 2.82624 3.40362 3.5599 2.72266 4.38831H15.9432C15.6848 3.57105 15.3788 2.83181 15.0231 2.20557Z" fill="#F3F4F5"/>
<path d="M5.07129 2.20573H15.0233C14.318 0.964888 13.4207 0.159281 12.3324 0.0219727H11.2983C8.98532 0.155734 6.8497 0.945127 5.07129 2.20573Z" fill="#E73625"/>
<path d="M0.447266 8.755H16.8041C16.7261 8.00513 16.6207 7.27299 16.487 6.57227H1.29847C0.946843 7.26438 0.660574 7.99449 0.447266 8.755Z" fill="#F3F4F5"/>
<path d="M2.72359 4.38818C2.17284 5.05851 1.69555 5.79116 1.29883 6.57143H16.4873C16.3399 5.79926 16.158 5.06712 15.9437 4.38818C15.9437 4.38818 2.72359 4.38818 2.72359 4.38818Z" fill="#E73625"/>
<path d="M0 11.9999C0 12.3779 0.0197602 12.7523 0.0542138 13.1217H16.9512C16.976 12.3962 16.9765 11.665 16.9527 10.939H0.0496538C0.0187468 11.2886 0 11.6422 0 11.9999Z" fill="#F3F4F5"/>
<path d="M0.0498047 10.9386H16.9529C16.9285 10.2019 16.8794 9.47077 16.8049 8.75586H0.447542C0.250446 9.45912 0.115165 10.1887 0.0498047 10.9386Z" fill="#E73625"/>
<path d="M16.7989 15.3052H0.464844C0.682712 16.0667 0.973542 16.7973 1.32973 17.4884H16.4751C16.6109 16.7887 16.7189 16.0566 16.7989 15.3052Z" fill="#F3F4F5"/>
<path d="M0.465091 15.3048H16.7987C16.8747 14.5904 16.9258 13.8588 16.9512 13.1221H0.0546875C0.124101 13.8719 0.263943 14.6016 0.465091 15.3048Z" fill="#E73625"/>
<path d="M5.15729 21.8551H14.9872C15.3495 21.2309 15.6621 20.4932 15.9256 19.6724H2.77441C3.46602 20.5023 4.26808 21.2365 5.15729 21.8551Z" fill="#F3F4F5"/>
<path d="M1.33008 17.4888C1.73288 18.2701 2.21675 19.0022 2.77409 19.672H15.9247C16.1421 18.9941 16.326 18.2614 16.4755 17.4888H1.33008Z" fill="#E73625"/>
<path d="M11.4921 23.989C11.5165 23.9901 11.5408 23.9911 11.5651 23.9916C11.7095 23.9966 11.8544 24.0002 11.9998 24.0002C13.2204 24.0002 14.2155 23.1839 14.9861 21.856H5.15723C6.96858 23.1155 9.1427 23.8907 11.4921 23.989Z" fill="#E73625"/>
<path d="M11.7513 0.00585938C5.60187 0.131007 0.589879 4.87902 0.0507812 10.9185H11.7518L11.7513 0.00585938Z" fill="#283991"/>
<path d="M2.40119 6.79932L2.58409 7.36223H3.17639L2.69708 7.71031L2.87999 8.27373L2.40119 7.92514L1.92238 8.27373L2.10478 7.71031L1.62598 7.36223H2.21828L2.40119 6.79932Z" fill="#EFEFEF"/>
<path d="M2.40119 8.78809L2.58409 9.351H3.17639L2.69708 9.69959L2.87999 10.2625L2.40119 9.91442L1.92238 10.2625L2.10478 9.69959L1.62598 9.351H2.21828L2.40119 8.78809Z" fill="#EFEFEF"/>
<path d="M4.39095 3.81543L4.57386 4.37834H5.16565L4.68684 4.72642L4.86975 5.28934L4.39095 4.94176L3.91164 5.28934L4.09455 4.72642L3.61523 4.37834H4.20753L4.39095 3.81543Z" fill="#EFEFEF"/>
<path d="M4.39095 5.8042L4.57386 6.36762H5.16565L4.68684 6.71519L4.86975 7.27861L4.39095 6.93104L3.91164 7.27861L4.09455 6.71519L3.61523 6.36762H4.20753L4.39095 5.8042Z" fill="#EFEFEF"/>
<path d="M4.39095 7.79297L4.57386 8.35639H5.16565L4.68684 8.70396L4.86975 9.26738L4.39095 8.9193L3.91164 9.26738L4.09455 8.70396L3.61523 8.35639H4.20753L4.39095 7.79297Z" fill="#EFEFEF"/>
<path d="M0.891208 9.26748L0.708299 8.70406L1.1871 8.35598H0.595312L0.582138 8.31494C0.517284 8.51609 0.458511 8.71926 0.404297 8.92497L0.412404 8.91889L0.891208 9.26748Z" fill="#EFEFEF"/>
<path d="M1.92291 6.28446L2.40172 5.93638L2.88052 6.28446L2.69761 5.72105L3.17641 5.37297H2.58412L2.40121 4.81006L2.2183 5.37297H1.99993C1.95939 5.43427 1.92038 5.49609 1.88086 5.55841L2.10531 5.72105L1.92291 6.28446Z" fill="#EFEFEF"/>
<path d="M4.39095 2.95256L4.86975 3.30064L4.68685 2.73773L5.16565 2.38965H4.82365C4.53333 2.60701 4.25314 2.83653 3.98359 3.07923L3.91113 3.30115L4.39095 2.95256Z" fill="#EFEFEF"/>
<path d="M5.90039 2.30586L6.3792 1.95778L6.858 2.30586L6.67509 1.74244L7.1539 1.39436H6.5616L6.53677 1.31836C6.33613 1.42071 6.13751 1.52761 5.94346 1.64111L6.08279 1.74194L5.90039 2.30586Z" fill="#EFEFEF"/>
<path d="M6.3797 2.8208L6.56261 3.38371H7.15491L6.6756 3.7318L6.85851 4.29521L6.3797 3.94662L5.9009 4.29521L6.08381 3.7318L5.60449 3.38371H6.19679L6.3797 2.8208Z" fill="#EFEFEF"/>
<path d="M6.3797 4.81006L6.56261 5.37297H7.15491L6.6756 5.72105L6.85851 6.28446L6.3797 5.93588L5.9009 6.28446L6.08381 5.72105L5.60449 5.37297H6.19679L6.3797 4.81006Z" fill="#EFEFEF"/>
<path d="M6.3797 6.79932L6.56261 7.36223H7.15491L6.6756 7.71031L6.85851 8.27373L6.3797 7.92514L5.9009 8.27373L6.08381 7.71031L5.60449 7.36223H6.19679L6.3797 6.79932Z" fill="#EFEFEF"/>
<path d="M6.3797 8.78809L6.56261 9.351H7.15491L6.6756 9.69959L6.85851 10.2625L6.3797 9.91442L5.9009 10.2625L6.08381 9.69959L5.60449 9.351H6.19679L6.3797 8.78809Z" fill="#EFEFEF"/>
<path d="M8.36896 1.82617L8.55187 2.38908H9.14416L8.66536 2.73767L8.84776 3.30059L8.36896 2.9525L7.89015 3.30059L8.07306 2.73767L7.59375 2.38908H8.18605L8.36896 1.82617Z" fill="#EFEFEF"/>
<path d="M8.36896 3.81543L8.55187 4.37834H9.14416L8.66536 4.72642L8.84776 5.28934L8.36896 4.94176L7.89015 5.28934L8.07306 4.72642L7.59375 4.37834H8.18605L8.36896 3.81543Z" fill="#EFEFEF"/>
<path d="M8.36896 5.8042L8.55187 6.36762H9.14416L8.66536 6.71519L8.84776 7.27861L8.36896 6.93104L7.89015 7.27861L8.07306 6.71519L7.59375 6.36762H8.18605L8.36896 5.8042Z" fill="#EFEFEF"/>
<path d="M8.36896 7.79297L8.55187 8.35639H9.14416L8.66536 8.70396L8.84776 9.26738L8.36896 8.9193L7.89015 9.26738L8.07306 8.70396L7.59375 8.35639H8.18605L8.36896 7.79297Z" fill="#EFEFEF"/>
<path d="M10.3582 0.831543L10.5411 1.39496H11.1329L10.6541 1.74254L10.837 2.30596L10.3582 1.95787L9.8789 2.30596L10.0618 1.74254L9.58301 1.39496H10.1748L10.3582 0.831543Z" fill="#EFEFEF"/>
<path d="M10.3582 2.8208L10.5411 3.38371H11.1329L10.6541 3.7318L10.837 4.29521L10.3582 3.94662L9.8789 4.29521L10.0618 3.7318L9.58301 3.38371H10.1748L10.3582 2.8208Z" fill="#EFEFEF"/>
<path d="M10.3582 4.81006L10.5411 5.37297H11.1329L10.6541 5.72105L10.837 6.28446L10.3582 5.93588L9.8789 6.28446L10.0618 5.72105L9.58301 5.37297H10.1748L10.3582 4.81006Z" fill="#EFEFEF"/>
<path d="M10.3582 6.79932L10.5411 7.36223H11.1329L10.6541 7.71031L10.837 8.27373L10.3582 7.92514L9.8789 8.27373L10.0618 7.71031L9.58301 7.36223H10.1748L10.3582 6.79932Z" fill="#EFEFEF"/>
<path d="M10.3582 8.78809L10.5411 9.351H11.1329L10.6541 9.69959L10.837 10.2625L10.3582 9.91442L9.8789 10.2625L10.0618 9.69959L9.58301 9.351H10.1748L10.3582 8.78809Z" fill="#EFEFEF"/>
</g>
<defs>
<clipPath id="clip0_1997_6754">
<rect width="23.9995" height="24" fill="white"/>
</clipPath>
</defs>
</svg>
