<svg width="24" height="24" viewBox="0 0 24 24" fill="none" xmlns="http://www.w3.org/2000/svg">
<g clip-path="url(#clip0_1997_6728)">
<path d="M12.0005 23.9999C18.6276 23.9999 24 18.6276 24 12.0005C24 5.37333 18.6276 0.000976562 12.0005 0.000976562C5.37333 0.000976562 0.000976562 5.37333 0.000976562 12.0005C0.000976562 18.6276 5.37333 23.9999 12.0005 23.9999Z" fill="white"/>
<path d="M23.3142 7.99878H15.9209C16.2416 10.562 16.2442 13.3867 15.927 15.953H23.3305C23.7626 14.7147 24.0003 13.3852 24.0003 11.9995C24.0003 10.5965 23.7571 9.25026 23.3142 7.99878Z" fill="#D32027"/>
<path d="M15.9211 7.99874H23.3144C23.3129 7.9952 23.3119 7.99165 23.3104 7.9881C21.7746 3.65809 17.8246 0.472143 13.0781 0.0490723C14.9148 1.05583 15.4509 4.24583 15.9211 7.99874Z" fill="#0B0B0B"/>
<path d="M13.0781 23.9502C17.8332 23.5266 21.7893 20.3295 23.319 15.9873C23.323 15.9757 23.3266 15.9645 23.3306 15.9534H15.9271C15.461 19.7265 14.9224 22.9388 13.0781 23.9502Z" fill="#F3C515"/>
<path d="M0 12.0002C0 13.3859 0.237629 14.7154 0.669819 15.9537H16.5443C16.8615 13.3869 16.859 10.5628 16.5383 7.99951H0.685526C0.243202 9.25048 0 10.5967 0 12.0002Z" fill="#DB2727"/>
<path d="M0.689094 7.98868C0.687574 7.99223 0.68656 7.99527 0.685547 7.99932H16.5383C16.0686 4.24641 14.9139 1.05641 13.0777 0.0496538C12.7225 0.0177335 12.3633 0 12 0C6.77979 0 2.33983 3.3339 0.689094 7.98868Z" fill="#151515"/>
<path d="M16.5444 15.9534H0.669922C0.673975 15.9645 0.677522 15.9762 0.681575 15.9873C2.32572 20.6538 6.77126 23.9998 12.0001 23.9998C12.3634 23.9998 12.7226 23.9821 13.0778 23.9502C14.9221 22.9388 16.0788 19.7265 16.5444 15.9534Z" fill="#F8D12E"/>
</g>
<defs>
<clipPath id="clip0_1997_6728">
<rect width="24" height="24" fill="white"/>
</clipPath>
</defs>
</svg>
