<svg width="24" height="24" viewBox="0 0 24 24" fill="none" xmlns="http://www.w3.org/2000/svg">
<g clip-path="url(#clip0_1997_6741)">
<path d="M16.001 0.685547L14.6006 4.56817C15.8931 8.83383 15.8931 15.1657 14.6006 19.4314L16.001 23.3135C20.6614 21.6658 24.0003 17.2233 24.0003 11.999C24.0003 6.77574 20.6614 2.33375 16.001 0.685547Z" fill="#E61E25"/>
<path d="M16.0007 4.56865V0.685526C14.7492 0.243202 13.4035 0 12 0C13.8504 0 11.2846 6.27107 16.0007 4.56865Z" fill="#E4E4E4"/>
<path d="M11.9998 24C13.4033 24 14.7491 23.7568 16.0005 23.3145V19.4323C11.332 18.9662 11.9998 24 11.9998 24Z" fill="#E4E4E4"/>
<path d="M0 12.0001C0 17.2416 3.36227 21.6957 8.04644 23.3303V0.67041C3.36227 2.30493 0 6.75857 0 12.0001Z" fill="#3757A6"/>
<path d="M16.001 4.56885V19.432C17.294 15.1659 17.294 8.83451 16.001 4.56885Z" fill="#EF4F4E"/>
<path d="M16.0011 19.4319V4.56865C15.1844 1.87164 13.8508 0 12.0004 0C10.6147 0 9.28518 0.238135 8.04688 0.670326V23.3302C9.28518 23.7624 10.6147 24 12.0004 24C13.8508 24 15.1844 22.1284 16.0011 19.4319Z" fill="#F3F4F5"/>
</g>
<defs>
<clipPath id="clip0_1997_6741">
<rect width="24" height="24" fill="white"/>
</clipPath>
</defs>
</svg>
