<svg width="18" height="13" viewBox="0 0 18 13" fill="none" xmlns="http://www.w3.org/2000/svg">
<path fill-rule="evenodd" clip-rule="evenodd" d="M1.20395 0.591113C1.45651 0.294593 1.81243 0.141968 2.17005 0.141968C2.46325 0.141968 2.75817 0.244778 3.00055 0.450533L8.20017 4.95932L9.94071 3.78506C10.4457 3.44563 11.1152 3.51412 11.544 3.94618L15.3048 7.75022V6.57067C15.3048 5.86091 15.8742 5.28499 16.5759 5.28499C17.2775 5.28499 17.847 5.86091 17.847 6.57067V10.7972C17.8625 11.1456 17.7388 11.4991 17.4758 11.7651C17.351 11.8914 17.2066 11.986 17.0525 12.0488C16.9053 12.1091 16.7444 12.1423 16.5759 12.1423H12.3389C11.6372 12.1423 11.0677 11.5662 11.0677 10.8565C11.0677 10.1467 11.6372 9.57079 12.3389 9.57079H13.5061L10.4796 6.51251L8.80511 7.64212C8.33235 7.96261 7.70523 7.92326 7.27309 7.54793L1.34127 2.4049C0.809127 1.94198 0.746287 1.12942 1.20395 0.591113Z" fill="#F44D50"/>
</svg>
