<svg width="29" height="34" viewBox="0 0 29 34" fill="none" xmlns="http://www.w3.org/2000/svg">
<path d="M25.3353 1.44905C23.967 0.528991 22.2297 -0.0116655 20.5792 0.000191038C18.7494 0.012838 17.4973 1.50676 16.0082 2.25214C15.1679 2.67265 14.2526 2.85603 13.116 2.40074C11.3699 1.70199 10.4293 0.1812 8.40815 0.0333892C6.72057 -0.0899183 4.98162 0.535314 3.62523 1.44826C1.38673 2.95562 0.287235 5.6423 0.0516864 8.25073C-0.0637168 9.53202 0.00742218 10.8592 0.333081 12.1073C0.75201 13.7158 1.78985 15.1409 2.26569 16.7653C2.88618 18.8836 2.55341 20.9522 2.56605 23.1093C2.58423 26.3983 2.60637 30.3971 5.0907 32.6372C5.91591 33.381 7.50073 34.3714 8.59232 33.8584C9.73923 33.3193 9.39935 31.5622 10.2206 28.3214C10.7462 26.2457 11.3383 22.4382 13.6511 21.5593C16.9923 20.289 18.2261 26.2955 18.7399 28.3214C19.5612 31.5622 19.2213 33.3193 20.3682 33.8584C21.4598 34.3714 23.0446 33.381 23.8698 32.6372C26.3533 30.3971 26.3755 26.3983 26.3945 23.1101C26.4118 19.9428 26.0759 17.2972 27.6829 14.3869C29.8811 10.4047 29.3491 4.15076 25.3353 1.44905ZM4.38484 14.3545C4.33662 14.3663 4.28762 14.3718 4.24019 14.3718C3.96512 14.3718 3.71534 14.1845 3.64737 13.9055C3.56358 13.5624 3.50746 13.2091 3.47979 12.8558C3.45371 12.5199 3.70507 12.2258 4.041 12.1997C4.37615 12.1729 4.67098 12.425 4.69706 12.7609C4.71919 13.0487 4.76504 13.3364 4.83381 13.6162C4.91364 13.945 4.71287 14.2754 4.38484 14.3545ZM7.90306 4.22031C7.27704 4.40607 6.36883 4.79891 5.60211 5.61385C3.89635 7.42631 4.20778 9.91222 4.28762 10.392C4.34295 10.7248 4.11767 11.0394 3.7849 11.0947C3.75091 11.1002 3.71692 11.1034 3.68373 11.1034C3.39048 11.1034 3.132 10.8916 3.08221 10.5928C2.98577 10.0134 2.6119 7.00975 4.71208 4.77757C5.46615 3.97607 6.44945 3.3785 7.55448 3.05047C7.87776 2.95483 8.21765 3.139 8.31408 3.46229C8.41052 3.78399 8.22635 4.12388 7.90306 4.22031Z" fill="#F7F6F7"/>
</svg>
