<svg width="36" height="37" viewBox="0 0 36 37" fill="none" xmlns="http://www.w3.org/2000/svg">
<path fill-rule="evenodd" clip-rule="evenodd" d="M17.9999 1.53121C27.3888 1.53121 34.9999 9.14237 34.9999 18.5311C34.9999 27.9201 27.3888 35.5312 17.9999 35.5312C8.61109 35.5312 0.999972 27.9201 0.999972 18.5311C0.999972 9.14237 8.61109 1.53121 17.9999 1.53121Z" fill="#EC407A"/>
<path fill-rule="evenodd" clip-rule="evenodd" d="M24.364 12.6361L24.3667 12.6388L24.3716 12.6439C22.7576 14.0262 20.931 15.167 18.948 16.0092C17.8954 14.0361 16.6671 12.1692 15.2709 10.4199C16.142 10.1439 17.0601 10 18.0001 10C20.404 10 22.664 10.9362 24.364 12.6361ZM22.6722 26.6959C22.2461 24.3467 21.5907 22.0476 20.7079 19.8142C21.3245 19.7085 21.9579 19.653 22.6042 19.653C24.1161 19.653 25.5587 19.9547 26.8759 20.4994C26.5702 22.3332 25.705 24.0229 24.364 25.364C23.8478 25.8802 23.2798 26.3253 22.6722 26.6959ZM25.0787 13.4404C23.3857 14.8945 21.4939 16.073 19.4352 16.9537C19.7387 17.5648 20.0253 18.1854 20.2958 18.8154C21.0512 18.6716 21.8221 18.5982 22.6042 18.5982C24.119 18.5982 25.5925 18.8707 26.9906 19.407C26.9966 19.2717 27.0001 19.1362 27.0001 19.0002C27.0001 16.9578 26.3241 15.0197 25.0787 13.4404ZM18.0001 28C15.9665 28 14.0359 27.3299 12.4604 26.0946C13.8464 23.1581 16.4705 20.9165 19.6556 20.0473C20.5721 22.33 21.259 24.7286 21.6881 27.2147C20.5434 27.7291 19.2926 28 18.0001 28ZM17.8299 19.5622C18.2928 19.3665 18.7647 19.2005 19.244 19.0641C18.991 18.4847 18.7227 17.9137 18.4404 17.351C16.0089 18.2536 13.4522 18.7112 10.826 18.7112C10.2158 18.7112 9.60963 18.6859 9.0079 18.6369C9.00311 18.7575 9 18.8786 9 19.0002C9 21.4042 9.93624 23.6641 11.636 25.364L11.6379 25.3657C12.2257 24.1931 12.9947 23.1274 13.9315 22.1904C15.0578 21.0644 16.3693 20.1799 17.8299 19.5622ZM14.2211 10.8272C15.6294 12.5595 16.879 14.4257 17.947 16.4036C15.7241 17.214 13.3256 17.6564 10.826 17.6564C10.2483 17.6564 9.67624 17.6324 9.11044 17.5862C9.40331 15.7194 10.2743 13.9978 11.636 12.6361C12.3978 11.8744 13.2721 11.2669 14.2211 10.8272Z" fill="white"/>
</svg>
