<svg width="36" height="36" viewBox="0 0 36 36" fill="none" xmlns="http://www.w3.org/2000/svg">
<path fill-rule="evenodd" clip-rule="evenodd" d="M17.9999 0.999936C27.3888 0.999936 34.9999 8.61106 34.9999 18C34.9999 27.3887 27.3888 34.9999 17.9999 34.9999C8.61109 34.9999 0.999972 27.3887 0.999972 18C0.999972 8.61106 8.61109 0.999936 17.9999 0.999936Z" fill="#395599"/>
<path fill-rule="evenodd" clip-rule="evenodd" d="M21.6985 10.0024L19.7797 9.99899C17.6241 9.99899 16.231 11.5447 16.231 13.9369V15.7524H14.3017C14.135 15.7524 14 15.8986 14 16.0788V18.7093C14 18.8896 14.1351 19.0355 14.3017 19.0355H16.231V25.6733C16.231 25.8535 16.3661 25.9995 16.5327 25.9995H19.0498C19.2166 25.9995 19.3516 25.8533 19.3516 25.6733V19.0355H21.6072C21.7741 19.0355 21.909 18.8896 21.909 18.7093L21.9099 16.0788C21.9099 15.9922 21.8781 15.9093 21.8216 15.8482C21.7652 15.7867 21.6881 15.7524 21.608 15.7524H19.3516V14.2133C19.3516 13.4735 19.5146 13.0982 20.4056 13.0982L21.6982 13.0976C21.8648 13.0976 21.9999 12.9514 21.9999 12.7712V10.3287C21.9999 10.1486 21.8651 10.0027 21.6985 10.0024Z" fill="white"/>
</svg>
