<svg width="40" height="40" viewBox="0 0 40 40" fill="none" xmlns="http://www.w3.org/2000/svg">
<rect width="40" height="40" rx="20" fill="#1B4E9B"/>
<path d="M24.3246 12.4613L22.2498 12.4579C19.9188 12.4579 18.4124 14.0073 18.4124 16.4053V18.2253H16.3262C16.146 18.2253 16 18.3718 16 18.5525V21.1895C16 21.3702 16.1461 21.5165 16.3262 21.5165H18.4124V28.1705C18.4124 28.3512 18.5584 28.4975 18.7386 28.4975H21.4605C21.6408 28.4975 21.7867 28.351 21.7867 28.1705V21.5165H24.2259C24.4062 21.5165 24.5522 21.3702 24.5522 21.1895L24.5532 18.5525C24.5532 18.4657 24.5187 18.3826 24.4576 18.3212C24.3966 18.2598 24.3133 18.2253 24.2268 18.2253H21.7867V16.6825C21.7867 15.9409 21.963 15.5645 22.9266 15.5645L24.3243 15.564C24.5044 15.564 24.6504 15.4175 24.6504 15.2369V12.7883C24.6504 12.6079 24.5046 12.4616 24.3246 12.4613Z" fill="white"/>
</svg>
