<svg width="40" height="40" viewBox="0 0 40 40" fill="none" xmlns="http://www.w3.org/2000/svg">
<rect width="40" height="40" rx="20" fill="#D93025"/>
<path d="M20 28.4975C24.6166 28.4975 27.6832 25.249 27.6832 20.6638C27.6832 20.1388 27.6288 19.7335 27.5531 19.3293H20.0011V22.086H24.5419C24.3563 23.2568 23.167 25.543 20.0011 25.543C17.2736 25.543 15.0464 23.2782 15.0464 20.4777C15.0464 17.6772 17.2725 15.4114 20.0011 15.4114C21.5616 15.4114 22.5984 16.0786 23.1883 16.6475L25.36 14.558C23.9616 13.246 22.1611 12.4579 20 12.4579C15.5797 12.4579 12 16.0465 12 20.4777C12 24.9089 15.5797 28.4975 20 28.4975Z" fill="white"/>
</svg>
