<svg width="18" height="13" viewBox="0 0 18 13" fill="none" xmlns="http://www.w3.org/2000/svg">
<path fill-rule="evenodd" clip-rule="evenodd" d="M15.3048 6.13349C15.3048 6.84325 15.8742 7.41917 16.5759 7.41917C17.2775 7.41917 17.847 6.84325 17.847 6.13349V1.90698C17.8625 1.55865 17.7388 1.20513 17.4758 0.939067C17.3363 0.797907 17.1724 0.69642 16.9978 0.634606C16.8657 0.587589 16.7237 0.562012 16.5759 0.562012H12.3389C11.6372 0.562012 11.0677 1.13794 11.0677 1.84769C11.0677 2.55745 11.6372 3.13337 12.3389 3.13337H13.5062L10.4796 6.19193L8.80511 5.06204C8.33235 4.74142 7.70523 4.7809 7.27309 5.15638L1.34127 10.2993C0.809127 10.762 0.746287 11.5747 1.20395 12.1129C1.45651 12.4096 1.81243 12.5621 2.17005 12.5621C2.46325 12.5621 2.75817 12.4592 3.00055 12.2535L8.20017 7.74497L9.94071 8.91938C10.4457 9.25882 11.1152 9.19004 11.544 8.75813L15.3048 4.95409V6.13349Z" fill="#0A8FDC"/>
</svg>
