<svg width="40" height="34" viewBox="0 0 40 34" fill="none" xmlns="http://www.w3.org/2000/svg">
<path fill-rule="evenodd" clip-rule="evenodd" d="M15.3702 6.93302C15.0228 6.88737 14.6912 7.09044 14.5729 7.42018L10.5601 18.6082H3.87109C2.67228 16.8188 1.81811 15.0369 1.5368 13.323C0.928544 9.58867 1.5219 6.50919 3.30382 4.17117C5.10065 1.8108 7.83641 0.463878 11.6676 0.0540259C12.0383 0.0176981 12.3709 0 12.7081 0C15.414 0 18.1498 1.00879 20.2475 2.7134C22.348 1.00879 25.0819 0 27.7934 0C28.1269 0 28.4631 0.0176981 28.8329 0.0549574C32.6641 0.464809 35.3971 1.81173 37.1967 4.1721C38.9786 6.51012 39.572 9.5896 38.9637 13.3239C38.6861 15.0118 37.8534 16.7657 36.6835 18.5272H28.7109C28.3849 18.5272 28.0961 18.7395 27.9993 19.0516L27.2895 21.344L25.7069 10.0637C25.6566 9.70883 25.3613 9.43963 25.0036 9.42286C24.6459 9.40796 24.3264 9.64642 24.2435 9.99479L22.1235 18.9025L20.8818 13.5158C20.8054 13.1833 20.5129 12.9457 20.172 12.9383C19.8292 12.9299 19.5284 13.1553 19.4371 13.4841L17.2071 21.5219L16.0167 7.60834C15.9869 7.25903 15.7177 6.97866 15.3702 6.93302ZM26.9543 25.4946C27.3017 25.5226 27.6231 25.3056 27.7265 24.9721L29.2587 20.0175H35.617C33.1337 23.2731 29.7059 26.4997 26.7056 29.3221C26.7056 29.3221 24.1701 31.8669 23.409 32.5199C22.838 33.0117 21.5945 34 20.2504 34C18.9035 34 17.6637 33.0117 17.0889 32.5199C16.3279 31.8678 13.7924 29.3221 13.7924 29.3221L13.7901 29.3199C10.8155 26.5213 7.42045 23.3272 4.94336 20.0995H11.0837C11.3985 20.0995 11.6789 19.902 11.7851 19.6058L14.8236 11.1368L16.0764 25.776C16.1072 26.1346 16.3913 26.4205 16.7499 26.4541C16.7732 26.4569 16.7965 26.4578 16.8197 26.4578C17.1514 26.4578 17.4466 26.237 17.537 25.912L20.0892 16.7117L21.3859 22.3379C21.4641 22.6751 21.7631 22.9144 22.1096 22.9154H22.1124C22.4571 22.9154 22.757 22.6788 22.8371 22.3425L24.7793 14.1818L26.2761 24.8557C26.3246 25.2012 26.6068 25.4667 26.9543 25.4946Z" fill="white"/>
<path d="M38.3053 18.5273H36.6845H28.712C28.385 18.5273 28.0963 18.7406 28.0003 19.0517L27.2905 21.3441L25.708 10.0638C25.6576 9.70895 25.3633 9.43975 25.0047 9.42299C24.647 9.40715 24.3275 9.64654 24.2446 9.99492L22.1245 18.9027L20.8829 13.5159C20.8065 13.1834 20.514 12.9458 20.1731 12.9384C19.8312 12.93 19.5294 13.1554 19.4382 13.4842L17.2082 21.522L16.0178 7.60846C15.9879 7.25916 15.7187 6.97878 15.3713 6.93314C15.0239 6.8875 14.6923 7.09056 14.574 7.4203L10.5593 18.6083H3.87124H0.745185C0.33347 18.6083 0 18.9418 0 19.3535C0 19.7652 0.33347 20.0987 0.745185 20.0987H4.9443H11.0846C11.3995 20.0987 11.6798 19.9012 11.786 19.605L14.8245 11.136L16.0774 25.7751C16.1081 26.1347 16.3922 26.4197 16.7508 26.4533C16.7741 26.4551 16.7974 26.457 16.8207 26.457C17.1523 26.457 17.4476 26.2362 17.5379 25.9111L20.0902 16.7109L21.3868 22.337C21.4651 22.6742 21.7641 22.9136 22.1106 22.9146C22.1115 22.9146 22.1124 22.9146 22.1134 22.9146C22.458 22.9146 22.7589 22.678 22.8381 22.3417L24.7802 14.181L26.2771 24.8548C26.3255 25.2004 26.6078 25.4659 26.9552 25.4938C27.3026 25.5218 27.624 25.3047 27.7274 24.9713L29.2606 20.0167H35.6189H38.3053C38.717 20.0167 39.0505 19.6833 39.0505 19.2715C39.0505 18.8598 38.7161 18.5273 38.3053 18.5273Z" fill="#F44D50"/>
</svg>
