<svg width="100" height="100" viewBox="0 0 100 100" fill="none" xmlns="http://www.w3.org/2000/svg">
<circle opacity="0.1" cx="49.9999" cy="50" r="50" fill="#0A8FDC"/>
<path d="M40.6249 28C39.1014 28 37.7733 28.5664 36.6405 29.6992C35.5468 30.793 34.9999 32.1016 34.9999 33.625V67.375C34.9999 68.8984 35.5468 70.2266 36.6405 71.3594C37.7733 72.4531 39.1014 73 40.6249 73H59.3749C60.8983 73 62.2069 72.4531 63.3007 71.3594C64.4335 70.2266 64.9999 68.8984 64.9999 67.375V33.625C64.9999 32.1016 64.4335 30.793 63.3007 29.6992C62.2069 28.5664 60.8983 28 59.3749 28H40.6249ZM40.6249 31.75H59.3749C59.8827 31.75 60.3124 31.9453 60.6639 32.3359C61.0546 32.6875 61.2499 33.1172 61.2499 33.625V67.375C61.2499 67.8828 61.0546 68.332 60.6639 68.7227C60.3124 69.0742 59.8827 69.25 59.3749 69.25H40.6249C40.1171 69.25 39.6678 69.0742 39.2772 68.7227C38.9257 68.332 38.7499 67.8828 38.7499 67.375V33.625C38.7499 33.1172 38.9257 32.6875 39.2772 32.3359C39.6678 31.9453 40.1171 31.75 40.6249 31.75ZM49.9999 63.625C49.4921 63.625 49.0428 63.8203 48.6522 64.2109C48.3007 64.5625 48.1249 64.9922 48.1249 65.5C48.1249 66.0078 48.3007 66.457 48.6522 66.8477C49.0428 67.1992 49.4921 67.375 49.9999 67.375C50.5077 67.375 50.9374 67.1992 51.2889 66.8477C51.6796 66.457 51.8749 66.0078 51.8749 65.5C51.8749 64.9922 51.6796 64.5625 51.2889 64.2109C50.9374 63.8203 50.5077 63.625 49.9999 63.625Z" fill="#0A8FDC"/>
</svg>
