<svg width="25" height="30" viewBox="0 0 25 30" fill="none" xmlns="http://www.w3.org/2000/svg">
<path d="M12.2501 30C13.4467 29.4533 22.1534 24.1933 23.6334 20.6867C25.0668 17.2967 24.2901 2.42333 24.2901 2.42333L19.7367 1.08C14.8501 -0.36 9.65342 -0.36 4.76675 1.08L0.210083 2.42333C0.210083 2.42333 -0.566584 17.2967 0.866749 20.6867C2.35008 24.1933 11.0567 29.4533 12.2501 30ZM20.1734 8.26C20.4568 8.49667 20.4967 8.91667 20.2601 9.2L16.9034 13.24C16.7701 13.4 16.5801 13.48 16.3901 13.48C16.2401 13.48 16.0901 13.43 15.9634 13.3267C15.6801 13.09 15.6401 12.67 15.8767 12.3867L19.2334 8.34333C19.4701 8.06333 19.8901 8.02333 20.1734 8.26ZM12.9001 12.2633C12.9001 12.1067 12.9534 11.9567 13.0534 11.8367L17.4434 6.55333C17.6801 6.27 18.1001 6.23 18.3834 6.46667C18.6667 6.70333 18.7067 7.12333 18.4701 7.40667L14.2367 12.5067V22.1633C14.2367 22.53 13.9367 22.83 13.5701 22.83C13.2034 22.83 12.9034 22.53 12.9034 22.1633V12.2633H12.9001ZM6.12008 6.46667C6.40342 6.23 6.82342 6.27 7.06008 6.55333L11.4501 11.8367C11.5501 11.9567 11.6034 12.1067 11.6034 12.2633V22.1633C11.6034 22.53 11.3034 22.83 10.9368 22.83C10.5701 22.83 10.2701 22.53 10.2701 22.1633V12.5067L6.03675 7.40667C5.79675 7.12333 5.83675 6.70333 6.12008 6.46667ZM4.32675 8.26C4.61008 8.02333 5.03008 8.06333 5.26675 8.34667L8.62342 12.39C8.86008 12.6733 8.82008 13.0933 8.53675 13.33C8.41342 13.4333 8.26008 13.4833 8.11008 13.4833C7.92008 13.4833 7.73008 13.4 7.59675 13.2433L4.24008 9.19667C4.00675 8.91333 4.04342 8.49333 4.32675 8.26Z" fill="#2717A4"/>
</svg>
