<svg width="50" height="50" viewBox="0 0 50 50" fill="none" xmlns="http://www.w3.org/2000/svg">
<circle opacity="0.1" cx="25" cy="25" r="25" fill="#0A8FDC"/>
<path d="M31.9688 13C31.8021 13 31.6458 13.0208 31.5 13.0625L15.25 17.3438C14.5833 17.5104 14.0417 17.8646 13.625 18.4062C13.2083 18.9479 13 19.5625 13 20.25V34C13 34.8125 13.2917 35.5208 13.875 36.125C14.4792 36.7083 15.1875 37 16 37H34C34.8125 37 35.5104 36.7083 36.0938 36.125C36.6979 35.5208 37 34.8125 37 34V21C37 20.1875 36.6979 19.4896 36.0938 18.9062C35.5104 18.3021 34.8125 18 34 18H20.625L32 15V17H34V15C34 14.4375 33.7917 13.9688 33.375 13.5938C32.9792 13.1979 32.5104 13 31.9688 13ZM16 20H34C34.2917 20 34.5312 20.0938 34.7188 20.2812C34.9062 20.4688 35 20.7083 35 21V34C35 34.2917 34.9062 34.5312 34.7188 34.7188C34.5312 34.9062 34.2917 35 34 35H16C15.7083 35 15.4688 34.9062 15.2812 34.7188C15.0938 34.5312 15 34.2917 15 34V21C15 20.7083 15.0938 20.4688 15.2812 20.2812C15.4688 20.0938 15.7083 20 16 20ZM31.5 26C31.0833 26 30.7292 26.1458 30.4375 26.4375C30.1458 26.7292 30 27.0833 30 27.5C30 27.9167 30.1458 28.2708 30.4375 28.5625C30.7292 28.8542 31.0833 29 31.5 29C31.9167 29 32.2708 28.8542 32.5625 28.5625C32.8542 28.2708 33 27.9167 33 27.5C33 27.0833 32.8542 26.7292 32.5625 26.4375C32.2708 26.1458 31.9167 26 31.5 26Z" fill="#0A8FDC"/>
</svg>
