<svg width="58" height="58" viewBox="0 0 58 58" fill="none" xmlns="http://www.w3.org/2000/svg">
<path opacity="0.1" fill-rule="evenodd" clip-rule="evenodd" d="M28.9999 0.99992C44.4467 0.99992 56.9687 13.5219 56.9687 28.9686V29.0311C56.9687 44.4778 44.4467 57 28.9999 57C13.5533 57 1.03112 44.4778 1.03112 29.0311V28.9686C1.03112 13.5219 13.5533 0.99992 28.9999 0.99992Z" fill="#49BD65"/>
<path fill-rule="evenodd" clip-rule="evenodd" d="M29.7648 22.794C31.9171 22.794 33.6618 21.0493 33.6618 18.897C33.6618 16.7447 31.9171 15 29.7648 15C27.6126 15 25.8678 16.7447 25.8678 18.897C25.8678 21.0493 27.6126 22.794 29.7648 22.794ZM27.2547 30.7058H27.7566C28.3936 30.7058 29.0782 30.7296 29.8321 30.7559H29.8321L30.0889 30.7648C30.3789 30.7748 30.6722 30.7882 30.9644 30.8015L30.9645 30.8015H30.9645C31.5349 30.8276 32.1008 30.8534 32.6279 30.8534C33.1297 30.8534 33.5431 30.8239 33.8973 30.7944C34.0154 30.7648 34.104 30.7648 34.1926 30.7648C34.8421 30.7648 35.403 30.9715 35.8754 31.3848L35.6687 27.4583C35.4325 25.5983 34.0745 24.1517 32.3031 23.7089L30.5613 28.0783L30.1775 24.9193H30.4136C30.5613 24.9193 30.6794 24.8012 30.6794 24.6536V23.7975C30.6794 23.6498 30.5613 23.5318 30.4136 23.5318H29.0261C28.8785 23.5318 28.7604 23.6498 28.7604 23.7975V24.6536C28.7604 24.8012 28.8785 24.9193 29.0261 24.9193H29.2623L28.8785 28.0783L27.1366 23.7089C25.3948 24.1222 24.0072 25.5983 23.771 27.4583L23.5644 31.2372C24.2139 31.0305 24.8043 30.8829 25.3062 30.8239C25.8671 30.7648 26.5166 30.7353 27.2547 30.7058ZM39.7438 34.5735C40.7181 34.1897 41.4856 34.6325 41.8104 35.223C42.1351 35.843 42.1056 36.7582 41.2199 37.3782C39.2124 38.8248 32.6879 42.9284 29.3223 42.8399C27.6985 42.7808 25.2481 42.3085 23.0339 41.659C22.6206 41.5113 22.1483 41.5999 21.794 41.8951L20.554 42.8989C20.4064 43.017 20.2588 43.076 20.0817 43.0465C19.9045 43.017 19.7569 42.958 19.6388 42.8103L16.1551 38.441C16.037 38.3229 15.978 38.1457 16.0075 37.9686C16.0075 37.7915 16.0961 37.6439 16.2437 37.5553C17.0703 36.9058 18.3103 35.9906 19.4026 35.223C21.6168 33.6583 24.2444 32.625 25.5729 32.4479C26.0453 32.3888 26.6062 32.3298 27.2852 32.3298C28.0528 32.3002 28.968 32.3298 30.0013 32.3888C30.1784 32.3962 30.356 32.404 30.5336 32.4119C31.7768 32.4668 33.02 32.5217 34.105 32.4183C34.843 32.3298 35.2859 32.9793 35.3744 33.5697C35.4925 34.3373 35.0497 35.3116 33.4555 35.6363C32.5403 35.8134 31.0346 35.7249 29.4699 35.6068L29.1747 35.5773C28.9385 35.5773 28.7023 35.6658 28.5252 35.843C28.348 36.0201 28.2595 36.2563 28.289 36.4925C28.3185 36.8763 28.6728 37.201 29.0861 37.2305L29.3518 37.2601C30.5622 37.3486 31.7136 37.4077 32.6583 37.3782C33.0717 37.3782 33.4259 37.3191 33.7507 37.2601C35.3449 36.9353 36.142 36.1677 36.5258 35.5182C38.002 35.1344 39.0648 34.8392 39.7438 34.5735Z" fill="#49BD65"/>
</svg>
