<svg width="58" height="58" viewBox="0 0 58 58" fill="none" xmlns="http://www.w3.org/2000/svg">
<path opacity="0.1" fill-rule="evenodd" clip-rule="evenodd" d="M29.0095 0.99992H29.0217C44.4736 0.99992 57 13.5262 57 28.9781V29.0216C57 44.4736 44.4736 57 29.0217 57H29.0095C13.5575 57 1.03112 44.4736 1.03112 29.0216V28.9781C1.03112 13.5262 13.5575 0.99992 29.0095 0.99992Z" fill="#3A3849"/>
<path d="M42.3013 27.1266L38.9679 22.9591C38.6522 22.5636 38.1729 22.3333 37.6667 22.3333H37.6642L37.6618 21.4951C37.6593 20.5739 36.8618 19.835 35.9902 19.8333C35.0698 19.8358 34.326 20.5845 34.3284 21.5049L34.3309 22.3333H32.6667V19H16V37.3333H19.7969C20.375 38.3249 21.4381 39 22.6667 39C23.8952 39 24.9583 38.3249 25.5364 37.3333H33.1302C33.7083 38.3249 34.7715 39 36 39C37.2285 39 38.2917 38.3249 38.8698 37.3333H41C41.9204 37.3333 42.6667 36.5871 42.6667 35.6667V28.1675C42.6667 27.7891 42.5381 27.422 42.3013 27.1266H42.3013ZM22.6666 36.5C22.2064 36.5 21.8333 36.1269 21.8333 35.6667C21.8333 35.2064 22.2064 34.8333 22.6666 34.8333C23.1268 34.8333 23.4999 35.2064 23.4999 35.6667C23.4999 36.1269 23.1268 36.5 22.6666 36.5ZM28.4999 29H25.9999V31.5H22.6666V29H20.1666V25.6667H22.6666V23.1667H25.9999V25.6667H28.4999V29ZM35.9938 20.6667L35.9975 22.3333H35.1678L35.1666 21.781C35.1654 21.1674 35.5357 20.6683 35.9938 20.6667ZM35.9999 36.5C35.5397 36.5 35.1666 36.1269 35.1666 35.6667C35.1666 35.2064 35.5397 34.8333 35.9999 34.8333C36.4601 34.8333 36.8333 35.2064 36.8333 35.6667C36.8333 36.1269 36.4601 36.5 35.9999 36.5ZM36.8333 28.1667V24L40.1666 28.1667H36.8333Z" fill="#3A3849"/>
</svg>
