<svg width="60" height="60" viewBox="0 0 60 60" fill="none" xmlns="http://www.w3.org/2000/svg">
<path opacity="0.1" fill-rule="evenodd" clip-rule="evenodd" d="M29.9775 1.0344H29.99C45.9749 1.0344 58.9331 13.9927 58.9331 29.9774V30.0224C58.9331 46.0072 45.9749 58.9655 29.99 58.9655H29.9775C13.9926 58.9655 1.03446 46.0072 1.03446 30.0224V29.9774C1.03446 13.9927 13.9926 1.0344 29.9775 1.0344Z" fill="#2A8853"/>
<path fill-rule="evenodd" clip-rule="evenodd" d="M35.4406 15H24.4672C22.0062 15 20 17.0016 20 19.4672V32.9109C20 36.478 22.9016 39.3796 26.4687 39.3796H33.439C37.0062 39.3796 39.9077 36.478 39.9077 32.9109V19.4672C39.9077 17.0016 37.9015 15 35.4406 15ZM22.7234 19.7625C22.7234 18.9703 23.3656 18.3281 24.1578 18.3281H35.7499C36.5421 18.3281 37.1843 18.9703 37.1843 19.7625V28.9031C37.1843 29.6953 36.5421 30.3374 35.7499 30.3374H24.1578C23.3656 30.3374 22.7234 29.6953 22.7234 28.9031V19.7625ZM29.15 36.1265C29.15 36.553 28.8031 36.8999 28.3765 36.8999H26.4781C24.5375 36.8999 22.9203 35.4468 22.7234 33.5156C22.7 33.2952 22.7703 33.0749 22.9203 32.9109C23.0656 32.7468 23.2765 32.6577 23.4922 32.6577H28.3765C28.8031 32.6577 29.15 33.0046 29.15 33.4312V36.1265ZM33.4343 36.8999H31.5312C31.1046 36.8999 30.7578 36.553 30.7578 36.1265V33.4312C30.7578 33.0046 31.1046 32.6577 31.5312 32.6577H36.4156C36.6359 32.6577 36.8421 32.7515 36.9874 32.9109C37.1374 33.0749 37.2077 33.2952 37.1843 33.5156C36.9874 35.4468 35.3749 36.8999 33.4343 36.8999ZM35.7491 29.4047H24.157C23.8804 29.4047 23.6601 29.1797 23.6601 28.9079V19.7673C23.6601 19.4954 23.8851 19.2704 24.157 19.2704H35.7491C36.021 19.2704 36.246 19.4954 36.246 19.7673V28.9079C36.246 29.1797 36.021 29.4047 35.7491 29.4047ZM26.4737 35.9624H28.208V33.5952H23.6752C23.9002 34.9592 25.0768 35.9624 26.4737 35.9624ZM31.8219 40.3172V44.5312C31.8219 44.789 31.6109 45 31.3531 45H28.5547C28.2969 45 28.0859 44.789 28.0859 44.5312V40.3172H31.8219ZM33.4299 35.9624H31.6955V33.5952H36.2283C36.0033 34.9545 34.8314 35.9624 33.4299 35.9624Z" fill="#2A8853"/>
</svg>
