<svg width="60" height="60" viewBox="0 0 60 60" fill="none" xmlns="http://www.w3.org/2000/svg">
<path opacity="0.1" fill-rule="evenodd" clip-rule="evenodd" d="M29.9775 1.0344H29.99C45.9749 1.0344 58.9331 13.9927 58.9331 29.9774V30.0224C58.9331 46.0072 45.9749 58.9655 29.99 58.9655H29.9775C13.9926 58.9655 1.03446 46.0072 1.03446 30.0224V29.9774C1.03446 13.9927 13.9926 1.0344 29.9775 1.0344Z" fill="#B745FF"/>
<path d="M30.2496 45C31.4463 44.4533 40.1529 39.1933 41.6329 35.6867C43.0663 32.2967 42.2896 17.4233 42.2896 17.4233L37.7363 16.08C32.8496 14.64 27.6529 14.64 22.7663 16.08L18.2096 17.4233C18.2096 17.4233 17.4329 32.2967 18.8663 35.6867C20.3496 39.1933 29.0563 44.4533 30.2496 45ZM38.1729 23.26C38.4563 23.4967 38.4963 23.9167 38.2596 24.2L34.9029 28.24C34.7696 28.4 34.5796 28.48 34.3896 28.48C34.2396 28.48 34.0896 28.43 33.9629 28.3267C33.6796 28.09 33.6396 27.67 33.8763 27.3867L37.2329 23.3433C37.4696 23.0633 37.8896 23.0233 38.1729 23.26ZM30.8996 27.2633C30.8996 27.1067 30.9529 26.9567 31.0529 26.8367L35.4429 21.5533C35.6796 21.27 36.0996 21.23 36.3829 21.4667C36.6663 21.7033 36.7063 22.1233 36.4696 22.4067L32.2363 27.5067V37.1633C32.2363 37.53 31.9363 37.83 31.5696 37.83C31.2029 37.83 30.9029 37.53 30.9029 37.1633V27.2633H30.8996ZM24.1196 21.4667C24.4029 21.23 24.8229 21.27 25.0596 21.5533L29.4496 26.8367C29.5496 26.9567 29.6029 27.1067 29.6029 27.2633V37.1633C29.6029 37.53 29.3029 37.83 28.9363 37.83C28.5696 37.83 28.2696 37.53 28.2696 37.1633V27.5067L24.0363 22.4067C23.7963 22.1233 23.8363 21.7033 24.1196 21.4667ZM22.3263 23.26C22.6096 23.0233 23.0296 23.0633 23.2663 23.3467L26.6229 27.39C26.8596 27.6733 26.8196 28.0933 26.5363 28.33C26.4129 28.4333 26.2596 28.4833 26.1096 28.4833C25.9196 28.4833 25.7296 28.4 25.5963 28.2433L22.2396 24.1967C22.0063 23.9133 22.0429 23.4933 22.3263 23.26Z" fill="#B745FF"/>
</svg>
