<svg width="58" height="58" viewBox="0 0 58 58" fill="none" xmlns="http://www.w3.org/2000/svg">
<path opacity="0.1" fill-rule="evenodd" clip-rule="evenodd" d="M29 0.99992C44.4467 0.99992 56.9687 13.5219 56.9687 28.9686V29.0311C56.9687 44.4778 44.4467 57 29 57C13.5532 57 1.03124 44.4778 1.03124 29.0311V28.9686C1.03124 13.5219 13.5532 0.99992 29 0.99992Z" fill="#9E49E6"/>
<path fill-rule="evenodd" clip-rule="evenodd" d="M37.5189 19H18.5586V20.6884H37.5189V19ZM33.6226 30.5191C33.6226 32.5668 35.3316 34.2323 37.4322 34.2323H39.0776V39H17V22.0384H39.0776V26.806H37.4322C35.3316 26.806 33.6226 28.4717 33.6226 30.5191ZM37.4322 28.156C36.0952 28.156 35.0075 29.216 35.0075 30.5191C35.0075 31.8222 36.0952 32.8824 37.4322 32.8824H40.6362V28.156H37.4322ZM38.9909 31.194H37.4322V29.8442H38.9909V31.194Z" fill="#9E49E6"/>
</svg>
