<svg width="60" height="60" viewBox="0 0 60 60" fill="none" xmlns="http://www.w3.org/2000/svg">
<path opacity="0.1" fill-rule="evenodd" clip-rule="evenodd" d="M29.9775 1.0344H29.99C45.9749 1.0344 58.9331 13.9927 58.9331 29.9774V30.0224C58.9331 46.0072 45.9749 58.9655 29.99 58.9655H29.9775C13.9926 58.9655 1.03446 46.0072 1.03446 30.0224V29.9774C1.03446 13.9927 13.9926 1.0344 29.9775 1.0344Z" fill="#F25766"/>
<path d="M35.565 22.6379C33.3486 20.4214 29.8939 15 29.8939 15C29.8939 15 24.8054 21.3996 21.9958 24.2092C19.6753 26.5297 18 29.5682 18 33.1061C18 39.6722 23.3278 45 29.8939 45C36.4599 45 41.7877 39.6722 41.7877 33.1061C41.7877 28.5796 38.5515 25.6244 35.565 22.6379ZM26.1374 40.4527C23.0989 40.4527 20.6015 37.3621 20.6015 34.3236C20.6015 32.6899 21.5172 30.359 22.36 29.0999C23.6816 27.1228 25.6275 24.719 25.6275 24.719C25.6275 24.719 23.6816 30.8273 23.6816 32.2737C23.6816 34.6046 25.7627 36.2383 27.6878 37.1852C28.999 37.8408 29.1759 40.4527 26.1374 40.4527Z" fill="#F25766"/>
</svg>
