<svg width="50" height="50" viewBox="0 0 50 50" fill="none" xmlns="http://www.w3.org/2000/svg">
<circle opacity="0.1" cx="25" cy="25" r="25" fill="#0A8FDC"/>
<path d="M25 13.5C23.7292 13.5 22.5521 13.8125 21.4688 14.4375C20.4062 15.0625 19.5625 15.9167 18.9375 17C18.3125 18.0625 18 19.2292 18 20.5C18 21.6667 18.2708 22.7604 18.8125 23.7812C19.3542 24.7812 20.0938 25.6042 21.0312 26.25C19.6562 26.7917 18.4375 27.5729 17.375 28.5938C16.3125 29.6146 15.4896 30.7917 14.9062 32.125C14.3021 33.5208 14 34.9792 14 36.5H16C16 35.0625 16.3229 33.7083 16.9688 32.4375C17.6146 31.1875 18.5 30.1458 19.625 29.3125C20.75 28.4583 22 27.9062 23.375 27.6562L24 29.5H26L26.625 27.6562C28 27.9062 29.25 28.4583 30.375 29.3125C31.5 30.1458 32.3854 31.1875 33.0312 32.4375C33.6771 33.7083 34 35.0625 34 36.5H36C36 34.9792 35.6979 33.5208 35.0938 32.125C34.5104 30.7917 33.6875 29.6146 32.625 28.5938C31.5625 27.5729 30.3438 26.7917 28.9688 26.25C29.9062 25.6042 30.6458 24.7812 31.1875 23.7812C31.7292 22.7604 32 21.6667 32 20.5C32 19.2292 31.6875 18.0625 31.0625 17C30.4375 15.9167 29.5833 15.0625 28.5 14.4375C27.4375 13.8125 26.2708 13.5 25 13.5ZM25 15.5C25.9167 15.5 26.75 15.7292 27.5 16.1875C28.2708 16.625 28.875 17.2292 29.3125 18C29.7708 18.75 30 19.5833 30 20.5C30 21.4167 29.7708 22.2604 29.3125 23.0312C28.875 23.7812 28.2708 24.3854 27.5 24.8438C26.75 25.2812 25.9167 25.5 25 25.5C24.0833 25.5 23.2396 25.2812 22.4688 24.8438C21.7188 24.3854 21.1146 23.7812 20.6562 23.0312C20.2188 22.2604 20 21.4167 20 20.5C20 19.5833 20.2188 18.75 20.6562 18C21.1146 17.2292 21.7188 16.625 22.4688 16.1875C23.2396 15.7292 24.0833 15.5 25 15.5ZM24 30.5L23 36.5H27L26 30.5H24Z" fill="#0A8FDC"/>
</svg>
