<svg width="58" height="58" viewBox="0 0 58 58" fill="none" xmlns="http://www.w3.org/2000/svg">
<path fill-rule="evenodd" clip-rule="evenodd" d="M28.9783 0.99992H28.9904C44.4424 0.99992 56.9686 13.5262 56.9686 28.9781V29.0216C56.9686 44.4736 44.4424 57 28.9904 57H28.9783C13.5262 57 0.999978 44.4736 0.999978 29.0216V28.9781C0.999978 13.5262 13.5262 0.99992 28.9783 0.99992Z" fill="#00B59C"/>
<path fill-rule="evenodd" clip-rule="evenodd" d="M34.1313 35.8324L38.5664 31.3973V25.4416C38.5664 24.1222 37.3239 22.9648 35.9074 22.9648H34.8164V20.9727H35.3958C36.3357 20.9727 37.1602 20.1645 37.1602 19.2433V15.8412C37.1602 14.9721 36.4056 14 35.3958 14H33.1083V19.2148H31.3505V14H29.1914V19.2148H27.4336V14H25.1331V19.2148H23.3753V14H21.2292C20.2194 14 19.4648 14.9721 19.4648 15.8412V19.2433C19.4648 20.1645 20.2893 20.9727 21.2292 20.9727H21.6914V22.9648H20.7762C19.4051 22.9648 18 24.0948 18 25.4416V41.4207C18 42.7224 19.3751 44 20.7762 44H34.3274L34.1313 43.8038C31.9336 41.6062 31.9336 38.0302 34.1313 35.8324ZM29.1914 34.3613V37.2982C29.1914 37.7836 28.7979 38.1771 28.3125 38.1771C27.8271 38.1771 27.4336 37.7836 27.4336 37.2982V34.3613H24.4967C24.0113 34.3613 23.6178 33.9678 23.6178 33.4824C23.6178 32.997 24.0113 32.6035 24.4967 32.6035H27.4336V29.6666C27.4336 29.1812 27.8271 28.7877 28.3125 28.7877C28.7979 28.7877 29.1914 29.1812 29.1914 29.6666V32.6035H32.1283C32.6137 32.6035 33.0072 32.997 33.0072 33.4824C33.0072 33.9678 32.6137 34.3613 32.1283 34.3613H29.1914ZM46.8628 31.6773L46.5597 31.3743C45.0431 29.8577 42.5819 29.8667 41.0745 31.3741L38.9101 33.5385L44.6986 39.327L46.8628 37.1628C48.3751 35.6504 48.3751 33.1897 46.8628 31.6773ZM35.376 42.561C33.8636 41.0486 33.8636 38.5879 35.376 37.0755L37.67 34.7816L43.4584 40.57L41.1645 42.864C39.6521 44.3764 37.1914 44.3763 35.6791 42.864L35.376 42.561Z" fill="white"/>
</svg>
