<svg width="48" height="48" viewBox="0 0 48 48" fill="none" xmlns="http://www.w3.org/2000/svg">
<path fill-rule="evenodd" clip-rule="evenodd" d="M23.982 0.82752H23.992C36.78 0.82752 47.1465 11.1941 47.1465 23.9819V24.0179C47.1465 36.8058 36.78 47.1724 23.992 47.1724H23.982C11.1941 47.1724 0.827568 36.8058 0.827568 24.0179V23.9819C0.827568 11.1941 11.1941 0.82752 23.982 0.82752Z" fill="white"/>
<path d="M36.7402 15.0123C36.2516 14.35 35.575 14 34.7836 14C33.0232 14 31.6422 16.4283 30.8688 18.0582L27.5965 16.5479C25.319 15.4976 22.6257 15.4436 20.2311 16.5479L16.9588 18.0582C16.1909 16.4398 14.8031 14 13.044 14C12.2525 14 11.576 14.3501 11.0874 15.0123C9.94351 16.5629 10.0005 19.7051 10.0005 21.8263C10.0005 24.3796 11.07 26.7576 13.0935 28.7032C14.4892 30.0452 15.8831 30.7451 16.123 30.8603C16.6281 31.1373 14.4561 29.9623 20.2311 33.0721C22.5952 34.3441 25.3638 34.274 27.5964 33.0721C33.3998 29.947 31.1824 31.1463 31.7045 30.8603C31.9444 30.745 33.3384 30.0452 34.734 28.7032C36.7575 26.7576 37.827 24.3796 37.827 21.8263C37.8272 19.598 37.8637 16.5353 36.7402 15.0123ZM11.7396 21.8262C11.7396 19.6989 11.7396 15.7391 13.044 15.7391C13.2635 15.7391 13.8549 16.1046 14.6798 17.4744C15.1549 18.2634 15.5142 19.0676 15.6528 19.3918V28.5567C14.1298 27.4941 11.7396 25.2765 11.7396 21.8262ZM32.1749 28.5567V19.3918C32.3134 19.0676 32.6727 18.2634 33.1478 17.4744C33.9727 16.1046 34.5642 15.7391 34.7836 15.7391C36.088 15.7391 36.088 19.6989 36.088 21.8262C36.088 24.6722 34.4708 26.9575 32.1749 28.5567Z" fill="#265ED7"/>
</svg>
