<svg width="58" height="58" viewBox="0 0 58 58" fill="none" xmlns="http://www.w3.org/2000/svg">
<path opacity="0.1" fill-rule="evenodd" clip-rule="evenodd" d="M28.9783 0.99992H28.9904C44.4424 0.99992 56.9686 13.5262 56.9686 28.9781V29.0216C56.9686 44.4736 44.4424 57 28.9904 57H28.9783C13.5262 57 0.999978 44.4736 0.999978 29.0216V28.9781C0.999978 13.5262 13.5262 0.99992 28.9783 0.99992Z" fill="#0A8FDC"/>
<path fill-rule="evenodd" clip-rule="evenodd" d="M30.4258 20.5716C31.4711 21.3939 32.7532 21.8398 34.1037 21.8398H35.25V19.3008C35.25 17.4778 33.7722 16 31.9493 16H24.459C22.8339 16 21.5146 17.3345 21.5394 18.9652C21.5638 20.5674 22.901 21.8398 24.5033 21.8398H26.7479C28.0985 21.8398 29.3805 21.3939 30.4258 20.5716ZM26.7479 23.3633C28.0597 23.3633 29.3122 23.0337 30.4258 22.402C31.5394 23.0337 32.7919 23.3633 34.1037 23.3633H35.25V24.8867C35.25 28.1068 32.6302 30.7266 29.4102 30.7266C26.1901 30.7266 23.5703 28.1068 23.5703 24.8867V23.2657C23.8742 23.3295 24.1863 23.3633 24.5033 23.3633H26.7479ZM27.1403 37.6836H26.998C25.388 37.6836 24.0781 38.9935 24.0781 40.6035C24.0781 41.1091 24.2074 41.5849 24.4344 42H19.7617C19.341 42 19 41.659 19 41.2383V37.5821C19 35.2374 20.6727 33.2838 22.8897 32.8486L27.1403 37.6836ZM28.4796 39.207H26.998C26.228 39.207 25.6016 39.8335 25.6016 40.6035C25.6016 41.3732 26.2275 41.9994 26.9971 42H30.935L28.4796 39.207ZM39.8203 37.582C39.8203 34.9177 37.6604 32.7578 34.9961 32.7578H31.9492V31.7987C31.1574 32.0905 30.3021 32.25 29.4102 32.25C28.5182 32.25 27.6629 32.0905 26.8711 31.7987V32.4692L34.2344 36.7739V36.5664C34.2344 36.1457 34.5754 35.8047 34.9961 35.8047C35.4168 35.8047 35.7578 36.1457 35.7578 36.5664V37.6646L39.8203 40.0396V37.582ZM32.9633 42.0001L25.3588 33.3499L39.6568 41.7088C39.5174 41.8859 39.3014 42.0001 39.0585 42.0001H32.9633Z" fill="#0A8FDC"/>
</svg>
