<svg width="48" height="48" viewBox="0 0 48 48" fill="none" xmlns="http://www.w3.org/2000/svg">
<path fill-rule="evenodd" clip-rule="evenodd" d="M23.982 0.82752H23.992C36.78 0.82752 47.1465 11.1941 47.1465 23.9819V24.0179C47.1465 36.8058 36.78 47.1724 23.992 47.1724H23.982C11.1941 47.1724 0.827568 36.8058 0.827568 24.0179V23.9819C0.827568 11.1941 11.1941 0.82752 23.982 0.82752Z" fill="white"/>
<path fill-rule="evenodd" clip-rule="evenodd" d="M34.0433 14.9132C34.0433 14.385 33.6152 13.9568 33.087 13.9568H29.261V13H27.3478V13.9564H24.4783V13H22.5651V13.9564H19.6955V13H17.7823V13.9564H13.9564C13.4282 13.9564 13 14.385 13 14.9132V17.7828H34.0433V14.9132ZM30.2171 25.4345C27.5757 25.4345 25.4343 27.5759 25.4343 30.2172C25.4343 32.8586 27.5757 35 30.2171 35C32.8584 35 34.9999 32.8586 34.9999 30.2172C34.9999 27.5759 32.8584 25.4345 30.2171 25.4345ZM30.748 31.9694C30.3068 32.2546 29.719 32.1371 29.4212 31.7045L27.508 28.8349L29.0998 27.7741L30.4821 29.8478L32.5558 28.4654L33.6166 30.0571L30.748 31.9694ZM30.2174 24.4783C29.874 24.4765 29.5314 24.5052 29.1933 24.5648C26.0902 25.1114 24.0173 28.0706 24.5644 31.1738H13.9564C13.4282 31.1738 13 30.7456 13 30.2174V18.7391H34.0433V25.9512C32.9946 25.0033 31.6311 24.4787 30.2174 24.4783ZM30.2174 21.6087H28.3042V23.5219H30.2174V21.6087ZM26.3915 21.6087H24.4783V23.5219H26.3915V21.6087ZM16.8259 26.3915H18.7391V24.4783H16.8259V26.3915ZM16.8259 23.5219H18.7391V21.6087H16.8259V23.5219ZM20.6519 26.3915H22.5651V24.4783H20.6519V26.3915ZM20.6519 23.5219H22.5651V21.6087H20.6519V23.5219Z" fill="#F77568"/>
</svg>
