<svg width="58" height="58" viewBox="0 0 58 58" fill="none" xmlns="http://www.w3.org/2000/svg">
<path fill-rule="evenodd" clip-rule="evenodd" d="M28.9783 0.99992H28.9904C44.4424 0.99992 56.9686 13.5262 56.9686 28.9781V29.0216C56.9686 44.4736 44.4424 57 28.9904 57H28.9783C13.5262 57 0.999978 44.4736 0.999978 29.0216V28.9781C0.999978 13.5262 13.5262 0.99992 28.9783 0.99992Z" fill="#FB9C3B"/>
<path fill-rule="evenodd" clip-rule="evenodd" d="M39.2621 32.4759C38.8723 32.021 38.4446 31.6002 37.9834 31.2179C38.842 30.5462 39.9107 30.2003 41 30.2414V41L38.1159 39.3531C31.9421 42.0428 21.1379 39.7131 21.1379 39.7131C17.8276 38.931 17 37.8593 17 35.5752V19.8966L24.8621 17L26.931 21.1379L24.4483 24.4483L21.2041 23.7614C22.3276 26.4205 23.1466 29.1981 23.6455 32.0414C23.4924 32.1697 23.36 32.2814 23.2441 32.3807C22.779 32.7963 22.3651 33.2658 22.011 33.7793L22.7476 34.1517C23.0581 33.7312 23.4102 33.343 23.7986 32.9931C24.0138 32.8028 24.3076 32.5669 24.6593 32.3021C24.6908 32.2792 24.7233 32.2553 24.7564 32.2309C24.819 32.1848 24.884 32.1371 24.949 32.091C25.0483 32.0207 25.1476 31.9503 25.2552 31.8841C25.2577 31.8841 25.2587 31.8826 25.2601 31.8804C25.2609 31.879 25.2619 31.8774 25.2634 31.8759C27.1752 30.589 30.2455 29.1572 33.6966 30.0014C33.9366 30.0634 34.1766 30.1338 34.4207 30.2124C35.4869 30.5765 36.4874 31.1102 37.3834 31.7931C37.3882 31.7982 37.3938 31.8024 37.4 31.8055C37.8295 32.163 38.2307 32.5531 38.6 32.9724L39.2621 32.4759ZM27.5348 36.7963C27.6179 36.8501 28.9727 37.6934 31.489 37.6934C33.0859 37.672 34.6681 37.3835 36.1698 36.8397L35.8992 36.0577C30.8017 37.8221 28.0086 36.1168 27.9808 36.099L27.5348 36.7963ZM35.8955 27.3357C35.0789 27.8813 34.1189 28.1725 33.1368 28.1725C31.8203 28.1711 30.5581 27.6475 29.6272 26.7166C28.6963 25.7857 28.1727 24.5235 28.1713 23.207C28.1713 22.2249 28.4625 21.2649 29.0081 20.4483C29.5537 19.6317 30.3292 18.9953 31.2365 18.6195C32.1439 18.2436 33.1423 18.1453 34.1055 18.3369C35.0687 18.5285 35.9535 19.0014 36.6479 19.6959C37.3424 20.3903 37.8153 21.2751 38.0069 22.2383C38.1985 23.2015 38.1001 24.1999 37.7243 25.1072C37.3485 26.0146 36.712 26.7901 35.8955 27.3357ZM36.6351 25.4195C37.0536 24.7575 37.2754 23.9902 37.2747 23.207C37.2756 22.253 36.9452 21.3284 36.3399 20.591L34.8536 22.0773C34.8998 22.1438 34.9421 22.2129 34.9802 22.2842L35.4474 22.1601C35.4426 22.0675 35.4696 21.976 35.5238 21.9008C35.5781 21.8255 35.6563 21.771 35.7457 21.7463C35.8517 21.718 35.9646 21.7329 36.0595 21.7878C36.1545 21.8426 36.2238 21.9329 36.2522 22.0389L36.4177 22.6596C36.4318 22.712 36.4354 22.7668 36.4283 22.8207C36.4212 22.8746 36.4036 22.9265 36.3765 22.9736C36.3493 23.0207 36.3131 23.0619 36.27 23.095C36.2269 23.1281 36.1777 23.1524 36.1252 23.1665C36.0901 23.1761 36.0539 23.181 36.0176 23.1809C35.943 23.1802 35.87 23.1591 35.8065 23.1199C35.743 23.0808 35.6914 23.025 35.6572 22.9587L35.1933 23.0829C35.1944 23.1006 35.1968 23.1183 35.1992 23.1361C35.2025 23.1597 35.2057 23.1834 35.2057 23.207C35.2059 23.6117 35.0866 24.0074 34.8627 24.3445L35.1999 24.6813C35.2778 24.6311 35.3704 24.609 35.4625 24.6184C35.5547 24.6279 35.6408 24.6685 35.7068 24.7335C35.7844 24.8111 35.828 24.9163 35.828 25.026C35.828 25.1358 35.7844 25.241 35.7068 25.3186L35.2517 25.7738C35.2132 25.8122 35.1676 25.8428 35.1174 25.8636C35.0671 25.8844 35.0133 25.8951 34.9589 25.8951C34.9045 25.8951 34.8507 25.8844 34.8004 25.8636C34.7502 25.8428 34.7046 25.8122 34.6661 25.7738C34.6013 25.7077 34.5608 25.6215 34.5514 25.5294C34.542 25.4373 34.5642 25.3447 34.6144 25.2669L34.2772 24.93C33.9399 25.1547 33.5437 25.2747 33.1384 25.2747C33.1131 25.2747 33.0895 25.2714 33.066 25.2681C33.0489 25.2657 33.0318 25.2634 33.0143 25.2623L32.8901 25.7291C32.9723 25.7715 33.0375 25.8407 33.0751 25.9251C33.1127 26.0096 33.1204 26.1043 33.097 26.1938C33.0735 26.2817 33.0217 26.3595 32.9495 26.415C32.8773 26.4705 32.7888 26.5007 32.6977 26.5008C32.6615 26.5007 32.6255 26.496 32.5906 26.4867L31.9699 26.3212C31.9174 26.3071 31.8682 26.2829 31.825 26.2498C31.7819 26.2167 31.7458 26.1754 31.7186 26.1284C31.6914 26.0813 31.6738 26.0293 31.6667 25.9754C31.6596 25.9216 31.6632 25.8668 31.6773 25.8143C31.7021 25.7249 31.7565 25.6466 31.8318 25.5924C31.907 25.5382 31.9985 25.5112 32.0911 25.516L32.2152 25.0496C32.1432 25.0114 32.0734 24.969 32.0063 24.9226L30.5199 26.4089C31.1258 26.9053 31.8602 27.2193 32.6376 27.3145C33.4149 27.4097 34.2034 27.2821 34.9111 26.9466C35.6188 26.6111 36.2167 26.0816 36.6351 25.4195ZM31.8954 23.207C31.8963 23.3915 31.9387 23.5733 32.0195 23.7391L33.6689 22.0898C33.5031 22.009 33.3212 21.9665 33.1368 21.9656C32.8075 21.9656 32.4918 22.0964 32.259 22.3292C32.0262 22.562 31.8954 22.8778 31.8954 23.207ZM34.3781 23.207C34.3772 23.0226 34.3348 22.8407 34.254 22.6749L32.6046 24.3242C32.7704 24.405 32.9523 24.4475 33.1368 24.4484C33.466 24.4484 33.7817 24.3176 34.0146 24.0848C34.2474 23.852 34.3781 23.5362 34.3781 23.207ZM35.7536 20.0051C35.0162 19.3992 34.0912 19.0683 33.1368 19.0691C32.3535 19.0682 31.5862 19.2899 30.924 19.7082C30.2619 20.1265 29.7322 20.7243 29.3966 21.432C29.0609 22.1397 28.9332 22.9282 29.0283 23.7056C29.1234 24.483 29.4373 25.2175 29.9336 25.8234L31.4199 24.3371C31.3738 24.2706 31.3315 24.2015 31.2933 24.1302L30.8261 24.2543C30.8308 24.3469 30.8039 24.4384 30.7496 24.5136C30.6954 24.5888 30.6172 24.6433 30.5278 24.6681C30.4928 24.6774 30.4568 24.6821 30.4206 24.6822C30.3296 24.6821 30.2412 24.652 30.169 24.5966C30.0968 24.5411 30.0449 24.4635 30.0213 24.3756L29.8558 23.7549C29.8275 23.6489 29.8424 23.536 29.8973 23.4411C29.9521 23.3461 30.0424 23.2768 30.1484 23.2484C30.2379 23.2248 30.3327 23.2325 30.4173 23.2701C30.5018 23.3077 30.571 23.373 30.6135 23.4553L31.0802 23.3311C31.0792 23.3134 31.0767 23.2957 31.0743 23.2779C31.071 23.2543 31.0678 23.2306 31.0678 23.207C31.0678 22.8015 31.1877 22.405 31.4125 22.0674L31.0753 21.7306C31.0117 21.7734 30.9375 21.7975 30.8609 21.8001C30.7789 21.8003 30.6987 21.776 30.6305 21.7305C30.5623 21.685 30.5091 21.6203 30.4778 21.5445C30.4465 21.4687 30.4383 21.3854 30.4544 21.305C30.4706 21.2246 30.5102 21.1508 30.5684 21.0929L31.0235 20.6378C31.1011 20.5602 31.2064 20.5166 31.3161 20.5166C31.4258 20.5166 31.531 20.5602 31.6086 20.6378C31.6734 20.7039 31.7139 20.79 31.7233 20.8821C31.7328 20.9742 31.7107 21.0667 31.6608 21.1447L31.9976 21.4815C32.335 21.2571 32.7311 21.1373 33.1364 21.1372C33.1617 21.1372 33.1853 21.1405 33.2087 21.1438C33.2259 21.1462 33.243 21.1486 33.2605 21.1496L33.3846 20.6825C33.3025 20.64 33.2372 20.5709 33.1996 20.4864C33.162 20.402 33.1543 20.3072 33.1777 20.2178C33.2061 20.1118 33.2755 20.0215 33.3704 19.9667C33.4654 19.9118 33.5783 19.8969 33.6842 19.9252L34.3049 20.0907C34.4018 20.1167 34.486 20.177 34.5418 20.2604C34.5976 20.3438 34.6212 20.4446 34.6082 20.5441C34.5952 20.6436 34.5465 20.735 34.4711 20.8012C34.3958 20.8675 34.2989 20.9041 34.1986 20.9042H34.1824L34.0583 21.3644C34.1304 21.4025 34.2002 21.4449 34.2672 21.4914L35.7536 20.0051Z" fill="white"/>
</svg>
