<svg width="36" height="36" viewBox="0 0 36 36" fill="none" xmlns="http://www.w3.org/2000/svg">
<path fill-rule="evenodd" clip-rule="evenodd" d="M17.9999 0.999972C27.3888 0.999972 34.9999 8.61109 34.9999 17.9999C34.9999 27.3888 27.3888 34.9999 17.9999 34.9999C8.61109 34.9999 0.999972 27.3888 0.999972 17.9999C0.999972 8.61109 8.61109 0.999972 17.9999 0.999972Z" fill="#F26F37"/>
<path fill-rule="evenodd" clip-rule="evenodd" d="M21.669 10H14.3311C11.9429 10 10 11.943 10 14.3312V21.6691C10 24.0572 11.9429 26 14.3311 26H21.6692C24.0572 26 26.0001 24.0572 26.0001 21.6691V14.3312C26.0001 11.943 24.0572 10 21.669 10ZM18.0001 22.3748C15.5877 22.3748 13.6251 20.4122 13.6251 18.0001C13.6251 15.5877 15.5877 13.6251 18.0001 13.6251C20.4124 13.6251 22.3749 15.5877 22.3749 18.0001C22.3749 20.4122 20.4124 22.3748 18.0001 22.3748ZM22.4796 14.6568C21.7667 14.6568 21.1868 14.077 21.1868 13.3643C21.1868 12.6513 21.7667 12.0714 22.4796 12.0714C23.1925 12.0714 23.7724 12.6513 23.7724 13.3643C23.7724 14.077 23.1925 14.6568 22.4796 14.6568ZM18.0001 14.5631C16.1051 14.5631 14.5631 16.1049 14.5631 18.0001C14.5631 19.895 16.1051 21.4367 18.0001 21.4367C19.8952 21.4367 21.437 19.895 21.437 18.0001C21.437 16.1049 19.8952 14.5631 18.0001 14.5631ZM22.1248 13.3643C22.1248 13.1687 22.2841 13.0094 22.4796 13.0094C22.6752 13.0094 22.8344 13.1684 22.8344 13.3643C22.8344 13.56 22.6752 13.7189 22.4796 13.7189C22.2841 13.7189 22.1248 13.5598 22.1248 13.3643Z" fill="white"/>
</svg>
