<svg width="60" height="60" viewBox="0 0 60 60" fill="none" xmlns="http://www.w3.org/2000/svg">
<circle opacity="0.1" cx="30" cy="30" r="30" fill="#0A8FDC"/>
<path d="M19 17V43H35V41H21V19H31V25H37V27H39V23.5938L32.4062 17H19ZM33 20.4062L35.5938 23H33V20.4062ZM23 27V29H35V27H23ZM40 29V31C39.1458 31.1458 38.4271 31.5417 37.8438 32.1875C37.2812 32.8333 37 33.6042 37 34.5C37 35.5 37.3333 36.3333 38 37C38.6667 37.6667 39.5 38 40.5 38H41.5C41.8958 38 42.2396 38.1562 42.5312 38.4688C42.8438 38.7604 43 39.1042 43 39.5C43 39.8958 42.8438 40.25 42.5312 40.5625C42.2396 40.8542 41.8958 41 41.5 41H38V43H40V45H42V43C42.8542 42.8542 43.5625 42.4583 44.125 41.8125C44.7083 41.1667 45 40.3958 45 39.5C45 38.5 44.6667 37.6667 44 37C43.3333 36.3333 42.5 36 41.5 36H40.5C40.1042 36 39.75 35.8542 39.4375 35.5625C39.1458 35.25 39 34.8958 39 34.5C39 34.1042 39.1458 33.7604 39.4375 33.4688C39.75 33.1562 40.1042 33 40.5 33H44V31H42V29H40ZM23 32V34H30V32H23ZM32 32V34H35V32H32ZM23 36V38H30V36H23ZM32 36V38H35V36H32Z" fill="#0A8FDC"/>
</svg>
