<svg width="36" height="37" viewBox="0 0 36 37" fill="none" xmlns="http://www.w3.org/2000/svg">
<path fill-rule="evenodd" clip-rule="evenodd" d="M17.9999 1.5937C27.3888 1.5937 34.9999 9.20486 34.9999 18.5938C34.9999 27.9825 27.3888 35.5937 17.9999 35.5937C8.61109 35.5937 0.999972 27.9825 0.999972 18.5938C0.999972 9.20486 8.61109 1.5937 17.9999 1.5937Z" fill="#0277BD"/>
<path fill-rule="evenodd" clip-rule="evenodd" d="M11 13.8013C11 12.807 11.8068 12 12.8012 12C13.795 12 14.6018 12.807 14.6025 13.8013C14.6025 14.7955 13.7957 15.6194 12.8012 15.6194C11.8068 15.6194 11 14.7955 11 13.8013ZM25.9962 27V26.9993H26V21.4982C26 18.8069 25.4206 16.7338 22.2744 16.7338C20.7618 16.7338 19.7468 17.5637 19.3324 18.3506H19.2887V16.9849H16.3056V26.9993H19.4119V22.0405C19.4119 20.735 19.6593 19.4726 21.2762 19.4726C22.8693 19.4726 22.8931 20.9626 22.8931 22.1245V27H25.9962ZM11.2475 16.9855H14.3575V27H11.2475V16.9855Z" fill="white"/>
</svg>
