<svg width="35" height="34" viewBox="0 0 35 34" fill="none" xmlns="http://www.w3.org/2000/svg">
<path fill-rule="evenodd" clip-rule="evenodd" d="M14.7799 23.814C14.99 23.814 15.1779 23.8004 15.3596 23.7837C15.5 23.7706 15.6281 23.7512 15.7524 23.7302C15.7704 23.7272 15.7887 23.7243 15.807 23.7215C15.8408 23.7162 15.8746 23.7109 15.906 23.7046C16.0303 23.6796 16.1444 23.6508 16.2518 23.6199L16.2864 23.6101C16.3112 23.6031 16.3358 23.5961 16.3591 23.5887C16.4643 23.5553 16.5612 23.5201 16.6499 23.4832L16.6511 23.4827C16.6763 23.4722 16.7013 23.4617 16.7251 23.451C16.8108 23.4128 16.8903 23.3742 16.9598 23.3356C16.9772 23.3258 16.9936 23.3163 17.01 23.3065C17.0769 23.2675 17.1387 23.2289 17.1899 23.1928C17.1968 23.1879 17.203 23.1832 17.2091 23.1785L17.2092 23.1785L17.2198 23.1706C17.269 23.1344 17.3142 23.0993 17.3483 23.0696L17.3589 23.0597C17.4004 23.0237 17.4392 22.9847 17.4748 22.9429C17.5128 22.9015 17.5562 22.8656 17.604 22.836C17.6253 22.8157 17.648 22.7969 17.672 22.7797C17.7422 22.7439 17.8186 22.7222 17.897 22.7156C17.9007 22.7153 17.904 22.7139 17.9074 22.7126C17.9102 22.7115 17.913 22.7104 17.9159 22.7099C17.9167 22.7097 17.9175 22.7096 17.9183 22.7096H17.9184L17.9195 22.7093L17.9209 22.7095C17.9328 22.7088 17.9446 22.7084 17.9568 22.7084L18.1796 22.7503C18.2574 22.7786 18.3281 22.8233 18.3872 22.8812C19.2769 23.7705 19.715 24.0818 21.1363 24.0818C21.2942 24.0817 21.452 24.0719 21.6087 24.0522C21.6202 24.0508 21.6307 24.0482 21.6421 24.0468C21.7906 24.0271 21.9377 23.9988 22.0828 23.962L22.1063 23.9556C22.642 23.8152 23.1368 23.5496 23.5499 23.1809L23.5556 23.1758C23.8364 22.9255 24.0791 22.6355 24.2761 22.315L24.2798 22.3091C24.3216 22.2401 24.3528 22.1834 24.3742 22.1424L24.3823 22.1263C24.3949 22.1016 24.4036 22.0836 24.4058 22.0786L24.4089 22.0722C24.4289 22.0264 24.4545 21.9833 24.4851 21.9437C24.4915 21.9355 24.499 21.9284 24.5065 21.9214C24.5117 21.9166 24.5169 21.9117 24.5216 21.9065C24.5595 21.8574 24.6086 21.8181 24.6649 21.792C24.6712 21.7884 24.6772 21.7843 24.6832 21.7803C24.6923 21.7741 24.7015 21.7679 24.7116 21.7633C24.7567 21.7424 24.8043 21.7272 24.8533 21.7179C24.8735 21.7157 24.8938 21.7145 24.9141 21.7143C25.092 21.6956 25.2688 21.7586 25.3949 21.8855C26.5081 22.9984 27.1594 23.0478 28.4122 23.0478C29.5968 23.0983 30.6335 22.2586 30.8302 21.0895C30.8302 20.3057 30.437 20.1195 30.4332 20.1183C30.1536 20.0206 29.9853 19.7355 30.0347 19.4435C30.0842 19.1515 30.3372 18.9378 30.6333 18.9378C30.7659 18.9358 30.898 18.9191 31.027 18.8878C31.0508 18.8825 31.0745 18.8756 31.0982 18.8688L31.1239 18.8615C31.2417 18.8285 31.3566 18.7859 31.4675 18.7342C32.8458 18.0911 34.0105 16.0146 34.0105 14.3928C34.0105 12.6923 32.2674 12.0514 32.1933 12.025C31.9969 11.9553 31.8498 11.7899 31.8036 11.5867C31.7574 11.3835 31.8184 11.1708 31.9653 11.023C32.4392 10.4276 32.6576 9.66847 32.5725 8.91223C32.5725 7.26337 30.5456 6.4896 30.5252 6.4819C30.2871 6.39332 30.129 6.16641 30.1282 5.9124C30.1282 4.66702 29.5783 2.31166 27.4974 2.31166C27.1392 2.27587 26.782 2.3875 26.5079 2.62085C26.339 2.8123 26.0703 2.88116 25.8302 2.79457C25.5937 2.70997 25.4345 2.48751 25.4309 2.23636C25.4309 1.57469 24.1665 0.392726 21.6472 0.392726C20.7838 0.349429 19.943 0.676413 19.3357 1.2916C19.2064 1.44838 19.0074 1.53046 18.8051 1.51054C18.6029 1.49062 18.4238 1.37129 18.3275 1.19232C18.3037 1.15108 17.6246 0 15.4094 0C14.2321 0 12.99 1.22081 12.6106 1.6913C12.4206 1.92598 12.0875 1.98621 11.8274 1.83301C11.1423 1.44254 10.377 1.21377 9.59003 1.16423C8.22385 1.08474 7.03007 2.07831 6.86027 3.43625C6.85297 3.90123 6.94979 4.36189 7.14369 4.78456C7.24489 4.97282 7.24005 5.2004 7.13094 5.38421C7.02184 5.56802 6.82441 5.68124 6.61065 5.68257C4.92739 5.68257 3.83136 6.02762 3.05733 6.80138C0.943618 8.91569 2.15135 10.4416 2.20381 10.5056C2.35269 10.6871 2.38364 10.9381 2.2833 11.1503C2.18296 11.3624 1.96926 11.4978 1.73452 11.4978C0.688884 11.4978 0.375248 11.8586 0.230284 12.1299C0.0454092 12.6045 -0.0297625 13.1148 0.0106124 13.6226C-0.0879343 14.6415 0.539471 15.5906 1.51564 15.899C2.41903 16.0153 3.32667 15.7177 3.98582 15.0891C4.22289 14.8521 4.60724 14.8521 4.84438 15.0891C5.08152 15.3262 5.08145 15.7106 4.84438 15.9477C4.0487 16.7237 2.97658 17.1504 1.86527 17.1338C1.71074 17.1338 1.58444 17.1257 1.48655 17.1168C1.33707 17.2505 1.25314 17.4426 1.25659 17.6432C1.25659 20.1076 4.07679 20.2484 4.19685 20.2535C5.10449 20.3004 6.01087 20.1395 6.84686 19.783C7.01978 19.6868 7.22856 19.6803 7.40713 19.7655C7.58569 19.8508 7.71186 20.0173 7.74573 20.2122C7.77568 20.3886 8.08221 21.9376 9.5719 21.9376C10.3817 21.9539 11.1825 21.7653 11.9001 21.3896C11.8703 20.2078 12.4657 19.0978 13.4667 18.4689C13.5369 18.105 13.6515 17.7512 13.8078 17.4153C12.2716 16.6435 11.3414 15.0323 11.441 13.3161C11.441 12.9808 11.7128 12.7089 12.0482 12.7089C12.3835 12.7089 12.6553 12.9807 12.6553 13.3161C12.6553 15.3139 13.8131 16.0881 14.4245 16.3578C15.0407 15.3881 16.0839 14.7719 17.2306 14.7003C17.5888 14.7019 17.9462 14.7358 18.2985 14.8015C18.713 13.5984 19.9529 11.5985 22.094 11.5985C22.2288 11.5985 22.3542 11.6061 22.4783 11.6146L22.4832 11.6136C22.9738 11.6136 24.1288 10.4811 24.1288 9.4486C24.1288 9.11331 24.4006 8.84144 24.7359 8.84144C25.0713 8.84144 25.3431 9.11325 25.3431 9.4486C25.2762 10.4448 24.8267 11.3766 24.0886 12.049C24.6667 12.3443 25.1086 12.8513 25.322 13.4644C25.4094 13.7861 25.221 14.1181 24.8999 14.2081C24.5788 14.2981 24.2453 14.1123 24.1528 13.792C24.1332 13.733 23.8006 12.8127 22.094 12.8127C20.6246 12.8127 19.7514 14.3535 19.461 15.1366C19.8556 15.2942 20.2238 15.5113 20.5527 15.7803C20.7992 16.0069 20.8158 16.3904 20.5897 16.6373C20.3636 16.8843 19.9801 16.9016 19.7327 16.6759C19.0116 16.1409 18.1275 15.8719 17.2306 15.9146C16.1223 15.9146 15.2519 17.104 14.8629 18.0213C15.1019 17.9877 15.3428 17.97 15.5841 17.9682C15.9194 17.9682 16.1913 18.24 16.1913 18.5753C16.1913 18.9106 15.9195 19.1825 15.5841 19.1825C13.8587 19.1825 13.0894 19.9716 13.0894 21.7409L13.088 21.7482C13.088 21.7517 13.0893 21.7549 13.0892 21.7584C13.0836 22.354 13.2825 22.9334 13.6528 23.3999C13.9539 23.6895 14.3628 23.8399 14.7799 23.814ZM25.6631 17.0248C25.8494 15.9183 26.4974 14.9433 27.4453 14.3431C26.9398 13.6814 26.663 12.8734 26.6565 12.0408C26.6351 11.0365 27.0572 10.0737 27.8105 9.40902C27.4847 9.05262 27.2815 8.60132 27.2307 8.12114C27.2238 7.78592 27.4896 7.50841 27.8248 7.50097C28.1524 7.50077 28.4237 7.75537 28.4444 8.08229C28.4503 8.15228 28.5819 9.26246 30.8632 9.26246C31.1984 9.26246 31.4703 9.53426 31.4703 9.86961C31.4703 10.2049 31.1985 10.4768 30.8632 10.4768C30.1759 10.4951 29.4917 10.3771 28.8502 10.1295C28.2211 10.5596 27.8525 11.2789 27.8707 12.0408C27.8839 12.6945 28.1313 13.3217 28.568 13.8084C29.3103 13.5754 30.0851 13.4628 30.8632 13.4748C31.1984 13.4748 31.4703 13.7466 31.4703 14.0819C31.4703 14.4172 31.1985 14.6891 30.8632 14.6891C27.1343 14.6891 26.8746 17.1085 26.8726 17.1328C26.8446 17.4457 26.5826 17.6857 26.2684 17.6859C26.2503 17.6859 26.2322 17.6851 26.2139 17.6836C25.8799 17.6537 25.6333 17.3588 25.6631 17.0248ZM16.2478 12.6019C16.1467 12.7272 15.9999 12.8071 15.8398 12.8241C15.6797 12.8413 15.5193 12.7941 15.394 12.693C15.2687 12.5919 15.1888 12.445 15.1719 12.2849C15.0112 10.7007 13.6388 9.51932 12.0484 9.59602C11.3125 9.53413 10.5914 9.82804 10.1084 10.3866C9.21663 11.5078 9.45888 13.6465 9.62722 14.3761C9.67616 14.5874 9.60862 14.8088 9.44998 14.9569C9.2914 15.1049 9.06582 15.157 8.85837 15.0936C8.65091 15.0302 8.49306 14.8608 8.44432 14.6495C8.26582 13.7934 8.2133 12.9159 8.28833 12.0447C7.36841 12.018 6.35399 11.799 4.85394 10.2989C4.70061 10.1456 4.64071 9.922 4.69683 9.71256C4.75294 9.50311 4.91663 9.33942 5.12608 9.28331C5.33559 9.2272 5.55911 9.2871 5.71244 9.44043C7.00344 10.7314 7.69108 10.8318 8.53298 10.8331C8.66758 10.3981 8.87935 9.9908 9.15812 9.63075C9.61035 9.0651 10.2417 8.67032 10.9482 8.51134C10.3716 7.30308 10.219 5.93578 10.5147 4.6301C10.5669 4.41946 10.7275 4.25278 10.936 4.19275C11.1445 4.13272 11.3692 4.18863 11.5254 4.33924C11.6815 4.48992 11.7454 4.71244 11.6928 4.92295C11.688 4.94374 11.1965 7.05293 12.3341 8.39606C14.4323 8.46313 16.1592 10.0684 16.3789 12.1562C16.3961 12.3163 16.349 12.4766 16.2478 12.6019ZM23.2812 8.15368C22.1783 8.17008 21.0988 7.83592 20.1982 7.19929C19.8668 7.60622 19.6571 8.09856 19.5932 8.61945C19.5326 9.13941 19.714 9.65844 20.0854 10.0273C20.2387 10.1807 20.2986 10.4042 20.2425 10.6137C20.1864 10.8232 20.0228 10.9868 19.8132 11.0429C19.6037 11.0991 19.3802 11.0392 19.2269 10.8858C18.6007 10.2615 18.2908 9.38724 18.3841 8.50795C18.4774 7.70311 18.8101 6.94482 19.3392 6.33123C18.7494 5.47426 18.4507 4.45034 18.4873 3.41068C18.4873 3.0754 18.7591 2.80353 19.0944 2.80353C19.4298 2.80353 19.7016 3.07533 19.7016 3.41068C19.6466 4.32576 19.9572 5.22523 20.565 5.91147L20.5705 5.91513C20.5721 5.91677 20.5731 5.9187 20.5742 5.92063C20.5751 5.92252 20.5761 5.92441 20.5777 5.92602C21.3132 6.6019 22.2828 6.96527 23.2813 6.93937C23.6166 6.93937 23.8885 7.21117 23.8885 7.54652C23.8885 7.88188 23.6165 8.15368 23.2812 8.15368ZM19.7337 19.6245C20.2917 19.1708 20.9638 18.8795 21.6764 18.7823C21.8823 17.1028 22.993 16.6338 23.6096 16.6338C23.9421 16.6339 24.2127 16.9014 24.2165 17.2339C24.2203 17.5664 23.956 17.8401 23.6236 17.8478C23.5477 17.8531 23.0476 17.9293 22.8989 18.8113C23.6318 18.968 24.2998 19.3438 24.8141 19.8889C24.9554 20.0535 24.9981 20.281 24.9263 20.4856C24.8543 20.6903 24.6788 20.841 24.4656 20.8811C24.2524 20.9211 24.034 20.8444 23.8928 20.6799C23.4593 20.2335 22.8691 19.9733 22.2472 19.9544C21.6312 19.9477 21.0311 20.1501 20.5449 20.5284C20.295 20.7491 19.9138 20.7269 19.6911 20.4787C19.4683 20.2305 19.4874 19.8492 19.7337 19.6245ZM23.7572 29.3432C23.5387 28.1468 23.1263 26.994 22.5364 25.9305C22.5276 25.9159 22.5189 25.9012 22.5103 25.8864C22.5059 25.879 22.5015 25.8715 22.4971 25.8641L22.4971 25.864C22.4666 25.8121 22.4361 25.7601 22.4035 25.7109C22.3749 25.6674 22.345 25.627 22.3152 25.5867C22.3011 25.5677 22.287 25.5486 22.273 25.5292C22.2098 25.4417 22.1464 25.3545 22.079 25.2733C22.0699 25.2623 22.0606 25.2521 22.0512 25.2419C22.0436 25.2336 22.036 25.2254 22.0285 25.2167C22.0238 25.2175 22.019 25.2181 22.0142 25.2186C22.0117 25.2189 22.0092 25.2192 22.0067 25.2195C22.0049 25.2198 22.0032 25.22 22.0015 25.2203C21.9269 25.2327 21.8501 25.242 21.7727 25.2513C21.5618 25.2798 21.3493 25.2949 21.1364 25.2964C20.9328 25.2964 20.7426 25.2896 20.5641 25.2766C20.5566 25.2761 20.5498 25.2752 20.5431 25.2742C20.5366 25.2733 20.5301 25.2725 20.5231 25.2719C20.3608 25.2589 20.2059 25.242 20.0619 25.2184L20.0513 25.2161C19.255 25.0914 18.5189 24.7167 17.9496 24.1461C17.2792 24.6114 16.4999 24.8952 15.6874 24.9699C15.6757 24.9714 15.6653 24.9736 15.6535 24.975C14.9623 25.6531 14.5936 26.5941 14.6402 27.5613C14.6402 29.0474 15.5171 29.7901 16.5328 30.6494L16.5342 30.6507C17.4974 31.4662 18.5751 32.3789 18.7926 34H24.2634C24.2308 32.4384 24.0622 30.8826 23.7598 29.3501L23.7572 29.3432ZM31.881 20.1106C31.8797 20.1052 31.8786 20.0997 31.8768 20.095C32.1065 20.2956 32.3019 20.5324 32.4552 20.7961C33.5912 22.7637 32.1864 25.709 29.3235 27.3617C27.9473 28.1202 26.4143 28.5499 24.8444 28.6172C24.5643 27.2677 24.0315 25.9833 23.2741 24.8318L23.268 24.8221C24.0007 24.4622 24.6324 23.9257 25.1061 23.2609C25.2411 23.3702 25.373 23.4659 25.5032 23.5529C25.5098 23.5572 25.5167 23.5632 25.5232 23.5675C25.6461 23.6484 25.773 23.7227 25.9034 23.7905C25.9077 23.7927 25.912 23.7954 25.9163 23.7981C25.9207 23.8009 25.9252 23.8036 25.9296 23.8059C26.0458 23.8648 26.1651 23.9177 26.2868 23.9643C26.2935 23.9669 26.3002 23.9701 26.3069 23.9733C26.3142 23.9767 26.3214 23.9801 26.3285 23.9828C26.4578 24.0314 26.5898 24.0727 26.7237 24.1068L26.7257 24.1073C26.8565 24.1407 26.988 24.1667 27.1211 24.1874L27.1271 24.1886C27.5531 24.2459 27.9828 24.2705 28.4125 24.2623C30.2642 24.3107 31.8437 22.931 32.0447 21.0896C32.044 20.9262 32.0304 20.7631 32.0039 20.6018C32.0024 20.5925 32.001 20.5832 31.9997 20.5739C31.9966 20.5535 31.9936 20.5331 31.9899 20.5133C31.965 20.3796 31.9294 20.2481 31.8836 20.12C31.8826 20.1171 31.8817 20.1139 31.881 20.1106Z" fill="white"/>
</svg>
