<svg width="60" height="60" viewBox="0 0 60 60" fill="none" xmlns="http://www.w3.org/2000/svg">
<circle opacity="0.1" cx="30" cy="30" r="30" fill="#0A8FDC"/>
<path d="M20 17V43H40V23.5938L39.7188 23.2812L33.7188 17.2812L33.4062 17H20ZM22 19H32V25H38V41H22V19ZM34 20.4375L36.5625 23H34V20.4375ZM35.0938 28C34.8229 28 34.5833 28.1042 34.375 28.3125C34.1875 28.5 34.0938 28.7292 34.0938 29C34.0938 29.2708 34.1875 29.5104 34.375 29.7188C34.5833 29.9062 34.8229 30 35.0938 30C35.3646 30 35.5938 29.9062 35.7812 29.7188C35.9896 29.5104 36.0938 29.2708 36.0938 29C36.0938 28.7292 35.9896 28.5 35.7812 28.3125C35.5938 28.1042 35.3646 28 35.0938 28ZM28 29.5938L27.2812 30.2812L23.2812 34.2812L24.7188 35.7188L28 32.4375L30.2812 34.7188L31 35.4062L31.7188 34.7188L33 33.4375L35.2812 35.7188L36.7188 34.2812L33.7188 31.2812L33 30.5938L32.2812 31.2812L31 32.5625L28.7188 30.2812L28 29.5938Z" fill="#0A8FDC"/>
</svg>
