<svg width="33" height="33" viewBox="0 0 33 33" fill="none" xmlns="http://www.w3.org/2000/svg">
<path fill-rule="evenodd" clip-rule="evenodd" d="M17.0899 5.48064C17.0892 5.5799 17.0892 5.674 17.0892 5.76359L17.0873 5.89379C17.0873 6.26892 17.0828 6.62472 17.075 6.96955C17.0744 6.98889 17.0741 7.00871 17.0738 7.02853C17.0734 7.04835 17.0731 7.06817 17.0725 7.08751C17.0641 7.41107 17.0525 7.71981 17.0389 8.01889C17.0377 8.0437 17.0365 8.06884 17.0354 8.09397C17.0343 8.11911 17.0331 8.14425 17.0319 8.16907C17.0177 8.45718 17.0009 8.73434 16.9816 9.00118C16.9784 9.0521 16.9745 9.10238 16.9706 9.15201C16.9506 9.41434 16.9294 9.66894 16.9055 9.91323C16.9022 9.94934 16.8985 9.98451 16.8947 10.0203L16.8926 10.0396C16.8681 10.2858 16.8424 10.5256 16.8146 10.7557C16.813 10.7692 16.8113 10.7824 16.8095 10.7957C16.8077 10.8089 16.8059 10.8221 16.8043 10.8356C16.7779 11.0502 16.7508 11.2584 16.7225 11.4608C16.72 11.4779 16.7177 11.4953 16.7154 11.5127C16.7129 11.5319 16.7104 11.5511 16.7076 11.5697C16.6786 11.7734 16.649 11.9706 16.6187 12.164C16.6125 12.2011 16.6067 12.2389 16.601 12.276C16.5989 12.2893 16.5969 12.3024 16.5948 12.3155C16.5665 12.4927 16.5381 12.6668 16.5098 12.8369L16.4969 12.9149L16.484 12.8369C16.46 12.6931 16.4365 12.5464 16.4127 12.3978C16.4083 12.3707 16.4039 12.3434 16.3995 12.3161C16.3954 12.2903 16.3913 12.2644 16.3873 12.2385C16.3833 12.2125 16.3792 12.1866 16.3751 12.1608C16.3454 11.9681 16.3158 11.7721 16.2868 11.5691C16.2842 11.551 16.2818 11.5328 16.2793 11.5146C16.2769 11.4964 16.2745 11.4782 16.2719 11.4602C16.2442 11.2578 16.2165 11.0496 16.1901 10.8349C16.1862 10.8079 16.183 10.7821 16.1798 10.755C16.1527 10.5249 16.1263 10.2851 16.1018 10.0389C16.1011 10.0325 16.1004 10.0261 16.0997 10.0197C16.0959 9.98388 16.0922 9.9487 16.0889 9.91258C16.065 9.6683 16.0438 9.4137 16.0238 9.15137C16.0209 9.10724 16.0176 9.06361 16.0142 9.01917L16.0128 9.00054C15.9935 8.73434 15.9767 8.45718 15.9625 8.17036C15.9612 8.14435 15.9601 8.11817 15.9589 8.09192C15.9578 8.06676 15.9567 8.04154 15.9555 8.01631C15.9419 7.71788 15.9303 7.40978 15.9226 7.08686C15.9213 7.04994 15.9207 7.01127 15.9201 6.97419L15.92 6.96891C15.9129 6.62407 15.9078 6.26828 15.9078 5.89315V5.76424C15.9078 5.674 15.9078 5.5799 15.9071 5.48128C15.9071 5.45826 15.9064 5.43478 15.9057 5.41112C15.9053 5.39503 15.9048 5.37886 15.9045 5.36268C15.9032 5.28598 15.9013 5.20928 15.8974 5.12935C15.8963 5.10443 15.8945 5.07929 15.8927 5.05393C15.8914 5.036 15.8901 5.01795 15.8891 4.9998C15.8839 4.91794 15.8775 4.83544 15.8684 4.75036C15.8642 4.70793 15.8588 4.6655 15.8534 4.62254L15.8523 4.61436C15.842 4.53056 15.8278 4.44613 15.8124 4.36105C15.8033 4.31077 15.7943 4.26179 15.7834 4.21151C15.766 4.13223 15.7447 4.05424 15.7221 3.97496C15.7184 3.96184 15.7147 3.94875 15.7111 3.93568C15.6989 3.89226 15.6869 3.84904 15.6725 3.80544C15.655 3.75334 15.6335 3.70168 15.612 3.65009C15.6074 3.63914 15.6029 3.62818 15.5984 3.61723C15.5242 3.42773 15.4308 3.24661 15.3199 3.0771V0.589122C15.3199 0.263622 15.5835 0 15.909 0H17.0879C17.4128 0 17.6764 0.263622 17.6771 0.589122V3.07645C17.5655 3.24661 17.4727 3.42773 17.3986 3.61659C17.3916 3.63394 17.3845 3.6513 17.3773 3.66866C17.3586 3.71387 17.3399 3.75916 17.3245 3.8048C17.3101 3.84842 17.298 3.89165 17.2859 3.93509C17.2822 3.94814 17.2786 3.96121 17.2749 3.97431L17.2704 3.99045C17.25 4.06419 17.2298 4.13697 17.2136 4.21087C17.2027 4.26114 17.1936 4.31077 17.1846 4.3604C17.1691 4.44548 17.1556 4.52992 17.1447 4.61371L17.1436 4.62206C17.1382 4.66496 17.1328 4.70734 17.1285 4.74971C17.1202 4.83415 17.1131 4.91665 17.1079 4.99915L17.1076 5.00399C17.1045 5.04616 17.1014 5.08773 17.0995 5.12871C17.0963 5.20863 17.0937 5.28598 17.0924 5.36204C17.0921 5.38249 17.0916 5.40294 17.0911 5.42321C17.0907 5.44256 17.0902 5.46175 17.0899 5.48064ZM25.2517 31.0739C25.3664 30.9995 25.4782 30.9187 25.5901 30.8379C25.6285 30.8101 25.6669 30.7824 25.7055 30.7548C25.746 30.7259 25.7866 30.6973 25.8273 30.6688L25.8273 30.6688C25.9252 30.6 26.023 30.5313 26.1187 30.4571C26.2346 30.3671 26.3471 30.2713 26.4597 30.1754L26.4597 30.1754C26.4923 30.1476 26.5249 30.1199 26.5576 30.0922C26.5967 30.0594 26.636 30.0268 26.6753 29.9943L26.6757 29.994C26.7673 29.9181 26.859 29.8422 26.9482 29.7616C27.0615 29.6594 27.1709 29.5512 27.2803 29.443L27.2811 29.4422C27.3115 29.4122 27.3419 29.3822 27.3723 29.3523C27.4092 29.3164 27.4463 29.2809 27.4834 29.2454L27.4836 29.2451L27.4836 29.2451C27.569 29.1633 27.6543 29.0816 27.7365 28.9959C27.8472 28.8805 27.954 28.7599 28.0608 28.6391L28.1451 28.544C28.1846 28.4998 28.2245 28.4561 28.2644 28.4124C28.3377 28.332 28.411 28.2518 28.4816 28.1683C28.5822 28.0488 28.6789 27.9251 28.7754 27.8017C28.808 27.7598 28.8407 27.718 28.8735 27.6765C28.9104 27.6295 28.9478 27.5832 28.9851 27.5369L28.9852 27.5368C29.0514 27.4547 29.1175 27.3727 29.1809 27.2878C29.2815 27.1528 29.3775 27.0136 29.4733 26.8747L29.4734 26.8746L29.4737 26.8741C29.5018 26.8334 29.5298 26.7927 29.558 26.7522C29.5891 26.7076 29.6207 26.6633 29.6523 26.619C29.7129 26.534 29.7734 26.4491 29.8306 26.3622C29.9286 26.2138 30.021 26.0622 30.1135 25.9105L30.1135 25.9104L30.1903 25.7847C30.2201 25.7362 30.2506 25.6881 30.281 25.64C30.3315 25.5602 30.382 25.4805 30.4294 25.3993C30.5413 25.2073 30.6456 25.0119 30.75 24.8165L30.75 24.8164L30.7923 24.7373C30.8172 24.6907 30.8432 24.6444 30.8692 24.5981L30.8692 24.598L30.8692 24.598C30.9044 24.5353 30.9395 24.4726 30.9721 24.4092C31.1429 24.076 31.3041 23.7408 31.4549 23.4031C31.4872 23.3307 31.5167 23.2578 31.5462 23.1849C31.5656 23.1371 31.5849 23.0892 31.6051 23.0415L31.6573 22.9187C31.7332 22.7404 31.8091 22.5621 31.8777 22.3834C31.9155 22.285 31.949 22.1869 31.9825 22.0888L31.9825 22.0887C32.001 22.0345 32.0196 21.9801 32.0389 21.9258C32.0551 21.8802 32.0715 21.8347 32.0879 21.7892L32.088 21.7889L32.088 21.7888C32.1394 21.6463 32.1907 21.5038 32.2361 21.3618C32.2705 21.2544 32.3001 21.1475 32.3298 21.0405C32.3442 20.9889 32.3585 20.9372 32.3734 20.8854C32.3783 20.8685 32.3832 20.8516 32.3882 20.8347C32.3974 20.8035 32.4066 20.7722 32.4158 20.7409C32.4549 20.6089 32.4939 20.4767 32.5274 20.346C32.5554 20.2373 32.5783 20.1295 32.6012 20.0218L32.6012 20.0216C32.6121 19.9703 32.623 19.919 32.6344 19.8677C32.6404 19.8407 32.6465 19.8137 32.6527 19.7867C32.6573 19.7665 32.6619 19.7463 32.6666 19.726C32.6936 19.6079 32.7206 19.4898 32.7427 19.3733C32.6634 17.6607 32.3644 15.9662 31.8526 14.3303C31.5754 13.6619 31.2551 13.0129 30.8929 12.387C30.8342 12.2807 30.7762 12.1769 30.7195 12.0757L29.5277 9.69343C28.3649 7.70369 26.8161 5.96662 24.9713 4.58534C23.8775 3.70746 22.5614 3.15057 21.1691 2.97654C20.9887 2.95785 20.8069 2.94818 20.6258 2.94753C19.9806 2.89017 19.3386 3.09062 18.841 3.50572C18.7959 3.55406 18.754 3.60498 18.7166 3.65912C18.6702 3.71971 18.6283 3.78416 18.5909 3.85055C18.5819 3.86602 18.5735 3.88213 18.5658 3.8976C18.5297 3.96722 18.4975 4.03876 18.4697 4.1116L18.4644 4.12645C18.4608 4.13632 18.4573 4.1462 18.4543 4.15607C18.4272 4.23277 18.4033 4.31012 18.3834 4.39004L18.375 4.42807C18.3557 4.51057 18.3395 4.59372 18.3266 4.67751L18.3221 4.7091C18.3099 4.79482 18.2996 4.88119 18.2925 4.96692L18.2906 4.9927C18.2835 5.07971 18.2783 5.16608 18.2751 5.25117L18.2744 5.2763C18.2686 5.45356 18.2686 5.62565 18.2693 5.78292V5.89314C18.2802 7.74494 18.1642 9.59545 17.9206 11.4318C18.7044 10.5049 19.4482 9.46654 19.4482 8.25027C19.4482 7.92477 19.7118 7.66115 20.0373 7.66115C20.3628 7.66115 20.6264 7.92477 20.6264 8.25027C20.6264 10.1307 19.3811 11.5579 18.3798 12.7056L18.3782 12.7074C18.0811 13.0477 17.7949 13.3783 17.5654 13.6909C17.2676 15.1992 17.1084 16.7313 17.0904 18.2686C17.0904 22.6238 17.6769 26.1302 18.8339 28.6897C18.9164 28.8721 19.0086 29.0487 19.1053 29.2227C19.1352 29.2764 19.1667 29.3283 19.1983 29.3803L19.2219 29.4193C19.2825 29.5205 19.345 29.6198 19.4108 29.7178C19.4656 29.799 19.5204 29.8795 19.5784 29.9582C19.6237 30.0208 19.6716 30.0813 19.7194 30.1416L19.7194 30.1416L19.7369 30.1638C20.0089 30.5086 20.3119 30.8283 20.6412 31.119C20.6512 31.1277 20.6609 31.1366 20.6706 31.1454C20.6767 31.1511 20.6828 31.1567 20.689 31.1622C20.6926 31.1655 20.6962 31.1687 20.6999 31.1719C20.8108 31.2673 20.9248 31.3581 21.0415 31.4471L21.0841 31.479L21.1453 31.5244C21.2607 31.6089 21.3773 31.692 21.4972 31.77C21.5175 31.7832 21.5383 31.7956 21.5591 31.808C21.572 31.8157 21.5849 31.8234 21.5978 31.8312C21.786 31.9498 21.9806 32.0588 22.1798 32.1606L22.2347 32.1886C22.3117 32.2278 22.3888 32.2671 22.4679 32.3031C22.4817 32.3093 22.4959 32.3151 22.5101 32.321L22.5105 32.3211C22.5227 32.3262 22.535 32.3312 22.5472 32.3366C22.6559 32.3048 22.7634 32.2676 22.871 32.2304L22.8712 32.2303L22.9481 32.2038C22.985 32.1911 23.022 32.1787 23.0589 32.1663L23.0592 32.1661L23.0593 32.1661C23.1802 32.1254 23.301 32.0847 23.4199 32.0369C23.5506 31.9837 23.6788 31.923 23.8073 31.8622L23.8074 31.8622L23.8988 31.819C23.9406 31.7994 23.9826 31.7802 24.0245 31.761C24.1343 31.7106 24.2441 31.6602 24.3519 31.6037C24.4778 31.5374 24.6016 31.4634 24.7253 31.3894L24.8199 31.333C24.8664 31.3051 24.9133 31.2777 24.9603 31.2502L24.9606 31.25L24.9607 31.25C25.058 31.1931 25.1558 31.136 25.2517 31.0739ZM0.833395 16.46C0.891404 16.5083 0.949414 16.556 1.00871 16.6024C1.05492 16.6378 1.10168 16.6715 1.149 16.7057L1.15954 16.7133C1.22077 16.7577 1.28329 16.8016 1.3471 16.8441C1.38934 16.8723 1.43241 16.8992 1.47565 16.9261L1.47569 16.9262L1.47574 16.9262L1.47579 16.9262L1.50631 16.9453C1.57205 16.9859 1.63909 17.0265 1.70741 17.0652C1.76284 17.0968 1.81892 17.1271 1.87564 17.1567C1.94589 17.1941 2.01744 17.2302 2.09027 17.265C2.14957 17.2934 2.21016 17.3211 2.27075 17.3488C2.34552 17.3823 2.42222 17.4145 2.50021 17.4461C2.56273 17.4719 2.62719 17.4964 2.69164 17.5203C2.77286 17.5505 2.85536 17.5795 2.93979 17.6073C3.00618 17.6298 3.07386 17.6517 3.14218 17.673C3.2292 17.7001 3.31879 17.7252 3.40903 17.7497L3.44299 17.759C3.50279 17.7754 3.56319 17.7919 3.62495 17.8071C3.71841 17.8303 3.81445 17.8522 3.91114 17.8741C3.98655 17.8909 4.06196 17.9076 4.13995 17.9237C4.2405 17.9437 4.34428 17.9624 4.44869 17.9811L4.50889 17.9918C4.5691 18.0026 4.62931 18.0133 4.69169 18.023C4.78352 18.0378 4.87812 18.0507 4.97355 18.0637L5.02492 18.0707L5.08462 18.079C5.14907 18.088 5.21368 18.097 5.28017 18.1049C5.37312 18.116 5.46887 18.126 5.56522 18.136L5.64305 18.1442L5.72873 18.1531C5.78796 18.1593 5.84725 18.1656 5.90861 18.1712C6.0129 18.1807 6.12102 18.1884 6.22952 18.1962H6.22955L6.30436 18.2015C6.34054 18.2041 6.37633 18.2068 6.41214 18.2095L6.41235 18.2096L6.41267 18.2096C6.46792 18.2138 6.52325 18.218 6.58023 18.2215C6.72074 18.2305 6.86758 18.2369 7.01385 18.2433L7.01788 18.2434L7.09233 18.2472L7.09259 18.2472L7.0928 18.2472C7.15964 18.2506 7.22597 18.254 7.29504 18.2563C7.45801 18.2627 7.62863 18.2666 7.79866 18.2705L7.80101 18.2705C7.83506 18.2713 7.86859 18.2722 7.90214 18.2732L7.90235 18.2732L7.9026 18.2732L7.90273 18.2732C7.95347 18.2747 8.00426 18.2762 8.0569 18.277C8.31795 18.2815 8.58737 18.284 8.86517 18.284C9.13331 18.284 9.39177 18.2782 9.64444 18.2699C9.69943 18.2677 9.75244 18.265 9.80554 18.2623L9.88743 18.2583C10.0537 18.2505 10.2187 18.2421 10.3779 18.2305C10.4695 18.2241 10.5584 18.2164 10.6474 18.2086C10.7911 18.1964 10.9323 18.1835 11.0702 18.1687C11.1578 18.1596 11.2442 18.1493 11.3293 18.139C11.4647 18.1229 11.5961 18.1049 11.7251 18.0862C11.803 18.0752 11.881 18.0636 11.9571 18.052C12.0918 18.0307 12.222 18.0082 12.3503 17.9843C12.3743 17.9799 12.3986 17.9756 12.4228 17.9713C12.4617 17.9645 12.5005 17.9577 12.5378 17.9502C12.7041 17.9173 12.8646 17.8838 13.0193 17.8483L13.0274 17.8465L13.0399 17.844C13.0508 17.8417 13.062 17.8395 13.0722 17.8367C13.243 17.7974 13.4054 17.7555 13.5614 17.7136C13.5903 17.706 13.6178 17.698 13.6451 17.6901C13.6665 17.6839 13.6878 17.6777 13.7096 17.6717C13.8121 17.6427 13.9133 17.6137 14.0093 17.5841C14.0648 17.5667 14.1176 17.5499 14.1711 17.5325C14.2556 17.5054 14.3387 17.4777 14.4174 17.4506C14.4544 17.438 14.4908 17.425 14.5268 17.4121L14.5669 17.3978C14.6417 17.3707 14.7145 17.3436 14.7841 17.3166L14.827 17.3C14.8572 17.2883 14.8871 17.2768 14.9156 17.265C14.9846 17.2373 15.0503 17.2096 15.1135 17.1825L15.1291 17.176C15.1597 17.1632 15.1912 17.1501 15.2198 17.1374C15.2933 17.1052 15.3616 17.0736 15.4267 17.0426C15.4378 17.0373 15.4503 17.0317 15.4622 17.0263L15.4815 17.0175C15.5608 16.9795 15.6323 16.9434 15.6987 16.9086C15.7258 16.8944 15.7484 16.8821 15.7728 16.8686L15.8103 16.8484L15.8586 16.8222C15.7774 15.7149 15.6117 14.7255 15.4357 13.6864C15.2069 13.3758 14.922 13.0464 14.6268 12.7074C13.6226 11.5594 12.3761 10.1317 12.3761 8.25028C12.3761 7.92479 12.6397 7.66116 12.9652 7.66116C13.2907 7.66116 13.5543 7.92479 13.5543 8.25028C13.5543 9.46591 14.2968 10.503 15.0806 11.4299C14.8382 9.59418 14.7222 7.74431 14.7332 5.89315V5.78294C14.7338 5.62309 14.7338 5.44777 14.7274 5.26729L14.7267 5.25247C14.7235 5.16674 14.7184 5.07908 14.7113 4.99142L14.7093 4.96693C14.7022 4.8812 14.6919 4.79483 14.6797 4.70911L14.6752 4.67753C14.6623 4.59373 14.6455 4.51059 14.6268 4.42808L14.6185 4.39006C14.5985 4.31013 14.5746 4.23214 14.5476 4.15608L14.5475 4.15602C14.5424 4.14121 14.5372 4.12641 14.5321 4.11225C14.5044 4.03877 14.4721 3.96723 14.436 3.89762L14.4235 3.87409L14.4109 3.85056C14.3735 3.78353 14.3316 3.71972 14.2852 3.65913C14.2472 3.60499 14.2053 3.55407 14.1608 3.50573C13.6632 3.09128 13.0212 2.89082 12.3761 2.94755C10.7885 3.00942 9.26351 3.58372 8.03048 4.586C6.18061 5.97179 4.62788 7.71466 3.46446 9.71213L2.29589 12.0512C1.86468 12.7854 1.48182 13.5472 1.14923 14.331C1.11249 14.4406 1.07381 14.5605 1.03321 14.6932L1.03127 14.6997C0.872068 15.225 0.743157 15.758 0.644541 16.2975L0.662776 16.3146C0.671906 16.3233 0.680988 16.3319 0.690304 16.3401C0.712833 16.3592 0.735658 16.3782 0.758565 16.3972L0.758801 16.3974L0.759062 16.3977L0.759366 16.3979C0.784037 16.4184 0.808801 16.439 0.833395 16.46ZM15.4827 18.3079C15.6155 18.2518 15.7399 18.1977 15.8546 18.1442C15.8714 18.1365 15.8927 18.1281 15.9081 18.1236C15.9084 18.1438 15.9089 18.1635 15.9093 18.1832C15.91 18.2124 15.9107 18.2414 15.9107 18.2718C15.9107 22.6271 15.3248 26.1334 14.1678 28.6929C14.0331 28.9888 13.8784 29.275 13.7044 29.5496C13.6983 29.5592 13.6926 29.5691 13.687 29.5789C13.6814 29.5887 13.6757 29.5985 13.6696 29.6082C13.5065 29.8596 13.328 30.0994 13.1346 30.3282C13.122 30.3433 13.1095 30.3586 13.097 30.374L13.0969 30.3741L13.0969 30.3741C13.0741 30.4021 13.0513 30.4301 13.0276 30.4571C12.8452 30.664 12.6506 30.8606 12.4449 31.0449C12.4272 31.0609 12.4097 31.0771 12.3922 31.0933C12.3569 31.1258 12.3217 31.1583 12.2851 31.1893C12.075 31.3672 11.8552 31.5341 11.627 31.6882L11.6055 31.7032L11.5838 31.7188L11.5837 31.7188C11.5638 31.7332 11.5438 31.7475 11.5232 31.761L11.5007 31.7559C11.4664 31.747 11.4297 31.7363 11.3935 31.7257L11.3934 31.7256L11.3933 31.7256L11.3932 31.7256L11.3756 31.7204C11.3228 31.7056 11.2706 31.6908 11.2151 31.6727C11.1694 31.6579 11.1217 31.6411 11.074 31.6244L11.0397 31.6124L11.0397 31.6123C10.9943 31.5965 10.9487 31.5805 10.9019 31.5625C10.8622 31.5476 10.8209 31.531 10.7796 31.5144L10.7485 31.5019L10.7483 31.5018C10.6878 31.4774 10.6272 31.4529 10.5648 31.4258C10.51 31.402 10.4539 31.3769 10.3978 31.3517C10.3347 31.3234 10.2709 31.2937 10.2058 31.2628C10.1465 31.2344 10.0872 31.2054 10.0272 31.1758C9.96083 31.1422 9.89315 31.1074 9.82483 31.072L9.79251 31.055L9.79236 31.0549C9.74174 31.0283 9.69069 31.0015 9.6392 30.9734C9.56959 30.9353 9.49804 30.8954 9.4265 30.8548L9.36699 30.821C9.32332 30.7962 9.27934 30.7713 9.23506 30.7452C9.16158 30.702 9.08682 30.6569 9.01205 30.6111L8.94449 30.57L8.94432 30.5699C8.90168 30.544 8.85885 30.518 8.81546 30.4906C8.7556 30.4531 8.69495 30.4135 8.63413 30.3739L8.63405 30.3738L8.58471 30.3417C8.55647 30.3231 8.52822 30.3047 8.49988 30.2862L8.49981 30.2861C8.46155 30.2612 8.42312 30.2361 8.38425 30.2102C8.30111 30.1541 8.21731 30.0955 8.13352 30.0368L8.06283 29.9876C8.02381 29.9606 7.98468 29.9335 7.94531 29.9053C7.84154 29.8306 7.73648 29.7519 7.63142 29.6733L7.57789 29.6336L7.57771 29.6335C7.54212 29.6072 7.50652 29.5809 7.47092 29.5534C7.33299 29.4477 7.19376 29.3381 7.0539 29.2247C7.01607 29.1941 6.97824 29.1623 6.94041 29.1304L6.94027 29.1303C6.91756 29.1112 6.89485 29.0921 6.87213 29.0732L6.80396 29.0163L6.80392 29.0163C6.73578 28.9595 6.66763 28.9027 6.59949 28.8438C6.55766 28.8076 6.51583 28.7701 6.47401 28.7327L6.47382 28.7325C6.44867 28.71 6.42353 28.6875 6.39839 28.6652L6.33731 28.6109C6.27367 28.5543 6.20983 28.4976 6.14637 28.439C6.09635 28.3931 6.04665 28.3459 5.99705 28.2988L5.99701 28.2988L5.93689 28.2418L5.89804 28.2048C5.83026 28.1404 5.76217 28.0756 5.69453 28.0091C5.64195 27.957 5.58936 27.9038 5.53677 27.8506L5.5365 27.8503L5.48376 27.797C5.40448 27.7171 5.32585 27.6372 5.24721 27.5547C5.17637 27.4812 5.10681 27.4059 5.03725 27.3305L5.03722 27.3305L5.03719 27.3305L5.03716 27.3304L5.03712 27.3304L5.03709 27.3304C4.95974 27.2466 4.8824 27.1615 4.80569 27.0758C4.73673 26.9978 4.66776 26.9191 4.59944 26.8399C4.52402 26.7516 4.44861 26.6626 4.37384 26.5724C4.30617 26.4905 4.23913 26.408 4.1721 26.3249C4.09862 26.2327 4.02579 26.1392 3.9536 26.0451L3.91028 25.9882L3.91022 25.9881C3.85941 25.9213 3.80846 25.8544 3.7583 25.7867C3.68611 25.69 3.61585 25.5914 3.54559 25.4921L3.51816 25.4534C3.46481 25.3781 3.41159 25.303 3.35932 25.2265C3.3016 25.1426 3.24559 25.0565 3.18955 24.9704L3.18951 24.9703L3.18944 24.9702L3.15113 24.9114L3.11146 24.8507C3.06652 24.7821 3.02156 24.7134 2.97774 24.6432C2.90813 24.5324 2.8411 24.4183 2.77406 24.3042C2.75546 24.2727 2.73671 24.2414 2.71796 24.2101C2.68342 24.1525 2.64892 24.0949 2.6155 24.036C2.55182 23.9242 2.49121 23.8103 2.43047 23.6961L2.43046 23.6961L2.43042 23.696L2.40796 23.6538C2.39152 23.6229 2.37482 23.5922 2.35811 23.5616L2.3581 23.5616L2.35809 23.5615L2.35808 23.5615L2.35807 23.5615C2.33024 23.5104 2.3024 23.4593 2.27582 23.407C2.17012 23.2001 2.06828 22.9893 1.97031 22.7753C1.96211 22.7571 1.95434 22.7387 1.9466 22.7204L1.94657 22.7204L1.94656 22.7204C1.93788 22.6998 1.92922 22.6794 1.92003 22.6593C1.83559 22.4711 1.75309 22.2809 1.67574 22.0869C1.6537 22.0324 1.63326 21.9768 1.61287 21.9214L1.61286 21.9214C1.60167 21.8909 1.59049 21.8605 1.57906 21.8304L1.57145 21.8103C1.51856 21.6707 1.46584 21.5316 1.41663 21.3895C1.3943 21.3251 1.37368 21.2595 1.35306 21.1939L1.35304 21.1939C1.34273 21.1611 1.33241 21.1283 1.32188 21.0956C1.27612 20.9544 1.23036 20.8126 1.18846 20.6689C1.1636 20.5837 1.1409 20.4972 1.11824 20.4109L1.10338 20.3544C1.06535 20.2126 1.02797 20.0714 0.994452 19.9277C0.968675 19.8181 0.945475 19.7073 0.922275 19.5964L0.922262 19.5964C0.891968 19.4533 0.862963 19.3089 0.836536 19.1632C0.815911 19.0498 0.797863 18.9357 0.779816 18.821C0.756612 18.674 0.735986 18.5258 0.71665 18.3762C0.702469 18.2602 0.689578 18.1435 0.677332 18.0262C0.67247 17.9809 0.668881 17.9352 0.665285 17.8895L0.665282 17.8894C0.663158 17.8624 0.661032 17.8354 0.65864 17.8084C0.663474 17.8116 0.668469 17.8147 0.673465 17.8177C0.67846 17.8208 0.683455 17.8238 0.688289 17.8271C0.708924 17.8407 0.730127 17.854 0.751386 17.8673L0.751399 17.8673L0.751425 17.8673L0.751477 17.8673L0.751561 17.8674L0.751629 17.8674L0.751892 17.8676L0.752013 17.8676C0.769725 17.8787 0.787471 17.8898 0.804953 17.9012C0.892613 17.9573 0.981561 18.0127 1.07309 18.0655C1.11258 18.0885 1.1534 18.111 1.19408 18.1334L1.2194 18.1474C1.30642 18.1951 1.39472 18.2409 1.48496 18.286L1.51055 18.2986L1.51056 18.2986L1.5106 18.2987L1.51065 18.2987L1.5107 18.2987C1.55324 18.3198 1.59622 18.341 1.63965 18.3614C1.73827 18.4078 1.84011 18.4516 1.94259 18.4948C1.96405 18.5036 1.98508 18.5126 2.00615 18.5217L2.00617 18.5217L2.00621 18.5217L2.00626 18.5217L2.0063 18.5218C2.03012 18.532 2.05399 18.5423 2.07859 18.5522C2.22684 18.6108 2.3796 18.6676 2.53687 18.7204C2.55515 18.7266 2.57413 18.7324 2.59296 18.7381L2.593 18.7381L2.61296 18.7442L2.62968 18.7494C2.76053 18.792 2.89331 18.8326 3.02995 18.8706C3.08427 18.8859 3.14021 18.9002 3.1958 18.9144L3.19583 18.9144L3.19587 18.9144L3.21107 18.9183C3.32451 18.9479 3.43924 18.9763 3.5572 19.0034C3.62552 19.0188 3.69384 19.0337 3.76345 19.0485C3.88334 19.0736 4.00645 19.0975 4.13149 19.1207L4.19204 19.1319L4.19246 19.132L4.19252 19.132L4.1926 19.132L4.19266 19.132C4.23921 19.1407 4.28592 19.1494 4.33388 19.1574C4.48793 19.1832 4.64585 19.2071 4.80698 19.2296C4.82757 19.2324 4.84786 19.2355 4.86821 19.2386L4.86828 19.2387L4.86837 19.2387C4.89002 19.242 4.91173 19.2453 4.93396 19.2483C5.14022 19.276 5.35292 19.2999 5.57207 19.3218C5.60277 19.3247 5.63414 19.3273 5.66558 19.3299L5.66595 19.33C5.69643 19.3325 5.72697 19.335 5.75706 19.3379C5.91884 19.3527 6.0832 19.3663 6.25207 19.3785C6.33499 19.3848 6.41974 19.3898 6.50395 19.3949L6.51054 19.3953C6.66588 19.4049 6.82444 19.4133 6.98622 19.421L7.07253 19.4249L7.07266 19.4249L7.0728 19.4249L7.07292 19.4249L7.07304 19.4249C7.13449 19.4277 7.19623 19.4305 7.25886 19.4326C7.43354 19.4397 7.61208 19.4443 7.7932 19.4488L7.87649 19.4509C7.93124 19.4523 7.98591 19.4537 8.042 19.4546C8.30884 19.4591 8.58149 19.4623 8.8638 19.4623C9.2602 19.4623 9.63533 19.4501 10.0008 19.432C10.0936 19.4275 10.1858 19.4223 10.2767 19.4165C10.6125 19.3959 10.9386 19.3701 11.248 19.3366C11.2564 19.3356 11.2652 19.3348 11.2741 19.334L11.2844 19.3331L11.3002 19.3315C11.6257 19.2954 11.9312 19.2509 12.2271 19.2032C12.3038 19.1903 12.3786 19.1774 12.4533 19.1645C12.7124 19.1187 12.9619 19.0704 13.1971 19.0182L13.2287 19.0117C13.246 19.0083 13.2635 19.0048 13.2803 19.0008C13.5368 18.9421 13.7753 18.8796 14.0041 18.8158C14.058 18.8011 14.1098 18.7858 14.1619 18.7705L14.162 18.7705L14.1833 18.7642C14.376 18.7075 14.5597 18.6502 14.7312 18.5915C14.745 18.5867 14.7595 18.582 14.7741 18.5773L14.7855 18.5736L14.8052 18.5671L14.8169 18.5631C15.009 18.4968 15.1843 18.4297 15.3499 18.3627L15.3756 18.3522C15.4121 18.3374 15.4472 18.3231 15.4827 18.3079ZM9.4584 32.174C9.50573 32.1983 9.55188 32.222 9.59804 32.2451C9.74629 32.3192 9.89002 32.3888 10.0292 32.4507C10.0386 32.4551 10.0483 32.4599 10.0581 32.4647L10.0581 32.4647C10.0728 32.472 10.0876 32.4793 10.1014 32.4855C10.0656 32.4993 10.0288 32.5116 9.99189 32.524C9.96842 32.5318 9.94492 32.5397 9.92161 32.548C9.79979 32.5918 9.67797 32.6344 9.55421 32.6717C9.48873 32.6914 9.42233 32.7087 9.35578 32.7261L9.31959 32.7356C9.19906 32.7678 9.07789 32.7981 8.95607 32.8239C8.88001 32.8406 8.80395 32.8554 8.72725 32.8696C8.59318 32.8941 8.45783 32.9141 8.32247 32.9315C8.30048 32.9343 8.27856 32.9374 8.25666 32.9404L8.25652 32.9405L8.25644 32.9405C8.2136 32.9464 8.17085 32.9524 8.12782 32.9566C7.92607 32.9773 7.72368 32.9914 7.52 32.996C7.37111 32.9992 4.87089 33.0011 4.71426 33.0011C1.23432 33.0011 0 30.1438 0 27.6971L0.000144701 27.3994C0.000287439 27.2043 0.000428236 27.0119 0 26.8218C0.00032796 26.7536 0.000822792 26.6869 0.00131468 26.6205L0.00131477 26.6205L0.00131483 26.6205C0.00178962 26.5565 0.00226165 26.4929 0.00257821 26.4286C0.00321237 26.3569 0.00369055 26.285 0.00416622 26.2134C0.00465747 26.1394 0.00514603 26.0659 0.00580098 25.9935C0.00707539 25.8368 0.00897974 25.6844 0.0108913 25.5315L0.0109574 25.5262L0.0148247 25.2007L0.0225594 24.7218C0.0235091 24.6759 0.0243034 24.6302 0.0250949 24.5846L0.0250956 24.5845L0.0250959 24.5845C0.0259155 24.5373 0.0267323 24.4903 0.0277158 24.4434C0.030294 24.2822 0.0335168 24.1237 0.0373841 23.9677L0.0431851 23.7189C0.0470524 23.5623 0.0509197 23.4069 0.0554316 23.2555L0.0631662 22.9996L0.0656276 22.9239L0.0767018 22.5871C0.0844365 22.3724 0.0928157 22.1617 0.101195 21.9554L0.106996 21.8246C0.115375 21.6325 0.123754 21.443 0.133422 21.258L0.134712 21.2354C0.142769 21.2609 0.151953 21.2857 0.161138 21.3105C0.170323 21.3353 0.179508 21.3602 0.187565 21.3856C0.275869 21.6608 0.371263 21.9316 0.473102 22.1984C0.485348 22.2297 0.49695 22.2612 0.508552 22.2928C0.520154 22.3244 0.531756 22.356 0.544003 22.3873C0.67098 22.707 0.806336 23.0196 0.950071 23.3257C0.969767 23.3679 0.990425 23.4093 1.01116 23.4509C1.02436 23.4773 1.03759 23.5039 1.05062 23.5307C1.16922 23.7756 1.29297 24.0154 1.42124 24.2513L1.45615 24.3156L1.45616 24.3156C1.48692 24.3724 1.5177 24.4292 1.54951 24.4853C1.71258 24.7747 1.88016 25.0589 2.05612 25.3342L2.06515 25.3477L2.07417 25.3612C2.24498 25.6281 2.42352 25.8859 2.60464 26.1398C2.6562 26.212 2.70841 26.2836 2.76127 26.3551C2.9166 26.5659 3.07452 26.7715 3.23501 26.9726C3.25261 26.9945 3.27008 27.0168 3.28754 27.0391L3.28761 27.0392L3.28767 27.0393C3.30917 27.0668 3.33065 27.0942 3.35232 27.1209C3.5502 27.3632 3.7513 27.5985 3.95562 27.8266C3.98333 27.8578 4.01149 27.8881 4.03957 27.9182L4.03959 27.9182C4.05854 27.9386 4.07744 27.9589 4.09614 27.9794C4.26243 28.1605 4.42937 28.3378 4.59824 28.5099L4.63218 28.5446L4.63221 28.5447L4.63223 28.5447L4.63225 28.5447L4.63228 28.5447C4.67684 28.5904 4.72125 28.636 4.76647 28.6807C4.97724 28.8914 5.18865 29.0964 5.402 29.2917L5.42134 29.3091C5.63017 29.4993 5.83836 29.681 6.0472 29.857C6.10521 29.906 6.16257 29.9537 6.22058 30.0014C6.39783 30.1477 6.5738 30.2888 6.74976 30.4248C6.76974 30.4403 6.78988 30.4561 6.81003 30.4719C6.83017 30.4877 6.85031 30.5035 6.87029 30.5189C7.08299 30.6801 7.29312 30.8341 7.50195 30.9804C7.52567 30.997 7.54921 31.0129 7.57267 31.0288C7.59383 31.0431 7.61493 31.0573 7.63602 31.072C7.80489 31.188 7.97183 31.2995 8.13684 31.4052L8.16612 31.4239L8.20804 31.4508C8.2368 31.4693 8.26545 31.4877 8.29411 31.5057C8.49585 31.6321 8.69502 31.7539 8.88903 31.8648L8.89677 31.8693C9.08755 31.9789 9.27254 32.0781 9.45366 32.1716L9.45662 32.1731L9.4584 32.174ZM32.9942 26.2759L32.9961 26.5421C32.9987 26.9191 33 27.3013 33 27.6971C33 30.1438 31.7657 33.0011 28.2857 33.0011C28.1291 33.0011 25.6282 32.9992 25.4794 32.996C25.2989 32.9921 25.1197 32.9824 24.9412 32.9657C24.8725 32.9595 24.8045 32.9499 24.7365 32.9404C24.7055 32.936 24.6745 32.9317 24.6434 32.9276C24.6154 32.924 24.5873 32.9207 24.5592 32.9174L24.559 32.9174L24.5589 32.9174C24.5083 32.9115 24.4576 32.9056 24.4075 32.8974L24.3959 32.8948C24.4385 32.8745 24.4805 32.8523 24.5225 32.83L24.5227 32.83L24.5227 32.8299L24.5228 32.8299C24.5556 32.8125 24.5884 32.7951 24.6215 32.7788C24.7033 32.7381 24.7839 32.6969 24.8644 32.6544C25.1281 32.5151 25.3878 32.3675 25.6437 32.2077C25.6578 32.1991 25.672 32.1909 25.6862 32.1826C25.7084 32.1697 25.7306 32.1567 25.7526 32.1426C26.0408 31.9589 26.3224 31.7604 26.6002 31.5522C26.6493 31.5153 26.6981 31.4772 26.7468 31.4392L26.8078 31.3917C27.0314 31.2176 27.2512 31.0365 27.4678 30.8483C27.4904 30.8286 27.5131 30.8092 27.5357 30.7899C27.5723 30.7585 27.6088 30.7272 27.6451 30.6949C27.9074 30.4603 28.1633 30.216 28.4134 29.9621C28.4416 29.9335 28.4691 29.904 28.4966 29.8746L28.4967 29.8745C28.5163 29.8535 28.536 29.8325 28.5558 29.8119C28.7633 29.5959 28.9657 29.3749 29.1636 29.1473L29.1983 29.1076L29.1984 29.1075C29.248 29.0507 29.2974 28.994 29.346 28.9366C29.5806 28.6594 29.8107 28.3771 30.0312 28.0858C30.0347 28.0813 30.0379 28.0767 30.0411 28.072L30.0412 28.0719L30.0442 28.0676C30.0464 28.0644 30.0487 28.0612 30.0512 28.058C30.2645 27.7751 30.4688 27.4844 30.6686 27.1898C30.7221 27.1112 30.7744 27.0326 30.8266 26.9533C31.0012 26.6877 31.1708 26.4189 31.3338 26.1469L31.3631 26.0994C31.3808 26.0707 31.3987 26.0419 31.4157 26.0129C31.6007 25.6977 31.7773 25.3793 31.9449 25.0576C31.9698 25.0105 31.9936 24.9634 32.0173 24.9162C32.0315 24.888 32.0457 24.8597 32.0602 24.8314C32.195 24.5665 32.3232 24.3009 32.4463 24.0335L32.472 23.9783C32.4978 23.9232 32.5235 23.8681 32.5482 23.813C32.6829 23.5114 32.8124 23.2084 32.9317 22.9048L32.9323 22.9306C32.9433 23.2677 32.9523 23.6151 32.9607 23.9729L32.9626 24.0612C32.9697 24.3847 32.9755 24.7173 32.9807 25.0576C32.982 25.1086 32.9826 25.1576 32.9832 25.2091C32.9878 25.5552 32.9916 25.9117 32.9942 26.2759Z" fill="white"/>
</svg>
