<svg width="30" height="25" viewBox="0 0 30 25" fill="none" xmlns="http://www.w3.org/2000/svg">
<path d="M0 18.6929L3.05716 15.8042L9.74301 22.1115L6.68585 25.0002L0 18.6929Z" fill="white"/>
<path d="M29.4124 9.60889C28.7061 9.02808 27.6277 9.09941 27.0131 9.77192L22.7643 14.398C22.7643 14.4234 22.7643 14.454 22.7643 14.4795C22.7643 15.585 21.81 16.4919 20.6346 16.4919H13.7007C13.5659 16.4919 13.4527 16.39 13.4527 16.2575C13.4527 16.1251 13.5605 16.0232 13.7007 16.0232H20.6399C21.5404 16.0232 22.2737 15.3303 22.2737 14.4795C22.2737 14.4336 22.2737 14.3827 22.2683 14.3368C22.2359 13.9751 22.0688 13.6388 21.7992 13.3841C21.4919 13.0937 21.0821 12.9307 20.6453 12.9307H7.66186C6.64819 12.9307 5.69924 13.3026 4.98212 13.9802L3.40771 15.4679L10.0882 21.7853L11.1719 20.7613C11.5709 20.3843 12.04 20.0888 12.563 19.885C13.086 19.6812 13.636 19.5793 14.2021 19.5793H20.7424C21.7992 19.5793 22.8991 19.1055 23.6755 18.3158L29.585 11.8811C29.8546 11.5907 30.0001 11.2137 30.0001 10.8316C30.0001 10.3578 29.7845 9.91457 29.4124 9.60889Z" fill="white"/>
<path fill-rule="evenodd" clip-rule="evenodd" d="M20.9312 5.65517C20.9312 2.53209 18.2515 0 14.9463 0C11.6412 0 8.96143 2.53209 8.96143 5.65517C8.96143 8.77826 11.6412 11.3103 14.9463 11.3103C18.2515 11.3103 20.9312 8.77826 20.9312 5.65517ZM14.2779 2.2059C13.3019 2.48101 12.6172 3.22994 12.6172 4.21323C12.6172 5.4054 13.4799 5.82827 14.5151 6.19509C14.5677 6.21332 14.6252 6.23215 14.6857 6.25201C15.1839 6.41533 15.8954 6.64858 15.8954 7.19366C15.8954 8.24827 14.197 8.16166 13.922 7.30065C13.8897 7.18857 13.7764 7.11214 13.6524 7.11214H12.9461C12.8598 7.11214 12.7843 7.14781 12.7304 7.20894C12.6711 7.27008 12.6495 7.3465 12.6657 7.42802C12.7843 8.06996 13.1402 8.62529 13.7495 8.94626C13.9166 9.03287 14.0945 9.0991 14.2779 9.14495L14.2833 9.8735C14.2833 10.0212 14.4127 10.1435 14.569 10.1435H15.3401C15.4964 10.1435 15.6258 10.0212 15.6258 9.8735V9.11438C16.6017 8.83926 17.2865 8.09034 17.2865 7.10705C17.2865 5.84865 16.3321 5.45635 15.2538 5.08443C15.217 5.07165 15.1783 5.05856 15.1383 5.045C14.6677 4.88563 14.0083 4.66229 14.0083 4.13171C14.0083 3.07201 15.7067 3.15862 15.9817 4.01963C16.014 4.13171 16.1273 4.20814 16.2513 4.20814H16.9576C17.0439 4.20814 17.1194 4.17247 17.1733 4.11134C17.2326 4.0502 17.2541 3.97378 17.238 3.89226C17.1194 3.25032 16.7635 2.69499 16.1542 2.37402C15.9871 2.28741 15.8091 2.22118 15.6258 2.17533L15.6204 1.44678C15.6204 1.29903 15.491 1.17676 15.3347 1.17676H14.5636C14.4073 1.17676 14.2779 1.29903 14.2779 1.44678V2.2059Z" fill="white"/>
</svg>
