<svg width="94" height="94" viewBox="0 0 94 94" fill="none" xmlns="http://www.w3.org/2000/svg">
<g filter="url(#filter0_d_240_949)">
<path fill-rule="evenodd" clip-rule="evenodd" d="M46.9999 9.99999C61.9116 9.99999 74 22.0882 74 36.9999C74 51.9116 61.9116 64 46.9999 64C32.0883 64 19.9999 51.9116 19.9999 36.9999C19.9999 22.0882 32.0883 9.99999 46.9999 9.99999Z" fill="white"/>
</g>
<path fill-rule="evenodd" clip-rule="evenodd" d="M58.0868 30.9354L47.4889 25.5253L47.4845 25.5228C47.0126 25.2862 46.452 25.2915 45.9845 25.537L41.716 27.8195L52.9364 33.8019L58.3523 31.1031C58.2701 31.0399 58.1818 30.9832 58.0868 30.9354ZM35.8857 30.9372L40.2154 28.622L51.3829 34.576L46.7468 36.8866L35.6753 31.0697C35.7415 31.0209 35.8115 30.9763 35.8857 30.9372ZM53.4589 35.1217L58.9978 32.3615L58.9986 32.3827C58.9993 32.3965 58.9999 32.4102 58.9999 32.4241V42.4535C58.9999 43.088 58.6501 43.6584 58.0868 43.9419L47.4846 49.3545C47.4758 49.359 47.4669 49.363 47.458 49.3671L47.4412 49.3749V38.1205L52.0531 35.8224V38.2315C52.0531 38.6224 52.3678 38.9396 52.756 38.9396C53.1441 38.9396 53.4589 38.6224 53.4589 38.2315V35.1217ZM34.9999 32.4119C34.9999 32.3788 35.0014 32.3465 35.0032 32.3141L46.0354 38.1101V49.3651C46.0321 49.3635 46.0288 49.362 46.0255 49.3604C46.0118 49.3539 45.998 49.3475 45.9845 49.3404L45.98 49.3381L35.8857 43.9404C35.3393 43.652 34.9999 43.0873 34.9999 42.4657V32.4119Z" fill="#A0A5B9"/>
<defs>
<filter id="filter0_d_240_949" x="-0.00012207" y="0" width="94.0001" height="93.9999" filterUnits="userSpaceOnUse" color-interpolation-filters="sRGB">
<feFlood flood-opacity="0" result="BackgroundImageFix"/>
<feColorMatrix in="SourceAlpha" type="matrix" values="0 0 0 0 0 0 0 0 0 0 0 0 0 0 0 0 0 0 127 0" result="hardAlpha"/>
<feOffset dy="10"/>
<feGaussianBlur stdDeviation="10"/>
<feColorMatrix type="matrix" values="0 0 0 0 0.627451 0 0 0 0 0.647059 0 0 0 0 0.72549 0 0 0 0.2 0"/>
<feBlend mode="normal" in2="BackgroundImageFix" result="effect1_dropShadow_240_949"/>
<feBlend mode="normal" in="SourceGraphic" in2="effect1_dropShadow_240_949" result="shape"/>
</filter>
</defs>
</svg>
