<svg width="100" height="100" viewBox="0 0 100 100" fill="none" xmlns="http://www.w3.org/2000/svg">
<circle opacity="0.1" cx="49.9999" cy="50" r="50" fill="#9E49E6"/>
<path d="M29.3749 31C27.8514 31 26.5233 31.5664 25.3905 32.6992C24.2968 33.793 23.7499 35.1016 23.7499 36.625V62.875C23.7499 64.3984 24.2968 65.7266 25.3905 66.8594C26.5233 67.9531 27.8514 68.5 29.3749 68.5H70.6249C72.1483 68.5 73.4569 67.9531 74.5507 66.8594C75.6835 65.7266 76.2499 64.3984 76.2499 62.875V36.625C76.2499 35.1016 75.6835 33.793 74.5507 32.6992C73.4569 31.5664 72.1483 31 70.6249 31H29.3749ZM29.3749 34.75H70.6249C71.1327 34.75 71.5624 34.9453 71.9139 35.3359C72.3046 35.6875 72.4999 36.1172 72.4999 36.625V62.875C72.4999 63.3828 72.3046 63.832 71.9139 64.2227C71.5624 64.5742 71.1327 64.75 70.6249 64.75H29.3749C28.8671 64.75 28.4178 64.5742 28.0272 64.2227C27.6757 63.832 27.4999 63.3828 27.4999 62.875V36.625C27.4999 36.1172 27.6757 35.6875 28.0272 35.3359C28.4178 34.9453 28.8671 34.75 29.3749 34.75ZM31.2499 47.875C30.7421 47.875 30.2928 48.0703 29.9022 48.4609C29.5507 48.8125 29.3749 49.2422 29.3749 49.75C29.3749 50.2578 29.5507 50.707 29.9022 51.0977C30.2928 51.4492 30.7421 51.625 31.2499 51.625C31.7577 51.625 32.1874 51.4492 32.5389 51.0977C32.9296 50.707 33.1249 50.2578 33.1249 49.75C33.1249 49.2422 32.9296 48.8125 32.5389 48.4609C32.1874 48.0703 31.7577 47.875 31.2499 47.875Z" fill="#9E49E6"/>
</svg>
