<svg width="24" height="24" viewBox="0 0 24 24" fill="none" xmlns="http://www.w3.org/2000/svg">
<path d="M23.9468 13.1223H0.0541992V13.1228H23.9468V13.1223Z" fill="#C42126"/>
<path d="M22.7016 6.57153H1.29883V6.57203H22.7016V6.57153Z" fill="#C42126"/>
<path d="M23.5515 8.75477H0.447266V8.75528H23.5515V8.75477Z" fill="#C42126"/>
<path d="M5.15773 21.8558H18.8429L18.8434 21.8553H5.15723L5.15773 21.8558Z" fill="#C42126"/>
<path d="M12.0001 0C11.7645 0 11.5304 0.00861341 11.2983 0.0217869H12.7018C12.4693 0.00861341 12.2357 0 12.0001 0Z" fill="#C42126"/>
<path d="M23.95 10.9385H0.0498047V10.939H23.95V10.9385Z" fill="#C42126"/>
<path d="M15.5466 4.38828H21.2765C20.5961 3.55987 19.8047 2.82621 18.9286 2.20554H14.626C14.9817 2.83179 15.2877 3.57102 15.5466 4.38828Z" fill="#E7E7E7"/>
<path d="M14.6257 2.20554H18.9284C17.1495 0.944941 15.0138 0.155547 12.7014 0.0217857H12.332C13.4209 0.158587 13.921 0.964194 14.6257 2.20554Z" fill="#DC3027"/>
<path d="M23.5519 8.75477C23.3386 7.99375 23.0523 7.26364 22.7007 6.57203H16.1089C16.2426 7.27276 16.348 8.0049 16.4261 8.75477H23.5519Z" fill="#E7E7E7"/>
<path d="M15.738 6.57152H22.7007C22.304 5.79125 21.8272 5.0586 21.2764 4.38828H15.1938C15.4087 5.06722 15.5906 5.79936 15.738 6.57152Z" fill="#DC3027"/>
<path d="M16.6787 13.1218H23.9459C23.9803 12.7524 24.0001 12.3785 24.0001 12C24.0001 11.6423 23.9814 11.2886 23.9505 10.9385H16.6802C16.704 11.6646 16.7035 12.3962 16.6787 13.1218Z" fill="#E7E7E7"/>
<path d="M23.9502 10.9385C23.8844 10.1886 23.7496 9.45955 23.552 8.75578H16.1196C16.1941 9.4707 16.2438 10.2018 16.2676 10.9385H23.9502Z" fill="#DC3027"/>
<path d="M15.9834 17.4888H22.6694C23.0261 16.7977 23.3165 16.067 23.5348 15.3055H16.3067C16.2271 16.0564 16.1192 16.7886 15.9834 17.4888Z" fill="#E7E7E7"/>
<path d="M23.5351 15.305C23.7367 14.6013 23.8761 13.8721 23.946 13.1223H16.4523C16.4265 13.8595 16.3758 14.5906 16.2998 15.305H23.5351Z" fill="#DC3027"/>
<path d="M18.8433 21.8553C19.7325 21.2366 20.5346 20.5025 21.2257 19.6725H15.5956C15.3326 20.4933 15.02 21.2316 14.6577 21.8553H18.8433Z" fill="#E7E7E7"/>
<path d="M15.3833 19.672H21.2252C21.7826 19.0022 22.2664 18.2701 22.6692 17.4888H15.9341C15.7846 18.2614 15.6007 18.9941 15.3833 19.672Z" fill="#DC3027"/>
<path d="M11.5647 23.9914C11.5403 23.9904 11.516 23.9894 11.4917 23.9888C11.516 23.9894 11.5403 23.9904 11.5647 23.9914Z" fill="#DC3027"/>
<path d="M12 24C14.544 24 16.9015 23.206 18.8426 21.8558H14.4999C13.7288 23.1838 13.2201 24 12 24Z" fill="#DC3027"/>
<path d="M12.0002 24C11.8542 24 11.7098 23.9965 11.5654 23.9914C11.7108 23.9965 11.8558 24 12.0002 24Z" fill="#C42126"/>
<path d="M15.0231 2.20554H5.07108C4.19454 2.82621 3.40362 3.55987 2.72266 4.38828H15.9432C15.6848 3.57102 15.3788 2.83179 15.0231 2.20554Z" fill="#F3F4F5"/>
<path d="M5.07129 2.20554H15.0233C14.318 0.964701 13.4207 0.159094 12.3324 0.0217857H11.2983C8.98532 0.155547 6.8497 0.944941 5.07129 2.20554Z" fill="#E73625"/>
<path d="M0.447266 8.75477H16.8041C16.7261 8.0049 16.6207 7.27276 16.487 6.57203H1.29847C0.946843 7.26415 0.660574 7.99426 0.447266 8.75477Z" fill="#F3F4F5"/>
<path d="M2.72359 4.38828C2.17284 5.0586 1.69555 5.79125 1.29883 6.57152H16.4873C16.3399 5.79936 16.158 5.06722 15.9437 4.38828C15.9437 4.38828 2.72359 4.38828 2.72359 4.38828Z" fill="#E73625"/>
<path d="M0 12C0 12.378 0.0197602 12.7524 0.0542138 13.1218H16.9512C16.976 12.3962 16.9765 11.6651 16.9527 10.939H0.0496538C0.0187468 11.2886 0 11.6423 0 12Z" fill="#F3F4F5"/>
<path d="M0.0498047 10.9385H16.9529C16.9285 10.2018 16.8794 9.4707 16.8049 8.75578H0.447542C0.250446 9.45904 0.115165 10.1886 0.0498047 10.9385Z" fill="#E73625"/>
<path d="M16.7984 15.305H0.464355C0.682224 16.0665 0.973053 16.7972 1.32924 17.4883H16.4747C16.6104 16.7885 16.7184 16.0564 16.7984 15.305Z" fill="#F3F4F5"/>
<path d="M0.464603 15.305H16.7982C16.8742 14.5906 16.9253 13.859 16.9507 13.1223H0.0541992C0.123613 13.8721 0.263454 14.6018 0.464603 15.305Z" fill="#E73625"/>
<path d="M5.1568 21.8553H14.9867C15.349 21.231 15.6616 20.4933 15.9251 19.6725H2.77393C3.46553 20.5025 4.26759 21.2366 5.1568 21.8553Z" fill="#F3F4F5"/>
<path d="M1.33008 17.4888C1.73288 18.2701 2.21675 19.0022 2.77409 19.672H15.9247C16.1421 18.9941 16.326 18.2614 16.4755 17.4888H1.33008Z" fill="#E73625"/>
<path d="M11.4926 23.9889C11.5169 23.9899 11.5413 23.9909 11.5656 23.9914C11.71 23.9965 11.8549 24 12.0003 24C13.2209 24 14.216 23.1838 14.9866 21.8558H5.15771C6.96906 23.1154 9.14319 23.8906 11.4926 23.9889Z" fill="#E73625"/>
<path d="M11.7518 0.00608063C5.60236 0.131228 0.590368 4.87924 0.0512695 10.9188H11.7523L11.7518 0.00608063Z" fill="#283991"/>
<path d="M2.40118 6.79902L2.58409 7.36193H3.17639L2.69708 7.71002L2.87999 8.27344L2.40118 7.92485L1.92238 8.27344L2.10478 7.71002L1.62598 7.36193H2.21828L2.40118 6.79902Z" fill="#EFEFEF"/>
<path d="M2.40118 8.78771L2.58409 9.35062H3.17639L2.69708 9.69921L2.87999 10.2621L2.40118 9.91404L1.92238 10.2621L2.10478 9.69921L1.62598 9.35062H2.21828L2.40118 8.78771Z" fill="#EFEFEF"/>
<path d="M4.39046 3.81524L4.57337 4.37815H5.16516L4.68636 4.72623L4.86926 5.28914L4.39046 4.94157L3.91115 5.28914L4.09406 4.72623L3.61475 4.37815H4.20704L4.39046 3.81524Z" fill="#EFEFEF"/>
<path d="M4.39046 5.80392L4.57337 6.36734H5.16516L4.68636 6.71492L4.86926 7.27833L4.39046 6.93076L3.91115 7.27833L4.09406 6.71492L3.61475 6.36734H4.20704L4.39046 5.80392Z" fill="#EFEFEF"/>
<path d="M4.39046 7.79311L4.57337 8.35653H5.16516L4.68636 8.70411L4.86926 9.26753L4.39046 8.91944L3.91115 9.26753L4.09406 8.70411L3.61475 8.35653H4.20704L4.39046 7.79311Z" fill="#EFEFEF"/>
<path d="M0.89072 9.26753L0.707811 8.70411L1.18662 8.35602H0.594824L0.58165 8.31498C0.516796 8.51613 0.458022 8.71931 0.403809 8.92502L0.411915 8.91894L0.89072 9.26753Z" fill="#EFEFEF"/>
<path d="M1.92242 6.28425L2.40123 5.93616L2.88003 6.28425L2.69712 5.72083L3.17593 5.37275H2.58363L2.40072 4.80983L2.21781 5.37275H1.99944C1.95891 5.43405 1.91989 5.49587 1.88037 5.55819L2.10483 5.72083L1.92242 6.28425Z" fill="#EFEFEF"/>
<path d="M4.39046 2.95238L4.86927 3.30046L4.68636 2.73755L5.16516 2.38947H4.82316C4.53284 2.60683 4.25265 2.83635 3.9831 3.07904L3.91064 3.30097L4.39046 2.95238Z" fill="#EFEFEF"/>
<path d="M5.90039 2.30586L6.3792 1.95778L6.858 2.30586L6.67509 1.74244L7.1539 1.39436H6.5616L6.53677 1.31836C6.33613 1.42071 6.13751 1.52762 5.94346 1.64111L6.08279 1.74194L5.90039 2.30586Z" fill="#EFEFEF"/>
<path d="M6.37872 2.82064L6.56163 3.38355H7.15393L6.67462 3.73164L6.85753 4.29505L6.37872 3.94646L5.89992 4.29505L6.08283 3.73164L5.60352 3.38355H6.19581L6.37872 2.82064Z" fill="#EFEFEF"/>
<path d="M6.37872 4.80983L6.56163 5.37275H7.15393L6.67462 5.72083L6.85753 6.28425L6.37872 5.93566L5.89992 6.28425L6.08283 5.72083L5.60352 5.37275H6.19581L6.37872 4.80983Z" fill="#EFEFEF"/>
<path d="M6.37872 6.79902L6.56163 7.36193H7.15393L6.67462 7.71002L6.85753 8.27344L6.37872 7.92485L5.89992 8.27344L6.08283 7.71002L5.60352 7.36193H6.19581L6.37872 6.79902Z" fill="#EFEFEF"/>
<path d="M6.37872 8.78771L6.56163 9.35062H7.15393L6.67462 9.69921L6.85753 10.2621L6.37872 9.91404L5.89992 10.2621L6.08283 9.69921L5.60352 9.35062H6.19581L6.37872 8.78771Z" fill="#EFEFEF"/>
<path d="M8.36798 1.82605L8.55089 2.38896H9.14319L8.66438 2.73755L8.84678 3.30046L8.36798 2.95238L7.88918 3.30046L8.07208 2.73755L7.59277 2.38896H8.18507L8.36798 1.82605Z" fill="#EFEFEF"/>
<path d="M8.36798 3.81524L8.55089 4.37815H9.14319L8.66438 4.72623L8.84678 5.28914L8.36798 4.94157L7.88918 5.28914L8.07208 4.72623L7.59277 4.37815H8.18507L8.36798 3.81524Z" fill="#EFEFEF"/>
<path d="M8.36798 5.80392L8.55089 6.36734H9.14319L8.66438 6.71492L8.84678 7.27833L8.36798 6.93076L7.88918 7.27833L8.07208 6.71492L7.59277 6.36734H8.18507L8.36798 5.80392Z" fill="#EFEFEF"/>
<path d="M8.36798 7.79311L8.55089 8.35653H9.14319L8.66438 8.70411L8.84678 9.26753L8.36798 8.91944L7.88918 9.26753L8.07208 8.70411L7.59277 8.35653H8.18507L8.36798 7.79311Z" fill="#EFEFEF"/>
<path d="M10.3572 0.83145L10.5401 1.39487H11.1319L10.6531 1.74244L10.836 2.30586L10.3572 1.95778L9.87793 2.30586L10.0608 1.74244L9.58203 1.39487H10.1738L10.3572 0.83145Z" fill="#EFEFEF"/>
<path d="M10.3572 2.82064L10.5401 3.38355H11.1319L10.6531 3.73164L10.836 4.29505L10.3572 3.94646L9.87793 4.29505L10.0608 3.73164L9.58203 3.38355H10.1738L10.3572 2.82064Z" fill="#EFEFEF"/>
<path d="M10.3572 4.80983L10.5401 5.37275H11.1319L10.6531 5.72083L10.836 6.28425L10.3572 5.93566L9.87793 6.28425L10.0608 5.72083L9.58203 5.37275H10.1738L10.3572 4.80983Z" fill="#EFEFEF"/>
<path d="M10.3572 6.79902L10.5401 7.36193H11.1319L10.6531 7.71002L10.836 8.27344L10.3572 7.92485L9.87793 8.27344L10.0608 7.71002L9.58203 7.36193H10.1738L10.3572 6.79902Z" fill="#EFEFEF"/>
<path d="M10.3572 8.78771L10.5401 9.35062H11.1319L10.6531 9.69921L10.836 10.2621L10.3572 9.91404L9.87793 10.2621L10.0608 9.69921L9.58203 9.35062H10.1738L10.3572 8.78771Z" fill="#EFEFEF"/>
</svg>
