<svg width="60" height="60" viewBox="0 0 60 60" fill="none" xmlns="http://www.w3.org/2000/svg">
<circle opacity="0.1" cx="30" cy="30" r="30" fill="#0A8FDC"/>
<path d="M30 18C28.7292 18 27.5521 18.3125 26.4688 18.9375C25.4062 19.5625 24.5625 20.4167 23.9375 21.5C23.3125 22.5625 23 23.7292 23 25C23 26.1667 23.2708 27.2604 23.8125 28.2812C24.3542 29.2812 25.0938 30.1042 26.0312 30.75C24.6562 31.2917 23.4375 32.0729 22.375 33.0938C21.3125 34.1146 20.4896 35.2917 19.9062 36.625C19.3021 38.0208 19 39.4792 19 41H21C21 39.5625 21.3229 38.2083 21.9688 36.9375C22.6146 35.6875 23.5 34.6458 24.625 33.8125C25.75 32.9583 27 32.4062 28.375 32.1562L29 34H31L31.625 32.1562C33 32.4062 34.25 32.9583 35.375 33.8125C36.5 34.6458 37.3854 35.6875 38.0312 36.9375C38.6771 38.2083 39 39.5625 39 41H41C41 39.4792 40.6979 38.0208 40.0938 36.625C39.5104 35.2917 38.6875 34.1146 37.625 33.0938C36.5625 32.0729 35.3438 31.2917 33.9688 30.75C34.9062 30.1042 35.6458 29.2812 36.1875 28.2812C36.7292 27.2604 37 26.1667 37 25C37 23.7292 36.6875 22.5625 36.0625 21.5C35.4375 20.4167 34.5833 19.5625 33.5 18.9375C32.4375 18.3125 31.2708 18 30 18ZM30 20C30.9167 20 31.75 20.2292 32.5 20.6875C33.2708 21.125 33.875 21.7292 34.3125 22.5C34.7708 23.25 35 24.0833 35 25C35 25.9167 34.7708 26.7604 34.3125 27.5312C33.875 28.2812 33.2708 28.8854 32.5 29.3438C31.75 29.7812 30.9167 30 30 30C29.0833 30 28.2396 29.7812 27.4688 29.3438C26.7188 28.8854 26.1146 28.2812 25.6562 27.5312C25.2188 26.7604 25 25.9167 25 25C25 24.0833 25.2188 23.25 25.6562 22.5C26.1146 21.7292 26.7188 21.125 27.4688 20.6875C28.2396 20.2292 29.0833 20 30 20ZM29 35L28 41H32L31 35H29Z" fill="#0A8FDC"/>
</svg>
