<svg width="60" height="60" viewBox="0 0 60 60" fill="none" xmlns="http://www.w3.org/2000/svg">
<circle opacity="0.1" cx="30" cy="30" r="30" fill="#0A8FDC"/>
<path d="M20 17V43H40V23.5938L39.7188 23.2812L33.7188 17.2812L33.4062 17H20ZM22 19H32V25H38V41H22V19ZM34 20.4375L36.5625 23H34V20.4375ZM30 27L28 39H30L32 27H30ZM26.2188 29.375L23.7188 32.375L23.1875 33L26.2188 36.625L27.7812 35.375L25.8125 33L27.7812 30.625L26.2188 29.375ZM33.7812 29.375L32.2188 30.625L34.1875 33L32.2188 35.375L33.7812 36.625L36.8125 33L36.2812 32.375L33.7812 29.375Z" fill="#0A8FDC"/>
</svg>
