<svg width="40" height="40" viewBox="0 0 40 40" fill="none" xmlns="http://www.w3.org/2000/svg">
<rect width="40" height="40" rx="20" fill="#00AEEF"/>
<path d="M27.6689 16.458C28.4697 15.8879 29.1433 15.1764 29.6923 14.3572V14.3564C28.9595 14.678 28.1801 14.8918 27.3661 14.9955C28.203 14.4945 28.8422 13.7074 29.1425 12.759C28.3622 13.2254 27.5007 13.5544 26.5825 13.7386C25.8416 12.9473 24.7856 12.4579 23.6336 12.4579C21.3985 12.4579 19.5992 14.2766 19.5992 16.5057C19.5992 16.8265 19.6262 17.1349 19.6927 17.4286C16.3368 17.264 13.3666 15.6519 11.3711 13.1949C11.0232 13.8011 10.818 14.4945 10.818 15.2406C10.818 16.6422 11.5376 17.8842 12.6117 18.604C11.9627 18.5916 11.3268 18.4024 10.7877 18.1055V18.1499C10.7877 20.1166 12.1867 21.7502 14.0221 22.1269C13.6931 22.2174 13.3354 22.2602 12.9637 22.2602C12.7052 22.2602 12.4443 22.2454 12.1998 22.1911C12.7225 23.7934 14.2076 24.9721 15.9717 25.0108C14.5981 26.0875 12.8537 26.7364 10.9657 26.7364C10.6351 26.7364 10.3175 26.7216 10 26.6813C11.7887 27.837 13.9073 28.4975 16.1932 28.4975C23.3177 28.4975 27.961 22.539 27.6689 16.458Z" fill="white"/>
</svg>
