<svg width="14" height="14" viewBox="0 0 14 14" fill="none" xmlns="http://www.w3.org/2000/svg">
<path fill-rule="evenodd" clip-rule="evenodd" d="M14 3.06808C14 4.76254 10.866 6.13617 7 6.13617C3.13401 6.13617 0 4.76254 0 3.06808C0 1.37363 3.13401 0 7 0C10.866 0 14 1.37363 14 3.06808ZM14 6.85105V5.42126C14 5.27232 13.8213 5.18296 13.7021 5.27232C12.2425 6.43403 9.62127 7.02977 7 7.02977C4.40851 7.02977 1.78723 6.43403 0.297872 5.27232C0.178723 5.18296 0 5.27232 0 5.42126V6.85105V6.97019C0 8.63828 3.12766 10.0085 7 10.0085C10.8723 10.0085 14 8.63828 14 6.94041V6.85105ZM14 10.8426V9.41276C14 9.26383 13.8213 9.17447 13.7021 9.26383C12.2425 10.4255 9.62127 11.0213 7 11.0213C4.40851 11.0213 1.78723 10.4255 0.297872 9.26383C0.178723 9.17447 0 9.26383 0 9.41276V10.8426V10.9617C0 12.6298 3.12766 14 7 14C10.8723 14 14 12.6298 14 10.9319V10.8426Z" fill="#FB9C3B"/>
</svg>
