<svg width="36" height="37" viewBox="0 0 36 37" fill="none" xmlns="http://www.w3.org/2000/svg">
<path fill-rule="evenodd" clip-rule="evenodd" d="M17.9999 1.93747C27.3888 1.93747 34.9999 9.54863 34.9999 18.9374C34.9999 28.3263 27.3888 35.9374 17.9999 35.9374C8.61109 35.9374 0.999972 28.3263 0.999972 18.9374C0.999972 9.54863 8.61109 1.93747 17.9999 1.93747Z" fill="#D50000"/>
<path fill-rule="evenodd" clip-rule="evenodd" d="M26.4766 14.9328L26.4993 15.0713C26.2817 14.345 25.6945 13.7844 24.9481 13.5804L24.9324 13.5768C23.5292 13.2183 17.8825 13.2183 17.8825 13.2183C17.8825 13.2183 12.2502 13.2114 10.8328 13.5768C10.0723 13.7844 9.48417 14.345 9.27052 15.0565L9.26674 15.0713C8.74247 17.6484 8.73871 20.7453 9.28996 23.5046L9.26674 23.3649C9.48417 24.0912 10.0715 24.6517 10.8176 24.8556L10.8334 24.8592C12.2352 25.2185 17.8833 25.2185 17.8833 25.2185C17.8833 25.2185 23.515 25.2185 24.9332 24.8592C25.6945 24.6517 26.2824 24.0912 26.4962 23.3797L26.4999 23.3649C26.7384 22.1662 26.8748 20.7869 26.8748 19.378C26.8748 19.3265 26.8748 19.2742 26.8742 19.2219C26.8748 19.174 26.8748 19.1167 26.8748 19.0596C26.8748 17.65 26.7384 16.2707 26.4766 14.9328ZM16.0811 21.7956V16.6474L20.7805 19.2254L16.0811 21.7956Z" fill="white"/>
</svg>
