<svg width="62" height="86" viewBox="0 0 62 86" fill="none" xmlns="http://www.w3.org/2000/svg">
<path d="M62 0H0V86H62V0Z" fill="white"/>
<path d="M62 68H0V86H62V68Z" fill="white"/>
<path d="M43.5 74H12.5C11.1193 74 10 75.1193 10 76.5C10 77.8807 11.1193 79 12.5 79H43.5C44.8807 79 46 77.8807 46 76.5C46 75.1193 44.8807 74 43.5 74Z" fill="#6B7280"/>
<path d="M62 51H0V68H62V51Z" fill="white"/>
<path d="M56 53H6C4.89543 53 4 53.8954 4 55V64C4 65.1046 4.89543 66 6 66H56C57.1046 66 58 65.1046 58 64V55C58 53.8954 57.1046 53 56 53Z" fill="#6B7280"/>
<path d="M43.5 57H12.5C11.1193 57 10 58.1193 10 59.5C10 60.8807 11.1193 62 12.5 62H43.5C44.8807 62 46 60.8807 46 59.5C46 58.1193 44.8807 57 43.5 57Z" fill="white"/>
<path d="M62 34H0V51H62V34Z" fill="white"/>
<path d="M43.5 40H12.5C11.1193 40 10 41.1193 10 42.5C10 43.8807 11.1193 45 12.5 45H43.5C44.8807 45 46 43.8807 46 42.5C46 41.1193 44.8807 40 43.5 40Z" fill="#6B7280"/>
<path d="M62 17H0V34H62V17Z" fill="white"/>
<path d="M43.5 23H12.5C11.1193 23 10 24.1193 10 25.5C10 26.8807 11.1193 28 12.5 28H43.5C44.8807 28 46 26.8807 46 25.5C46 24.1193 44.8807 23 43.5 23Z" fill="#6B7280"/>
<path d="M62 0H0V17H62V0Z" fill="white"/>
<path d="M43.5 6H12.5C11.1193 6 10 7.11929 10 8.5C10 9.88071 11.1193 11 12.5 11H43.5C44.8807 11 46 9.88071 46 8.5C46 7.11929 44.8807 6 43.5 6Z" fill="#6B7280"/>
<path d="M61.5 0.5H0.5V85.5H61.5V0.5Z" stroke="#6B7280"/>
</svg>
