<svg width="64" height="88" viewBox="0 0 64 88" fill="none" xmlns="http://www.w3.org/2000/svg">
<path d="M63.032 1.00151L1 1.04749L1.06372 87.0244L63.0957 86.9785L63.032 1.00151Z" stroke="#6B7280"/>
<path d="M63.0318 1H1.03179V87H63.0318V1Z" fill="white"/>
<path d="M63.0318 1H1.03179V87H63.0318V1Z" fill="#6B7280"/>
<path d="M63.0318 69H1.03179V87H63.0318V69Z" fill="white"/>
<path d="M44.5318 75H13.5318C12.1511 75 11.0318 76.1193 11.0318 77.5C11.0318 78.8807 12.1511 80 13.5318 80H44.5318C45.9125 80 47.0318 78.8807 47.0318 77.5C47.0318 76.1193 45.9125 75 44.5318 75Z" fill="#6B7280"/>
<rect x="1.03179" y="52" width="22" height="17" fill="white"/>
<path d="M5.03179 60.5C5.03179 56.9101 7.94194 54 11.5318 54H63.0318V67H11.5318C7.94194 67 5.03179 64.0899 5.03179 60.5Z" fill="#6B7280"/>
<path d="M1.03203 51.0001H63.032C63.032 52.6569 61.6889 54.0001 60.032 54.0001H1.03203V51.0001Z" fill="white"/>
<path d="M1.03203 70.0001H63.032C63.032 68.3432 61.6889 67.0001 60.032 67.0001H1.03203V70.0001Z" fill="white"/>
<path d="M44.5318 58H13.5318C12.1511 58 11.0318 59.1193 11.0318 60.5C11.0318 61.8807 12.1511 63 13.5318 63H44.5318C45.9125 63 47.0318 61.8807 47.0318 60.5C47.0318 59.1193 45.9125 58 44.5318 58Z" fill="white"/>
<path d="M63.0318 35H1.03179V52H63.0318V35Z" fill="white"/>
<path d="M44.5318 41H13.5318C12.1511 41 11.0318 42.1193 11.0318 43.5C11.0318 44.8807 12.1511 46 13.5318 46H44.5318C45.9125 46 47.0318 44.8807 47.0318 43.5C47.0318 42.1193 45.9125 41 44.5318 41Z" fill="#6B7280"/>
<path d="M63.0318 18H1.03179V35H63.0318V18Z" fill="white"/>
<path d="M44.5318 24H13.5318C12.1511 24 11.0318 25.1193 11.0318 26.5C11.0318 27.8807 12.1511 29 13.5318 29H44.5318C45.9125 29 47.0318 27.8807 47.0318 26.5C47.0318 25.1193 45.9125 24 44.5318 24Z" fill="#6B7280"/>
<path d="M63.0318 1H1.03179V18H63.0318V1Z" fill="white"/>
<path d="M44.5318 7H13.5318C12.1511 7 11.0318 8.11929 11.0318 9.5C11.0318 10.8807 12.1511 12 13.5318 12H44.5318C45.9125 12 47.0318 10.8807 47.0318 9.5C47.0318 8.11929 45.9125 7 44.5318 7Z" fill="#6B7280"/>
</svg>
